<?xml version="1.0" standalone="no"?>
<!DOCTYPE svg PUBLIC "-//W3C//DTD SVG 20010904//EN"
 "http://www.w3.org/TR/2001/REC-SVG-20010904/DTD/svg10.dtd">
<svg version="1.0" xmlns="http://www.w3.org/2000/svg"
 width="816.000000pt" height="816.000000pt" viewBox="0 0 816.000000 816.000000"
 preserveAspectRatio="xMidYMid meet">
<metadata>
Created by potrace 1.11, written by Peter Selinger 2001-2013
</metadata>
<g transform="translate(0.000000,816.000000) scale(0.100000,-0.100000)"
fill="#000000" stroke="none">
<path d="M1955 8141 c-95 -44 -141 -157 -101 -252 16 -39 74 -95 113 -110 33
-12 88 -11 135 3 76 22 137 126 124 207 -3 20 -7 42 -8 49 -1 8 -20 33 -44 57
-63 65 -142 82 -219 46z"/>
<path d="M2435 8147 c-139 -45 -180 -226 -73 -324 73 -67 199 -63 264 9 71 77
72 183 3 263 -42 48 -132 72 -194 52z"/>
<path d="M6053 8135 c-122 -61 -144 -222 -41 -310 115 -98 289 -34 312 115 5
38 -11 120 -25 120 -4 0 -11 9 -14 20 -9 29 -83 69 -137 74 -36 3 -58 -1 -95
-19z"/>
<path d="M6511 8124 c-32 -16 -54 -37 -70 -64 -74 -132 14 -275 165 -269 46 2
61 8 96 38 47 40 68 84 68 140 0 53 -12 81 -51 120 -59 59 -133 72 -208 35z"/>
<path d="M156 8125 c-48 -17 -92 -63 -106 -113 -14 -51 -13 -68 7 -110 25 -53
44 -71 98 -91 85 -32 165 1 205 85 65 133 -64 277 -204 229z"/>
<path d="M608 8123 c-74 -31 -108 -85 -104 -165 2 -43 9 -65 29 -91 54 -71
151 -88 225 -40 106 69 100 228 -12 285 -50 26 -94 29 -138 11z"/>
<path d="M1073 8126 c-136 -47 -160 -221 -40 -300 36 -23 50 -27 98 -24 67 5
111 33 139 88 68 133 -59 284 -197 236z"/>
<path d="M1555 8130 c-88 -21 -132 -67 -141 -146 -22 -193 245 -262 319 -83
48 116 -61 256 -178 229z"/>
<path d="M6996 8125 c-119 -41 -154 -187 -67 -274 53 -53 119 -67 181 -38 48
22 64 36 85 77 68 132 -59 283 -199 235z"/>
<path d="M7459 8126 c-123 -38 -162 -175 -78 -271 81 -92 235 -66 278 48 50
131 -70 263 -200 223z"/>
<path d="M7910 8128 c-38 -10 -109 -79 -111 -106 -6 -78 -4 -97 12 -130 26
-52 78 -85 148 -94 27 -3 54 6 93 32 88 58 104 174 35 248 -46 50 -112 68
-177 50z"/>
<path d="M5613 8102 c-42 -22 -61 -45 -76 -87 -26 -77 11 -159 85 -190 53 -22
122 -7 166 36 34 33 48 80 39 134 -15 95 -128 151 -214 107z"/>
<path d="M2884 8096 c-42 -19 -74 -66 -80 -118 -17 -149 179 -215 263 -89 42
63 22 155 -42 197 -35 23 -102 27 -141 10z"/>
<path d="M3382 8069 c-66 -14 -104 -82 -78 -143 18 -43 39 -58 90 -63 38 -5
47 -1 77 25 30 27 34 36 34 79 -1 35 -6 54 -21 68 -30 30 -65 42 -102 34z"/>
<path d="M3813 8060 c-44 -18 -72 -93 -50 -135 14 -27 46 -55 66 -56 72 -7
116 20 127 78 16 83 -63 145 -143 113z"/>
<path d="M4262 8049 c-52 -31 -58 -105 -14 -151 37 -40 93 -39 133 1 82 82
-20 211 -119 150z"/>
<path d="M4713 8051 c-72 -44 -55 -158 27 -182 89 -27 167 72 118 150 -34 53
-90 65 -145 32z"/>
<path d="M5153 8038 c-37 -39 -38 -107 -3 -142 70 -70 190 -15 177 81 -12 86
-115 123 -174 61z"/>
<path d="M2005 7739 c-88 -14 -140 -51 -180 -129 -41 -81 -25 -196 37 -259 28
-29 108 -78 116 -72 2 2 6 1 8 -2 3 -3 -7 -8 -22 -11 -127 -32 -193 -197 -127
-317 14 -27 40 -60 57 -73 74 -56 180 -60 258 -11 46 29 98 98 101 134 2 33
13 25 26 -20 13 -42 87 -133 101 -124 5 3 11 1 14 -3 3 -5 -12 -19 -34 -31
-21 -12 -51 -36 -66 -54 -32 -38 -65 -107 -58 -122 3 -5 -2 -1 -10 9 -9 11
-16 25 -16 31 0 17 -54 72 -90 90 -120 62 -279 -28 -285 -163 -3 -67 14 -111
62 -158 97 -96 258 -65 318 61 14 31 28 48 23 28 -6 -21 27 -85 61 -121 34
-36 102 -79 124 -80 21 -1 15 -11 -12 -20 -16 -6 -43 -24 -60 -40 -102 -97
-73 -264 54 -323 100 -46 218 -3 262 98 l19 41 18 -51 c12 -32 35 -67 66 -97
l47 -46 -38 -33 c-22 -18 -50 -53 -64 -79 -13 -26 -24 -39 -25 -29 0 9 -21 39
-47 66 -70 72 -155 90 -242 51 -81 -37 -125 -105 -125 -195 0 -75 29 -135 84
-173 46 -32 48 -38 16 -46 -31 -8 -109 -85 -125 -124 l-13 -31 -32 42 c-95
126 -282 115 -359 -21 -51 -91 -33 -198 45 -267 22 -19 46 -35 52 -35 6 -1 -6
-10 -27 -21 -63 -33 -115 -95 -135 -161 l-18 -59 -12 40 c-28 92 -136 149
-227 118 -158 -52 -176 -264 -28 -340 98 -51 225 6 257 114 l13 43 6 -40 c9
-56 33 -99 79 -144 l40 -38 -33 -30 c-39 -34 -75 -97 -85 -148 -7 -37 -16 -38
-21 -1 -6 37 -52 94 -91 110 -78 34 -146 27 -202 -20 -128 -107 -58 -314 109
-322 89 -4 158 46 184 134 13 43 16 46 17 20 2 -72 69 -168 145 -207 36 -19
38 -22 19 -28 -30 -12 -85 -70 -100 -107 -8 -18 -14 -56 -14 -85 1 -227 290
-300 406 -102 10 17 13 15 29 -19 22 -48 70 -95 118 -117 l38 -17 -38 -29
c-68 -51 -91 -94 -95 -179 -1 -38 32 -115 63 -145 105 -100 279 -68 339 63
l17 38 6 -29 c14 -69 129 -170 197 -173 20 0 17 -3 -17 -15 -66 -24 -120 -84
-130 -147 -16 -92 17 -169 89 -211 87 -50 183 -37 248 33 63 68 72 155 24 238
-23 40 -82 86 -110 86 -8 0 -14 7 -14 14 0 8 4 12 8 9 5 -3 31 5 58 18 49 23
97 69 117 113 12 28 24 29 32 4 13 -43 100 -111 141 -111 13 0 24 -4 24 -10 0
-5 -7 -10 -15 -10 -39 0 -102 -42 -134 -90 -29 -43 -35 -60 -37 -117 -3 -80
10 -111 71 -169 105 -101 258 -75 344 58 l17 27 18 -39 c9 -22 36 -55 58 -74
42 -36 130 -72 148 -61 5 3 10 1 10 -4 0 -6 -12 -11 -26 -11 -40 0 -100 -39
-131 -83 -24 -34 -28 -50 -28 -107 0 -105 49 -171 143 -195 48 -12 122 -3 150
19 75 59 101 110 96 190 -6 77 -67 154 -136 171 -39 10 -35 21 10 29 68 12
150 91 170 167 l8 34 17 -35 c9 -19 28 -47 40 -62 27 -31 100 -67 136 -68 34
0 23 -7 -23 -14 -121 -19 -199 -111 -200 -236 0 -99 47 -174 139 -219 l39 -19
-34 -15 c-49 -21 -89 -62 -113 -116 -26 -59 -28 -104 -5 -165 67 -186 324
-201 412 -24 34 69 32 159 -7 216 -29 45 -79 86 -117 97 l-25 8 25 10 c14 6
28 11 32 11 12 2 74 61 93 89 l18 28 19 -33 c26 -43 64 -76 112 -98 l39 -18
-30 -15 c-99 -51 -145 -173 -105 -278 22 -57 89 -114 146 -125 11 -2 31 -6 44
-8 34 -7 116 21 150 51 35 32 72 90 72 115 0 25 64 42 165 42 107 0 142 -5
216 -33 81 -31 164 -91 232 -168 18 -20 17 -21 -27 -47 -25 -15 -56 -41 -70
-59 -25 -34 -53 -118 -50 -152 7 -82 57 -161 125 -196 48 -24 132 -32 179 -17
48 15 120 75 132 110 l10 29 26 -38 c14 -21 34 -46 44 -55 19 -16 18 -18 -24
-56 -24 -23 -55 -63 -69 -90 l-26 -50 -37 38 c-65 67 -169 73 -240 14 -43 -37
-58 -67 -61 -129 -5 -76 40 -148 110 -176 65 -26 166 1 201 53 24 35 30 35 42
1 5 -16 26 -50 46 -76 39 -51 39 -52 -3 -96 -17 -18 -51 -97 -51 -119 -1 -9
-10 1 -21 23 -35 72 -115 108 -194 86 -175 -47 -157 -303 23 -326 67 -8 170
47 172 91 0 6 6 16 12 22 10 8 13 5 14 -12 4 -61 63 -143 132 -183 23 -14 42
-27 42 -30 0 -2 -13 -15 -29 -29 -63 -53 -86 -167 -48 -240 48 -91 153 -135
248 -102 145 49 184 242 70 344 l-31 28 43 27 c42 26 74 58 109 109 l17 25 16
-22 c21 -30 91 -69 138 -77 52 -10 134 16 175 54 47 46 70 96 70 160 0 157
-156 260 -300 198 -27 -11 -57 -31 -67 -44 -10 -13 -23 -24 -28 -26 -6 -2 -27
19 -47 46 l-38 48 25 27 c13 14 32 38 41 53 l17 27 27 -30 c34 -38 120 -69
176 -62 120 14 200 105 198 227 -3 186 -235 284 -367 156 l-33 -32 -23 34
c-12 18 -38 47 -57 64 l-35 32 32 40 c81 100 72 243 -21 334 -90 88 -237 91
-333 6 -25 -23 -52 -55 -59 -72 l-13 -31 -12 24 c-22 40 -64 81 -99 98 l-34
16 46 28 c49 31 106 101 106 130 0 10 4 20 8 23 13 8 6 107 -10 147 -23 52
-70 101 -125 129 -37 19 -43 25 -28 28 54 11 127 91 142 157 8 39 9 96 1 101
-4 3 -8 13 -8 23 0 36 -60 102 -116 128 -30 13 -54 27 -54 30 0 3 6 3 14 0 25
-10 157 90 158 120 0 4 4 17 8 28 4 11 9 27 12 35 3 9 10 -3 17 -28 20 -73
108 -142 189 -148 108 -8 209 65 232 169 21 94 -16 191 -92 237 l-30 18 33 18
c46 23 105 88 119 130 6 19 15 34 19 34 3 0 15 -15 25 -32 26 -48 68 -77 128
-90 96 -19 182 23 219 107 59 134 -19 266 -165 281 -47 5 -62 2 -104 -21 -32
-17 -59 -42 -78 -72 -16 -26 -30 -39 -32 -32 -11 41 -39 86 -72 119 l-38 37
32 25 c18 15 46 51 62 82 l29 55 14 -27 c57 -113 222 -138 313 -47 91 91 75
243 -34 311 -45 29 -112 37 -167 20 -34 -10 -100 -66 -118 -100 -9 -16 -13
-13 -32 25 -28 54 -45 74 -94 110 l-38 27 31 22 c69 49 108 178 78 255 -35 89
-111 150 -198 159 -104 10 -213 -62 -244 -161 -8 -26 -15 -42 -15 -35 -1 6 0
13 0 15 1 1 -7 20 -18 42 -35 67 -115 125 -174 125 -27 0 -20 9 12 15 69 13
114 45 156 110 22 33 27 52 27 111 1 62 -3 77 -29 119 -44 72 -107 108 -187
108 -100 1 -179 -49 -218 -138 l-18 -40 -17 43 c-48 117 -198 172 -313 113
-130 -66 -163 -247 -65 -356 52 -58 158 -88 229 -65 75 25 153 99 157 151 2
26 14 24 22 -3 21 -71 108 -146 174 -151 37 -2 42 -17 6 -17 -14 0 -42 -9 -63
-19 -163 -84 -162 -321 2 -397 131 -61 265 1 312 146 9 27 12 30 13 12 2 -48
83 -162 115 -162 6 0 -7 -11 -29 -25 -147 -89 -168 -310 -41 -426 l37 -33 -39
-40 c-122 -129 -99 -318 51 -413 l41 -26 -24 -16 c-40 -26 -79 -73 -91 -110
l-12 -35 -23 49 c-29 60 -48 81 -100 111 -72 42 -187 35 -253 -17 -57 -45 -95
-125 -93 -197 2 -40 35 -118 65 -150 27 -30 107 -70 127 -66 8 2 -8 -7 -37
-21 -59 -28 -82 -48 -117 -103 -30 -48 -47 -52 -206 -47 -191 5 -368 70 -485
178 -20 19 -74 20 -120 2 -35 -14 -86 -56 -115 -97 l-29 -39 -25 37 c-34 51
-133 113 -156 99 -5 -3 -11 -2 -14 3 -3 4 15 13 38 20 51 13 109 66 131 118
35 85 1 196 -76 246 -112 73 -246 33 -306 -91 l-17 -35 -9 33 c-25 100 -118
171 -227 176 -98 4 -178 -38 -228 -121 -27 -44 -42 -55 -42 -31 0 39 -113 118
-168 119 -32 1 -21 8 29 19 59 14 117 63 145 123 69 148 -28 311 -189 321 -90
5 -163 -34 -214 -115 -13 -20 -23 -28 -23 -19 0 26 -57 97 -99 123 -21 14 -56
28 -77 32 l-39 7 42 14 c75 25 131 99 138 182 10 132 -131 238 -263 197 -40
-12 -108 -73 -121 -109 -8 -20 -11 -18 -29 23 -27 61 -67 103 -127 134 -28 14
-42 26 -33 26 10 0 34 15 54 32 145 128 61 367 -129 370 -81 1 -157 -42 -191
-108 l-15 -28 -15 34 c-8 19 -33 54 -57 78 l-42 43 37 37 c21 19 47 54 58 76
18 36 21 38 30 20 16 -30 60 -74 88 -89 15 -7 46 -16 70 -20 25 -4 47 -8 48
-10 8 -8 99 38 125 63 100 94 80 273 -36 331 -33 16 -36 20 -19 25 69 22 146
112 168 194 12 47 12 47 19 17 10 -38 46 -87 86 -115 43 -31 116 -34 171 -7
48 23 60 36 86 87 46 90 8 197 -88 244 -67 33 -181 5 -218 -53 -9 -14 -20 -29
-25 -32 -4 -3 -9 -22 -10 -42 -2 -20 -7 -40 -11 -44 -5 -4 -6 -3 -3 3 8 15
-18 105 -43 147 -25 43 -118 112 -134 101 -21 -14 16 17 45 39 20 14 46 44 57
67 l20 40 15 -38 c8 -21 31 -54 51 -74 124 -124 326 -95 406 59 21 40 40 49
40 18 0 -21 65 -83 107 -100 76 -32 156 -20 219 31 40 32 71 81 79 126 6 29
15 35 15 10 0 -32 0 -34 20 -73 25 -48 77 -92 134 -114 86 -33 196 -2 253 72
91 116 62 271 -66 350 -33 20 -33 21 -11 28 37 12 100 75 121 123 l20 44 21
-41 c36 -74 118 -120 204 -116 115 6 204 99 204 213 0 152 -144 254 -288 205
-53 -19 -121 -84 -129 -125 l-6 -30 -23 49 c-31 66 -82 112 -145 133 -66 23
-135 19 -189 -9 -49 -26 -68 -43 -103 -96 -15 -22 -27 -35 -27 -29 0 6 -14 29
-30 50 -68 84 -183 115 -279 73 -48 -20 -121 -87 -121 -110 0 -5 -5 -7 -10 -4
-6 4 -8 10 -5 14 8 15 -93 109 -131 121 l-36 12 34 20 c100 60 136 168 90 271
-25 54 -57 84 -118 106 -58 21 -111 18 -164 -9 -38 -20 -90 -76 -90 -98 0 -7
-7 -12 -16 -12 -8 0 -13 4 -10 9 11 18 -55 103 -104 133 l-50 31 29 18 c65 39
114 142 104 217 -21 155 -186 244 -321 173 -62 -32 -102 -80 -117 -139 l-12
-45 -17 53 c-21 65 -74 123 -127 140 l-41 14 48 23 c59 29 90 57 115 106 55
107 12 254 -91 307 -53 27 -101 37 -145 29z m835 -1320 c38 -18 38 -25 -3 -43
-50 -20 -111 -86 -132 -139 l-18 -48 -28 50 c-21 36 -40 55 -77 73 l-49 24 46
17 c25 9 60 29 77 44 30 27 90 113 79 113 -4 0 -3 5 0 11 4 6 22 -11 41 -39
18 -28 47 -56 64 -63z m851 -461 c9 -9 33 -26 54 -37 32 -17 34 -20 16 -26
-41 -13 -132 -118 -131 -150 1 -27 -2 -35 -11 -35 -6 0 -9 6 -6 13 9 27 -43
108 -90 137 -26 17 -53 30 -60 30 -7 0 -13 5 -13 10 0 6 9 10 19 10 11 0 23 5
26 10 4 6 11 8 16 5 5 -4 9 -1 9 4 0 6 5 11 11 11 14 0 77 68 85 92 5 18 9 15
32 -19 14 -21 33 -46 43 -55z m-491 58 c0 -20 72 -82 114 -97 43 -15 50 -34
10 -28 -9 1 -78 -54 -94 -75 -8 -11 -19 -31 -25 -43 -9 -22 -12 -20 -38 29
-16 29 -43 64 -61 78 l-33 24 54 53 c29 29 53 57 53 63 0 5 5 10 10 10 6 0 10
-6 10 -14z m-953 -890 c0 -22 55 -91 92 -117 35 -23 40 -25 61 -28 15 -2 12
-21 -2 -21 -18 -1 -74 -53 -91 -86 l-15 -28 -20 40 c-23 43 -70 92 -120 122
l-32 19 40 26 c21 15 46 40 55 57 16 31 32 39 32 16z m121 -983 l43 -32 -33
-14 c-42 -18 -102 -77 -128 -125 -10 -20 -19 -32 -20 -25 0 17 -50 73 -83 93
l-28 17 44 27 c49 28 82 63 111 118 l19 36 16 -31 c9 -17 35 -46 59 -64z m461
-448 c21 -14 48 -27 60 -28 32 -2 25 -14 -11 -22 -75 -17 -177 -122 -178 -183
0 -9 -9 1 -19 23 -17 39 -81 105 -101 105 -22 0 -8 17 24 28 43 16 111 89 132
142 l16 40 20 -39 c10 -21 36 -51 57 -66z m2690 -1358 c13 -15 41 -37 63 -48
l40 -20 -50 -25 c-46 -23 -97 -74 -113 -114 -5 -11 -10 -8 -20 15 -15 31 -48
67 -87 93 l-23 15 28 17 c44 27 81 69 95 107 l13 35 15 -23 c8 -13 26 -36 39
-52z m-464 14 c16 -9 40 -35 52 -56 l22 -39 -27 -16 c-43 -26 -85 -75 -102
-121 l-17 -41 -13 32 c-20 48 -57 88 -102 111 -35 18 -39 23 -33 47 3 15 20
41 36 58 51 53 120 62 184 25z"/>
<path d="M6057 7736 c-116 -42 -179 -161 -151 -289 11 -55 55 -107 123 -150
52 -32 150 -32 212 -1 152 76 180 281 53 392 -67 60 -154 77 -237 48z"/>
<path d="M2426 7708 c-48 -13 -118 -82 -133 -132 -6 -20 -10 -59 -8 -86 13
-169 220 -249 343 -132 48 46 65 83 67 147 5 139 -129 240 -269 203z"/>
<path d="M5626 7700 c-88 -28 -140 -100 -140 -197 -1 -53 4 -68 29 -104 97
-138 299 -112 352 45 18 53 18 67 2 127 -10 40 -68 105 -108 121 -37 15 -101
19 -135 8z"/>
<path d="M145 7665 c-64 -28 -112 -110 -102 -174 8 -49 45 -105 85 -127 45
-26 124 -26 168 0 91 54 110 188 36 261 -47 48 -128 65 -187 40z"/>
<path d="M605 7666 c-123 -55 -142 -212 -36 -291 105 -77 255 -8 265 123 3 41
-15 96 -42 125 -42 46 -133 67 -187 43z"/>
<path d="M1055 7663 c-89 -46 -123 -136 -85 -221 28 -62 79 -95 148 -96 129
-2 205 111 156 233 -31 78 -145 122 -219 84z"/>
<path d="M1525 7669 c-62 -17 -115 -92 -115 -161 0 -47 37 -114 75 -138 84
-52 197 -23 241 62 56 108 -16 236 -136 243 -19 1 -48 -2 -65 -6z"/>
<path d="M6525 7663 c-69 -36 -105 -96 -99 -163 15 -172 239 -216 318 -62 18
36 15 111 -8 164 -25 56 -151 93 -211 61z"/>
<path d="M6973 7659 c-111 -55 -122 -218 -20 -287 34 -23 120 -38 140 -25 7 4
15 8 19 8 17 0 69 49 84 77 42 82 4 197 -76 231 -44 18 -106 16 -147 -4z"/>
<path d="M7455 7673 c-41 -8 -99 -74 -118 -134 -8 -25 11 -99 35 -132 70 -99
245 -75 288 39 42 109 -30 222 -144 229 -23 1 -50 1 -61 -2z"/>
<path d="M7906 7670 c-89 -28 -141 -155 -97 -237 13 -25 77 -82 94 -84 114
-14 165 9 208 93 23 45 24 83 4 130 -13 32 -75 97 -93 99 -4 0 -25 2 -47 4
-22 2 -53 0 -69 -5z"/>
<path d="M5172 7609 c-47 -28 -66 -62 -59 -110 11 -80 75 -118 161 -95 48 13
80 106 54 155 -31 58 -105 82 -156 50z"/>
<path d="M2890 7599 c-91 -56 -53 -191 56 -193 40 -1 49 3 75 32 82 91 -26
224 -131 161z"/>
<path d="M3352 7603 c-69 -33 -76 -141 -12 -181 110 -69 226 72 134 163 -14
14 -28 25 -32 26 -41 6 -66 4 -90 -8z"/>
<path d="M3822 7605 c-74 -32 -90 -115 -32 -167 40 -37 97 -38 137 -4 24 21
28 32 28 74 0 43 -4 54 -29 75 -36 31 -66 37 -104 22z"/>
<path d="M4723 7599 c-72 -36 -77 -130 -8 -175 75 -49 178 24 154 110 -19 67
-84 96 -146 65z"/>
<path d="M4273 7600 c-52 -21 -71 -101 -36 -147 55 -74 173 -37 173 55 -1 73
-69 119 -137 92z"/>
<path d="M5581 7254 c-87 -44 -132 -126 -125 -225 7 -87 63 -158 152 -190 168
-61 335 93 292 270 -33 137 -191 209 -319 145z"/>
<path d="M5160 7250 c-91 -31 -141 -101 -143 -199 -2 -141 130 -240 269 -201
145 41 199 230 95 339 -65 69 -138 89 -221 61z"/>
<path d="M6060 7225 c-39 -17 -87 -67 -102 -105 -31 -79 4 -180 79 -229 36
-24 52 -28 103 -27 49 2 68 8 102 32 97 68 111 201 30 288 -15 15 -38 33 -52
38 -43 18 -122 19 -160 3z"/>
<path d="M133 7202 c-158 -83 -88 -332 90 -316 107 10 179 113 148 214 -14 46
-58 96 -99 111 -34 13 -104 9 -139 -9z"/>
<path d="M610 7213 c-35 -13 -72 -47 -90 -83 -88 -172 135 -330 268 -191 101
106 23 283 -124 280 -21 0 -46 -3 -54 -6z"/>
<path d="M1055 7208 c-68 -22 -117 -132 -91 -204 28 -79 79 -115 163 -116 45
-1 60 4 91 29 53 42 74 87 69 150 -8 114 -115 179 -232 141z"/>
<path d="M1500 7198 c-19 -10 -46 -34 -59 -53 -25 -37 -39 -112 -26 -142 5
-10 8 -21 7 -24 -1 -4 14 -23 34 -43 84 -86 218 -66 274 42 42 83 0 190 -90
226 -49 19 -92 18 -140 -6z"/>
<path d="M6525 7206 c-152 -68 -121 -295 43 -319 38 -6 99 9 119 29 8 8 18 14
23 14 15 0 50 86 50 123 0 48 -13 80 -48 116 -48 51 -123 65 -187 37z"/>
<path d="M6959 7192 c-101 -65 -105 -196 -7 -275 30 -24 46 -30 90 -30 101 -1
172 67 172 167 0 92 -61 156 -157 163 -44 4 -59 0 -98 -25z"/>
<path d="M7440 7209 c-102 -43 -136 -184 -64 -265 47 -52 128 -73 186 -49 125
51 148 224 40 295 -41 27 -122 36 -162 19z"/>
<path d="M7896 7208 c-39 -14 -80 -60 -96 -108 -34 -102 48 -213 159 -213 57
0 102 22 137 68 100 132 -42 310 -200 253z"/>
<path d="M4723 7197 c-92 -28 -133 -149 -79 -232 79 -120 276 -60 276 84 0
104 -98 178 -197 148z"/>
<path d="M2915 7169 c-53 -15 -95 -67 -95 -121 0 -35 32 -88 63 -104 86 -45
187 15 187 110 0 35 -39 93 -70 105 -46 17 -55 18 -85 10z"/>
<path d="M3346 7141 c-28 -17 -56 -67 -52 -91 8 -47 39 -96 65 -101 89 -20
163 43 146 123 -6 28 -44 75 -64 79 -31 7 -75 2 -95 -10z"/>
<path d="M4267 7143 c-79 -40 -68 -167 16 -188 52 -13 92 2 115 44 51 91 -39
190 -131 144z"/>
<path d="M3815 7139 c-99 -57 -51 -205 60 -185 77 15 105 117 46 170 -24 22
-80 30 -106 15z"/>
<path d="M4705 6839 c-69 -16 -165 -100 -165 -143 0 -8 -5 -18 -10 -21 -6 -4
-8 -10 -6 -14 3 -4 1 -13 -5 -21 -7 -13 -9 -12 -9 1 0 36 -41 95 -88 128 -47
33 -145 38 -197 10 -66 -36 -104 -89 -112 -159 -14 -123 83 -229 207 -225 86
2 172 69 186 142 3 18 11 33 16 33 5 0 8 -8 6 -17 -6 -25 24 -83 64 -122 127
-127 344 -79 404 90 l18 50 11 -33 c39 -126 178 -188 292 -130 169 87 153 323
-27 390 -34 13 -123 6 -158 -12 -44 -23 -91 -77 -104 -118 l-11 -38 -23 56
c-12 31 -33 68 -46 81 -59 63 -156 92 -243 72z"/>
<path d="M195 6764 c-5 -1 -22 -5 -38 -8 -66 -15 -125 -113 -112 -188 23 -129
187 -184 281 -93 72 69 72 168 -1 240 -22 23 -48 42 -56 42 -8 0 -25 3 -39 5
-14 3 -29 4 -35 2z"/>
<path d="M603 6750 c-88 -40 -126 -135 -89 -224 19 -46 76 -87 130 -93 151
-17 245 144 156 265 -43 58 -131 82 -197 52z"/>
<path d="M1090 6762 c-44 -13 -83 -38 -101 -63 -61 -86 -34 -205 58 -253 89
-46 221 14 239 109 14 74 -24 169 -73 181 -13 4 -23 9 -23 13 0 4 -6 8 -12 8
-7 1 -26 3 -43 5 -16 3 -37 3 -45 0z"/>
<path d="M1544 6760 c-78 -18 -125 -74 -132 -158 -2 -33 3 -54 23 -88 65 -111
223 -111 290 0 25 41 27 113 4 157 -18 37 -70 81 -98 86 -8 1 -24 4 -35 6 -12
3 -35 1 -52 -3z"/>
<path d="M5625 6754 c-48 -16 -74 -40 -95 -88 -36 -79 -7 -172 68 -214 132
-74 288 52 242 194 -29 91 -125 139 -215 108z"/>
<path d="M6105 6762 c-39 -5 -104 -58 -121 -99 -71 -168 134 -310 272 -186 39
35 59 115 42 166 -29 86 -101 131 -193 119z"/>
<path d="M6549 6758 c-123 -30 -165 -190 -74 -282 11 -11 26 -21 34 -23 7 -1
18 -6 24 -12 18 -18 95 -13 137 9 176 90 73 355 -121 308z"/>
<path d="M7008 6760 c-76 -22 -117 -73 -124 -155 -11 -127 122 -213 240 -155
79 38 113 135 76 217 -31 70 -120 113 -192 93z"/>
<path d="M7460 6756 c-48 -15 -74 -35 -98 -76 -39 -67 -31 -143 20 -197 83
-89 235 -61 278 51 49 131 -70 262 -200 222z"/>
<path d="M7914 6755 c-138 -41 -165 -220 -44 -298 100 -66 237 -3 257 117 11
69 -38 155 -101 176 -54 17 -69 18 -112 5z"/>
<path d="M3785 6733 c-101 -54 -107 -203 -12 -266 53 -35 148 -27 191 15 51
51 63 132 29 191 -42 71 -137 98 -208 60z"/>
<path d="M3364 6729 c-86 -24 -128 -138 -76 -208 56 -78 182 -77 231 1 37 58
18 146 -37 183 -44 29 -76 35 -118 24z"/>
<path d="M163 6303 c-13 -2 -23 -9 -23 -14 0 -6 -4 -8 -8 -5 -10 6 -54 -38
-73 -74 -45 -86 9 -203 107 -230 133 -37 243 82 203 220 -2 8 -12 23 -21 34
-10 11 -18 23 -18 27 0 4 -17 15 -37 24 -39 19 -92 26 -130 18z"/>
<path d="M585 6284 c-56 -29 -96 -107 -84 -167 4 -23 8 -45 9 -48 1 -19 77
-80 110 -90 104 -31 211 48 213 159 1 76 -42 137 -115 161 -45 15 -85 11 -133
-15z"/>
<path d="M1055 6291 c-22 -10 -48 -27 -57 -37 -58 -66 -54 -179 9 -236 104
-94 266 -33 280 105 9 84 -39 155 -117 177 -49 14 -69 12 -115 -9z"/>
<path d="M1515 6295 c-134 -58 -139 -242 -9 -305 139 -68 287 74 225 215 -36
83 -137 125 -216 90z"/>
<path d="M1957 6286 c-120 -59 -118 -234 4 -296 158 -81 317 122 201 257 -53
62 -130 77 -205 39z"/>
<path d="M4712 6296 c-70 -24 -111 -87 -108 -165 7 -134 161 -207 264 -124 49
40 67 77 66 141 -2 112 -113 186 -222 148z"/>
<path d="M5161 6293 c-130 -45 -136 -239 -11 -303 49 -25 93 -25 146 -1 131
59 125 250 -9 306 -40 17 -73 16 -126 -2z"/>
<path d="M5605 6288 c-22 -12 -42 -25 -43 -30 -2 -4 -10 -15 -19 -23 -34 -35
-38 -122 -8 -178 43 -81 161 -109 239 -57 66 45 92 130 61 202 -16 39 -76 97
-103 100 -69 6 -92 4 -127 -14z"/>
<path d="M6077 6296 c-107 -39 -142 -192 -63 -271 81 -81 220 -63 271 35 31
60 21 143 -23 194 -41 46 -123 64 -185 42z"/>
<path d="M6545 6302 c-31 -7 -83 -50 -101 -84 -72 -140 75 -296 217 -229 87
41 121 139 79 225 -34 71 -113 106 -195 88z"/>
<path d="M6976 6289 c-46 -22 -72 -50 -87 -96 -12 -36 -5 -117 12 -137 5 -6
17 -20 27 -32 49 -60 156 -69 220 -17 49 39 66 77 65 140 0 41 -6 60 -27 88
-52 67 -137 90 -210 54z"/>
<path d="M7445 6295 c-158 -57 -133 -294 33 -321 154 -24 256 165 150 278 -48
51 -116 67 -183 43z"/>
<path d="M7910 6300 c-21 -5 -49 -24 -72 -49 -132 -147 43 -352 215 -251 38
23 77 92 77 137 0 68 -52 139 -119 162 -38 12 -51 13 -101 1z"/>
<path d="M4260 5888 c-175 -48 -211 -281 -60 -382 38 -26 54 -30 110 -31 50 0
73 5 101 22 58 36 85 70 100 121 17 61 14 113 -11 163 -21 40 -88 96 -124 104
-57 11 -84 12 -116 3z"/>
<path d="M133 5829 c-111 -55 -120 -214 -16 -283 115 -76 263 4 263 143 0 40
-40 110 -76 135 -45 31 -116 33 -171 5z"/>
<path d="M592 5833 c-83 -40 -116 -147 -72 -229 26 -47 77 -81 131 -87 124
-14 222 122 168 233 -43 89 -142 125 -227 83z"/>
<path d="M1045 5830 c-119 -59 -118 -239 1 -295 118 -56 245 24 244 153 -2
121 -135 198 -245 142z"/>
<path d="M1520 5842 c-116 -53 -147 -198 -59 -279 85 -78 214 -55 266 47 42
83 10 180 -73 220 -40 20 -104 25 -134 12z"/>
<path d="M1954 5831 c-88 -54 -113 -157 -59 -239 70 -105 224 -99 286 12 40
72 21 161 -47 212 -47 36 -134 43 -180 15z"/>
<path d="M4704 5840 c-11 -4 -34 -22 -51 -39 -99 -99 -44 -262 95 -284 142
-23 246 160 153 270 -44 53 -136 78 -197 53z"/>
<path d="M5129 5818 c-50 -36 -65 -66 -73 -143 -3 -28 31 -93 62 -120 123
-107 313 17 267 173 -34 113 -162 158 -256 90z"/>
<path d="M5595 5826 c-144 -88 -85 -302 85 -312 31 -1 88 21 113 44 67 60 71
179 8 242 -54 54 -141 66 -206 26z"/>
<path d="M6062 5833 c-67 -33 -107 -122 -88 -198 10 -38 73 -103 109 -111 53
-12 55 -12 96 -2 100 25 153 132 111 223 -26 56 -42 73 -83 90 -47 19 -103 19
-145 -2z"/>
<path d="M6525 5835 c-61 -28 -94 -74 -99 -138 -12 -131 123 -221 242 -161 98
49 123 178 49 256 -55 58 -127 74 -192 43z"/>
<path d="M6990 5843 c-65 -25 -111 -96 -106 -159 2 -22 4 -46 5 -55 2 -26 62
-87 101 -102 113 -45 235 48 224 172 -4 54 -37 103 -84 129 -34 19 -111 27
-140 15z"/>
<path d="M7440 5839 c-76 -32 -121 -128 -96 -204 23 -70 82 -115 155 -120 67
-4 158 63 168 125 13 77 -7 134 -62 175 -41 32 -120 43 -165 24z"/>
<path d="M7903 5843 c-22 -4 -104 -78 -101 -91 1 -4 -2 -24 -7 -45 -14 -72 38
-159 111 -184 140 -48 275 109 202 238 -39 71 -113 100 -205 82z"/>
<path d="M4700 5444 c-50 -15 -110 -65 -136 -116 -26 -49 -24 -152 4 -205 43
-82 147 -135 233 -119 19 3 36 5 39 4 10 -5 100 64 111 85 7 12 15 24 18 27
14 11 29 83 26 124 -9 145 -152 242 -295 200z"/>
<path d="M5190 5430 c-167 -30 -226 -230 -105 -356 40 -42 147 -62 208 -40 83
29 137 111 133 203 -5 125 -114 214 -236 193z"/>
<path d="M4265 5421 c-16 -4 -40 -13 -51 -19 -22 -12 -83 -77 -85 -90 0 -4 -3
-16 -6 -27 -12 -46 -10 -92 5 -130 54 -137 235 -169 331 -59 40 45 51 73 51
131 0 87 -55 163 -139 191 -37 13 -61 14 -106 3z"/>
<path d="M168 5390 c-153 -45 -169 -255 -24 -315 51 -21 97 -21 141 2 47 25
68 48 83 93 22 62 9 121 -37 174 -35 39 -111 61 -163 46z"/>
<path d="M629 5390 c-62 -18 -89 -41 -114 -99 -46 -103 22 -218 135 -229 172
-16 252 204 110 303 -39 27 -90 37 -131 25z"/>
<path d="M1075 5387 c-90 -30 -136 -114 -113 -206 45 -173 305 -154 325 23 7
58 -1 87 -33 126 -46 54 -118 77 -179 57z"/>
<path d="M1510 5379 c-153 -68 -122 -293 43 -315 88 -12 165 39 186 123 35
135 -102 249 -229 192z"/>
<path d="M5613 5380 c-123 -55 -135 -219 -21 -293 75 -48 177 -26 228 49 36
54 35 137 -3 187 -51 68 -131 90 -204 57z"/>
<path d="M6084 5386 c-42 -15 -78 -46 -98 -84 -9 -18 -14 -32 -10 -32 4 0 2
-6 -3 -12 -25 -33 14 -129 66 -165 91 -62 206 -30 251 69 57 129 -74 271 -206
224z"/>
<path d="M6537 5385 c-46 -16 -61 -28 -87 -70 -52 -83 -19 -194 69 -237 46
-22 55 -23 103 -15 40 8 70 26 98 60 38 47 49 93 33 147 -29 97 -123 147 -216
115z"/>
<path d="M6992 5387 c-75 -28 -119 -102 -108 -184 11 -79 66 -131 148 -140
149 -18 240 165 139 281 -38 43 -122 63 -179 43z"/>
<path d="M7430 5377 c-47 -26 -68 -50 -84 -95 -25 -70 -3 -141 61 -189 29 -22
48 -28 94 -30 49 -1 64 3 97 27 129 93 73 296 -85 304 -33 2 -59 -4 -83 -17z"/>
<path d="M7894 5380 c-95 -43 -130 -154 -76 -242 20 -32 102 -89 102 -71 0 4
5 2 11 -4 8 -8 20 -8 34 -3 13 5 25 6 28 3 11 -10 83 39 106 73 27 39 35 112
18 154 -37 87 -139 129 -223 90z"/>
<path d="M3815 5368 c-102 -28 -139 -166 -65 -240 63 -62 166 -59 219 8 56 71
41 168 -32 213 -40 25 -80 31 -122 19z"/>
<path d="M3367 5347 c-69 -17 -108 -99 -81 -167 20 -49 57 -73 113 -74 122 -2
174 152 75 221 -39 27 -62 31 -107 20z"/>
<path d="M6082 4942 c-156 -52 -172 -269 -26 -338 81 -38 184 -11 233 62 34
49 40 135 13 184 -45 81 -138 120 -220 92z"/>
<path d="M135 4921 c-59 -31 -90 -83 -90 -152 0 -46 5 -63 28 -93 68 -89 189
-95 265 -14 25 28 34 54 37 113 7 116 -132 201 -240 146z"/>
<path d="M588 4920 c-48 -26 -78 -70 -87 -128 -15 -102 67 -192 171 -186 158
7 219 203 94 299 -48 36 -127 43 -178 15z"/>
<path d="M1075 4931 c-71 -24 -114 -75 -119 -144 -9 -106 74 -189 181 -181
159 12 208 229 71 307 -42 24 -94 31 -133 18z"/>
<path d="M4688 4917 c-69 -40 -100 -116 -79 -192 19 -71 68 -112 144 -121 144
-18 237 154 146 270 -47 60 -147 80 -211 43z"/>
<path d="M6536 4927 c-110 -37 -146 -176 -69 -267 36 -44 71 -58 129 -56 103
5 169 76 160 174 -9 115 -113 185 -220 149z"/>
<path d="M6973 4915 c-109 -55 -124 -192 -30 -277 16 -15 33 -25 38 -23 4 3
10 2 13 -3 2 -4 23 -9 46 -10 141 -9 227 160 139 272 -49 63 -130 79 -206 41z"/>
<path d="M7431 4918 c-154 -76 -109 -306 61 -314 108 -5 182 65 177 168 -6
128 -127 201 -238 146z"/>
<path d="M7905 4925 c-45 -16 -104 -77 -106 -109 -1 -12 -3 -32 -5 -46 -4 -40
14 -84 49 -117 45 -42 64 -50 123 -49 151 4 219 187 106 288 -29 25 -82 48
-111 48 -9 -1 -34 -7 -56 -15z"/>
<path d="M2905 4875 c-42 -18 -63 -44 -70 -90 -5 -32 -2 -47 17 -75 45 -66
128 -70 181 -8 75 89 -21 219 -128 173z"/>
<path d="M3373 4872 c-12 -2 -34 -17 -49 -35 -66 -78 19 -202 112 -162 123 52
70 220 -63 197z"/>
<path d="M3835 4871 c-88 -26 -110 -140 -35 -184 71 -43 160 2 160 80 0 71
-62 123 -125 104z"/>
<path d="M4254 4861 c-56 -34 -63 -117 -14 -166 82 -82 216 8 173 116 -25 64
-98 87 -159 50z"/>
<path d="M150 4468 c0 -4 -6 -8 -13 -8 -24 0 -74 -59 -87 -103 -44 -159 143
-277 270 -170 100 83 65 249 -59 283 -44 12 -111 11 -111 -2z"/>
<path d="M588 4460 c-140 -74 -102 -293 55 -313 110 -14 207 80 190 185 -18
119 -141 182 -245 128z"/>
<path d="M1054 4466 c-34 -15 -85 -73 -91 -103 -19 -100 16 -173 97 -206 106
-43 230 38 230 151 0 124 -124 206 -236 158z"/>
<path d="M6521 4463 c-138 -71 -122 -271 24 -312 71 -19 133 3 181 66 80 104
6 255 -128 261 -25 1 -57 -5 -77 -15z"/>
<path d="M6965 4458 c-53 -31 -86 -89 -84 -148 4 -98 70 -163 164 -163 64 0
108 23 141 73 48 73 29 181 -40 228 -51 35 -130 39 -181 10z"/>
<path d="M7435 4465 c-40 -22 -64 -45 -81 -77 -52 -101 17 -229 130 -241 83
-9 149 33 176 114 20 58 13 102 -22 152 -41 57 -144 83 -203 52z"/>
<path d="M7877 4457 c-44 -22 -74 -68 -83 -125 -19 -122 110 -222 226 -175 47
19 69 41 91 88 24 53 24 89 -3 142 -43 86 -143 116 -231 70z"/>
<path d="M5197 4449 c-42 -7 -91 -48 -105 -88 -31 -90 38 -191 131 -191 93 0
163 98 134 185 -22 68 -88 107 -160 94z"/>
<path d="M2913 4423 c-63 -13 -100 -101 -67 -162 72 -135 260 -31 200 109 -17
37 -83 64 -133 53z"/>
<path d="M3332 4395 c-36 -31 -48 -73 -32 -119 29 -89 156 -96 197 -12 50 105
-77 205 -165 131z"/>
<path d="M3815 4408 c-37 -20 -55 -47 -60 -88 -5 -38 -2 -45 29 -76 77 -77
197 -11 170 93 -15 59 -90 97 -139 71z"/>
<path d="M4274 4410 c-35 -14 -64 -59 -64 -101 0 -29 7 -45 31 -68 78 -78 204
4 168 109 -17 49 -85 79 -135 60z"/>
<path d="M4723 4404 c-45 -22 -68 -74 -53 -119 23 -70 101 -97 160 -55 100 71
4 228 -107 174z"/>
<path d="M165 4017 c-79 -26 -126 -94 -120 -174 10 -120 135 -189 244 -134 31
16 72 59 77 81 0 3 4 13 8 22 5 10 6 39 2 64 -12 103 -116 172 -211 141z"/>
<path d="M592 4004 c-110 -55 -124 -206 -26 -281 60 -46 167 -40 216 10 135
141 -17 357 -190 271z"/>
<path d="M1081 4018 c-134 -36 -169 -202 -63 -293 32 -27 43 -30 102 -30 57 0
71 4 103 28 66 50 84 135 47 212 -17 35 -64 75 -95 81 -50 10 -64 10 -94 2z"/>
<path d="M1514 4010 c-160 -72 -127 -301 46 -318 154 -15 245 166 139 277 -51
54 -122 70 -185 41z"/>
<path d="M5638 4018 c-127 -33 -164 -207 -63 -291 83 -69 220 -36 261 63 55
131 -60 263 -198 228z"/>
<path d="M6996 4015 c-77 -27 -119 -91 -112 -173 7 -85 63 -142 148 -150 173
-17 254 208 110 303 -46 30 -96 37 -146 20z"/>
<path d="M7471 4023 c-54 -10 -108 -60 -128 -118 -21 -63 8 -147 64 -185 29
-20 49 -25 98 -25 52 0 67 4 99 29 86 66 90 185 9 260 -24 22 -40 29 -103 40
-8 2 -26 1 -39 -1z"/>
<path d="M7900 4013 c-64 -27 -96 -70 -106 -143 -13 -89 71 -180 164 -180 54
0 82 12 120 50 126 126 -14 340 -178 273z"/>
<path d="M3339 3968 c-44 -25 -58 -47 -65 -101 -11 -91 73 -160 165 -135 77
22 115 113 77 187 -32 61 -115 85 -177 49z"/>
<path d="M3835 3951 c-100 -30 -100 -162 1 -190 59 -17 130 46 118 103 -3 12
-6 27 -8 33 -7 37 -69 66 -111 54z"/>
<path d="M4280 3948 c-88 -32 -83 -158 7 -186 43 -13 92 11 115 56 17 36 12
67 -17 105 -17 24 -73 37 -105 25z"/>
<path d="M4709 3942 c-48 -33 -56 -116 -15 -157 42 -42 115 -41 153 3 59 69
13 168 -79 169 -21 0 -47 -6 -59 -15z"/>
<path d="M5168 3943 c-26 -16 -48 -58 -48 -90 0 -8 7 -30 16 -48 21 -44 86
-65 131 -42 41 22 52 38 59 85 5 34 1 45 -23 72 -35 39 -94 49 -135 23z"/>
<path d="M144 3554 c-43 -18 -91 -79 -99 -125 -8 -48 9 -105 44 -142 76 -82
214 -67 266 29 77 144 -61 300 -211 238z"/>
<path d="M588 3546 c-120 -63 -116 -237 8 -296 79 -39 167 -11 215 67 88 141
-74 308 -223 229z"/>
<path d="M1076 3563 c-30 -5 -112 -79 -114 -104 0 -8 -3 -30 -5 -49 -11 -93
75 -182 168 -175 60 5 71 9 103 35 94 79 77 227 -31 279 -42 20 -61 23 -121
14z"/>
<path d="M1524 3556 c-98 -35 -144 -152 -93 -235 28 -46 42 -59 82 -76 133
-55 276 82 222 213 -38 89 -125 130 -211 98z"/>
<path d="M1983 3562 c-13 -2 -23 -8 -23 -13 0 -5 -7 -9 -14 -9 -18 0 -65 -60
-72 -91 -17 -79 8 -147 68 -187 93 -61 216 -19 251 86 30 87 -9 170 -96 207
-34 14 -57 16 -114 7z"/>
<path d="M3798 3556 c-95 -34 -136 -148 -86 -238 63 -112 235 -111 293 2 45
88 6 198 -84 236 -41 17 -75 17 -123 0z"/>
<path d="M5626 3560 c-34 -11 -73 -45 -92 -83 -68 -130 52 -277 192 -238 71
20 112 73 120 152 5 54 -4 78 -45 122 -46 50 -108 67 -175 47z"/>
<path d="M6992 3557 c-73 -27 -115 -92 -108 -168 7 -87 64 -146 151 -155 98
-11 189 79 180 178 -11 109 -123 182 -223 145z"/>
<path d="M7453 3563 c-37 -7 -99 -76 -110 -122 -20 -77 17 -156 90 -191 85
-42 177 -10 221 77 66 130 -49 265 -201 236z"/>
<path d="M7881 3547 c-75 -38 -108 -132 -73 -211 14 -33 62 -95 62 -81 0 2 17
-3 37 -11 53 -23 111 -11 160 31 103 88 67 250 -61 284 -52 14 -79 11 -125
-12z"/>
<path d="M4273 3505 c-45 -19 -66 -51 -69 -101 -3 -39 1 -50 29 -80 30 -32 54
-40 109 -35 9 0 30 12 46 26 96 80 0 239 -115 190z"/>
<path d="M4730 3503 c-8 -3 -26 -17 -40 -30 -20 -19 -25 -32 -25 -74 0 -46 4
-54 34 -79 26 -22 42 -28 70 -26 65 5 98 34 108 97 11 73 -76 139 -147 112z"/>
<path d="M5181 3493 c-39 -20 -66 -73 -57 -115 16 -78 123 -108 177 -49 24 26
34 84 18 113 -15 29 -48 58 -65 58 -7 0 -18 2 -26 5 -7 2 -28 -3 -47 -12z"/>
<path d="M141 3094 c-151 -65 -115 -297 49 -318 155 -19 249 173 140 284 -50
52 -120 64 -189 34z"/>
<path d="M601 3096 c-86 -31 -125 -141 -81 -229 67 -135 267 -113 307 33 37
135 -90 245 -226 196z"/>
<path d="M1055 3098 c-90 -49 -122 -143 -80 -231 52 -110 215 -123 284 -21 76
111 -3 265 -136 264 -27 0 -57 -6 -68 -12z"/>
<path d="M1518 3103 c-10 -2 -18 -9 -18 -14 0 -6 -4 -8 -10 -4 -5 3 -25 -15
-44 -41 -28 -39 -34 -56 -33 -97 0 -55 15 -92 49 -125 83 -78 215 -54 267 48
31 60 16 143 -34 196 -32 33 -123 52 -177 37z"/>
<path d="M1965 3096 c-126 -56 -130 -242 -6 -303 122 -61 267 50 239 181 -23
106 -136 165 -233 122z"/>
<path d="M2415 3093 c-93 -50 -121 -169 -59 -250 101 -132 312 -52 299 114 -5
56 -28 94 -78 127 -48 31 -115 34 -162 9z"/>
<path d="M4695 3093 c-64 -35 -99 -98 -91 -164 3 -18 6 -35 7 -36 1 -2 2 -7 3
-12 3 -23 48 -70 83 -86 96 -46 206 4 234 107 19 71 -8 139 -72 180 -46 30
-120 35 -164 11z"/>
<path d="M5154 3095 c-77 -39 -113 -125 -87 -202 55 -160 277 -154 320 8 18
67 -9 137 -70 183 -35 26 -122 32 -163 11z"/>
<path d="M6516 3090 c-61 -31 -95 -89 -89 -155 13 -158 195 -216 297 -95 32
39 40 68 33 126 -12 113 -137 178 -241 124z"/>
<path d="M6990 3102 c-67 -21 -113 -97 -106 -173 13 -128 146 -193 254 -125
52 32 75 77 76 141 0 63 -23 103 -78 139 -40 26 -98 33 -146 18z"/>
<path d="M7435 3096 c-30 -14 -96 -76 -81 -76 5 0 3 -6 -3 -14 -26 -32 -14
-126 22 -167 78 -90 210 -82 274 16 16 25 21 46 20 93 -2 65 -19 98 -70 136
-33 25 -121 32 -162 12z"/>
<path d="M7894 3101 c-34 -15 -83 -70 -93 -104 -13 -48 -5 -113 18 -146 76
-107 234 -97 290 19 37 76 17 160 -51 210 -33 24 -128 36 -164 21z"/>
<path d="M156 2644 c-46 -16 -73 -38 -92 -75 -34 -66 -25 -142 23 -194 31 -34
86 -61 102 -50 6 3 11 2 11 -3 0 -11 46 -5 80 11 14 6 37 25 52 41 119 127
-12 327 -176 270z"/>
<path d="M640 2653 c-96 -29 -135 -77 -135 -168 0 -51 4 -67 27 -97 79 -103
235 -86 287 31 34 78 7 167 -63 210 -33 21 -89 32 -116 24z"/>
<path d="M1072 2646 c-94 -32 -141 -128 -105 -216 37 -91 130 -133 219 -100
34 13 81 61 94 96 49 129 -78 264 -208 220z"/>
<path d="M1530 2648 c-46 -13 -98 -63 -112 -109 -36 -124 68 -239 196 -215 46
8 95 47 115 91 20 46 23 72 11 117 -25 90 -118 142 -210 116z"/>
<path d="M1989 2650 c-132 -39 -166 -204 -59 -293 33 -28 77 -40 125 -33 17 2
35 4 41 5 6 0 28 17 49 36 37 33 71 116 57 140 -3 5 -7 17 -7 27 -2 28 -46 84
-79 101 -38 20 -93 27 -127 17z"/>
<path d="M2423 2640 c-80 -37 -120 -123 -93 -204 46 -141 246 -154 309 -20 66
139 -76 288 -216 224z"/>
<path d="M2897 2646 c-78 -23 -130 -106 -115 -185 20 -109 130 -170 231 -127
74 31 119 127 94 201 -32 93 -119 139 -210 111z"/>
<path d="M3345 2647 c-34 -11 -104 -80 -106 -105 -8 -96 0 -124 48 -175 42
-45 117 -61 171 -37 142 64 149 240 13 310 -32 16 -88 20 -126 7z"/>
<path d="M6070 2639 c-152 -66 -121 -293 43 -315 81 -11 150 28 178 101 55
142 -82 274 -221 214z"/>
<path d="M6549 2650 c-70 -20 -121 -84 -123 -154 -4 -179 231 -243 312 -86 29
56 26 136 -7 171 -12 13 -21 26 -21 30 0 11 -64 38 -101 42 -19 2 -46 1 -60
-3z"/>
<path d="M6988 2643 c-117 -49 -144 -197 -51 -280 79 -70 209 -47 259 46 23
42 23 114 0 159 -36 69 -136 105 -208 75z"/>
<path d="M7453 2648 c-36 -9 -90 -59 -104 -96 -6 -15 -11 -46 -11 -68 0 -143
177 -216 280 -116 42 42 44 48 50 117 8 111 -100 193 -215 163z"/>
<path d="M7899 2643 c-69 -29 -108 -90 -104 -164 4 -88 59 -145 149 -155 48
-6 60 -3 99 20 72 42 106 133 75 203 -40 89 -136 131 -219 96z"/>
<path d="M3806 2233 c-73 -19 -143 -100 -152 -176 -20 -158 146 -280 288 -213
149 71 160 285 18 365 -38 21 -116 33 -154 24z"/>
<path d="M6060 2214 c-45 -20 -77 -50 -100 -94 -82 -161 83 -343 248 -274 164
68 168 289 7 366 -41 20 -113 21 -155 2z"/>
<path d="M144 2185 c-96 -41 -131 -169 -68 -253 112 -146 343 -34 295 143 -26
96 -136 150 -227 110z"/>
<path d="M595 2181 c-64 -29 -90 -73 -90 -151 0 -49 5 -71 20 -91 58 -77 157
-97 234 -46 140 93 70 308 -100 307 -13 0 -42 -9 -64 -19z"/>
<path d="M1054 2184 c-44 -23 -65 -45 -84 -87 -52 -115 39 -241 167 -231 48 3
123 46 123 70 0 7 5 14 10 16 6 2 14 29 17 60 5 49 2 63 -21 102 -15 25 -41
53 -58 62 -43 22 -118 26 -154 8z"/>
<path d="M1492 2174 c-70 -42 -100 -135 -68 -207 30 -66 77 -99 146 -102 125
-6 210 117 162 236 -12 31 -76 88 -100 90 -88 7 -103 5 -140 -17z"/>
<path d="M1960 2180 c-45 -23 -69 -50 -85 -96 -63 -184 192 -305 300 -143 52
80 25 192 -58 236 -45 24 -115 25 -157 3z"/>
<path d="M2425 2185 c-64 -30 -94 -72 -100 -141 -5 -60 15 -106 67 -147 32
-26 46 -30 97 -31 53 0 65 4 98 30 21 17 44 44 52 60 36 73 12 168 -55 213
-41 29 -116 36 -159 16z"/>
<path d="M2890 2192 c-62 -22 -110 -92 -110 -161 0 -152 182 -224 286 -114 99
104 33 271 -109 278 -28 2 -59 0 -67 -3z"/>
<path d="M3323 2178 c-41 -22 -58 -40 -73 -76 -56 -134 60 -270 198 -232 37
10 91 57 109 95 31 65 -1 167 -64 206 -48 30 -121 33 -170 7z"/>
<path d="M6520 2182 c-84 -41 -119 -148 -75 -232 50 -97 197 -116 268 -36 47
54 59 129 29 191 -39 81 -141 116 -222 77z"/>
<path d="M6985 2186 c-95 -43 -130 -143 -84 -236 65 -129 269 -106 308 36 20
72 -18 161 -83 196 -31 17 -109 19 -141 4z"/>
<path d="M7443 2190 c-98 -41 -136 -163 -79 -250 90 -137 306 -74 306 89 0 63
-22 103 -81 149 -21 16 -117 24 -146 12z"/>
<path d="M7895 2186 c-16 -8 -42 -26 -57 -42 -71 -77 -61 -178 25 -247 29 -24
46 -30 89 -31 64 0 102 17 139 64 83 103 15 255 -118 265 -27 2 -61 -2 -78 -9z"/>
<path d="M3352 1809 c-116 -22 -201 -141 -186 -264 23 -204 278 -283 414 -128
22 25 45 64 51 87 l12 41 9 -35 c13 -46 49 -93 95 -121 47 -29 173 -38 193
-14 7 8 18 15 25 15 18 0 64 49 87 93 17 35 25 104 15 147 -11 53 -60 111
-117 139 -109 55 -254 -2 -293 -114 l-14 -40 -23 53 c-31 72 -96 127 -165 138
-11 2 -29 6 -40 8 -11 2 -39 0 -63 -5z"/>
<path d="M2902 1767 c-149 -30 -206 -223 -98 -332 41 -41 77 -57 134 -58 182
-3 274 203 150 336 -47 49 -114 69 -186 54z"/>
<path d="M6514 1743 c-76 -39 -108 -91 -107 -174 1 -66 13 -92 59 -135 74 -69
190 -66 262 6 63 63 71 175 16 247 -31 41 -71 62 -134 72 -41 7 -56 4 -96 -16z"/>
<path d="M179 1740 c-85 -23 -131 -80 -134 -164 -7 -187 264 -235 324 -57 6
19 11 45 11 59 0 38 -38 109 -69 132 -35 24 -98 39 -132 30z"/>
<path d="M601 1727 c-122 -57 -135 -232 -22 -295 124 -70 268 22 254 162 -11
108 -135 179 -232 133z"/>
<path d="M1565 1745 c-5 -2 -22 -6 -37 -9 -37 -8 -86 -52 -103 -93 -41 -97 8
-198 109 -228 45 -13 109 -4 133 20 8 8 18 15 23 15 15 0 50 72 54 112 9 87
-50 160 -144 180 -14 3 -29 5 -35 3z"/>
<path d="M1979 1732 c-135 -45 -152 -232 -27 -302 69 -39 155 -24 207 37 17
20 31 39 32 42 1 10 7 35 10 46 8 25 -13 96 -37 125 -50 59 -113 77 -185 52z"/>
<path d="M2460 1743 c-36 -11 -77 -33 -92 -50 -71 -81 -57 -201 31 -258 139
-93 313 64 239 215 -31 63 -122 110 -178 93z"/>
<path d="M4260 1733 c-137 -47 -153 -232 -26 -304 102 -57 230 9 244 126 14
125 -100 218 -218 178z"/>
<path d="M7022 1738 c-89 -15 -148 -91 -139 -179 8 -70 36 -109 102 -141 34
-17 109 -15 131 3 8 6 14 8 14 4 0 -19 70 69 78 98 34 123 -65 237 -186 215z"/>
<path d="M7934 1740 c-78 -17 -144 -93 -144 -166 0 -36 30 -103 57 -126 23
-21 90 -45 118 -42 130 9 203 144 139 254 -33 55 -112 92 -170 80z"/>
<path d="M1055 1729 c-130 -75 -133 -246 -6 -307 111 -52 241 30 241 152 0 90
-66 158 -158 163 -32 2 -66 -2 -77 -8z"/>
<path d="M7435 1726 c-69 -30 -110 -113 -94 -186 12 -53 27 -76 69 -105 36
-25 125 -40 136 -24 3 5 13 9 22 9 23 1 67 40 87 79 22 43 17 124 -10 165 -47
70 -134 95 -210 62z"/>
<path d="M5158 1707 c-31 -16 -49 -35 -65 -67 -28 -55 -29 -78 -2 -135 37 -78
133 -107 210 -63 99 55 98 212 -1 263 -48 25 -95 25 -142 2z"/>
<path d="M4714 1661 c-74 -46 -56 -165 28 -186 91 -23 164 81 112 160 -28 43
-94 55 -140 26z"/>
<path d="M2880 1353 c-25 -8 -60 -26 -78 -40 -45 -33 -92 -100 -92 -130 0 -26
-20 -32 -20 -5 -1 34 -55 97 -105 121 -170 84 -352 -70 -294 -250 20 -61 80
-123 133 -138 l31 -8 -42 -13 c-72 -22 -161 -125 -164 -188 0 -9 -11 6 -23 34
-51 110 -169 158 -276 112 -112 -49 -157 -188 -95 -293 36 -62 89 -95 162
-102 98 -9 182 46 218 145 8 22 14 29 14 18 1 -11 11 -40 23 -64 90 -187 364
-179 443 12 19 44 27 134 13 142 -4 3 -6 9 -3 14 8 13 -32 81 -68 116 -18 17
-54 39 -82 50 -35 13 -44 20 -30 22 31 6 105 55 111 75 3 9 9 17 14 17 5 0 11
14 15 30 9 40 18 38 34 -6 19 -53 74 -109 132 -133 157 -68 339 47 340 215 0
57 -2 67 -23 114 -32 72 -109 127 -188 135 -22 2 -43 6 -47 8 -5 3 -28 -2 -53
-10z"/>
<path d="M3319 1287 c-24 -12 -57 -39 -73 -60 -28 -35 -31 -45 -31 -112 0 -67
3 -76 31 -112 40 -49 81 -72 136 -77 151 -13 256 139 190 275 -46 93 -162 133
-253 86z"/>
<path d="M161 1279 c-140 -53 -160 -236 -32 -307 156 -88 323 104 215 245 -43
56 -124 84 -183 62z"/>
<path d="M617 1275 c-78 -27 -123 -94 -115 -174 16 -168 249 -207 317 -52 58
134 -67 273 -202 226z"/>
<path d="M1080 1278 c-71 -20 -118 -77 -125 -154 -5 -50 37 -126 83 -152 83
-46 196 -12 236 71 19 40 21 108 5 140 -41 80 -119 117 -199 95z"/>
<path d="M1541 1278 c-77 -21 -120 -72 -128 -152 -4 -45 -1 -59 20 -93 34 -54
83 -83 140 -83 56 0 84 10 118 42 75 70 73 181 -5 250 -17 16 -33 28 -36 28
-3 0 -21 4 -40 8 -19 5 -50 5 -69 0z"/>
<path d="M1970 1269 c-48 -21 -62 -34 -83 -75 -26 -50 -28 -94 -6 -143 19 -44
71 -91 108 -98 90 -17 171 24 201 102 53 137 -87 273 -220 214z"/>
<path d="M6982 1270 c-89 -41 -123 -127 -86 -218 28 -73 93 -108 177 -99 28 4
53 11 55 17 2 5 9 10 16 10 24 0 66 74 70 122 11 127 -117 220 -232 168z"/>
<path d="M7454 1276 c-149 -54 -156 -260 -11 -315 147 -56 283 106 204 242
-40 67 -122 98 -193 73z"/>
<path d="M7918 1280 c-79 -24 -135 -107 -124 -184 30 -198 311 -191 334 8 12
107 -107 207 -210 176z"/>
<path d="M3822 1219 c-71 -21 -95 -125 -40 -179 84 -84 227 15 173 120 -27 51
-78 74 -133 59z"/>
<path d="M4707 1200 c-85 -67 -27 -203 80 -184 33 6 81 51 83 79 5 46 -2 65
-31 94 -37 38 -92 42 -132 11z"/>
<path d="M5192 1209 c-101 -39 -75 -189 33 -189 74 0 120 76 88 142 -22 42
-78 64 -121 47z"/>
<path d="M4263 1191 c-69 -43 -48 -152 33 -167 64 -12 123 51 107 115 -7 29
-19 43 -50 59 -31 17 -53 15 -90 -7z"/>
<path d="M164 823 c-12 -2 -40 -19 -61 -38 -96 -82 -70 -232 47 -282 78 -33
182 12 216 92 54 130 -58 256 -202 228z"/>
<path d="M590 806 c-34 -18 -51 -36 -71 -75 -23 -47 -25 -56 -16 -102 19 -97
111 -155 206 -129 78 21 125 81 124 161 -1 75 -43 135 -112 158 -51 17 -81 14
-131 -13z"/>
<path d="M1055 812 c-67 -32 -105 -94 -100 -163 12 -167 242 -215 314 -65 27
55 27 108 -1 158 -42 75 -137 106 -213 70z"/>
<path d="M1513 810 c-171 -76 -107 -335 78 -318 140 14 205 178 111 281 -44
49 -127 65 -189 37z"/>
<path d="M2895 823 c-32 -8 -84 -51 -101 -85 -36 -70 -20 -158 38 -209 114
-100 292 -11 283 140 -7 110 -108 181 -220 154z"/>
<path d="M6992 823 c-39 -8 -99 -76 -109 -125 -10 -46 1 -103 24 -126 7 -7 13
-16 13 -20 1 -11 48 -43 73 -49 44 -11 106 -5 136 13 98 58 113 193 29 271
-41 38 -93 50 -166 36z"/>
<path d="M7435 816 c-61 -27 -105 -101 -100 -167 4 -54 31 -97 80 -128 110
-70 255 12 255 143 0 117 -128 200 -235 152z"/>
<path d="M7878 810 c-49 -27 -82 -83 -84 -145 -2 -54 11 -88 48 -122 74 -69
186 -61 249 18 49 63 44 163 -12 220 -49 50 -137 62 -201 29z"/>
<path d="M4719 754 c-14 -7 -33 -28 -43 -46 -34 -62 8 -141 79 -148 59 -6 104
30 112 89 11 83 -75 144 -148 105z"/>
<path d="M5190 759 c-39 -15 -59 -39 -66 -76 -16 -86 68 -149 149 -112 42 19
66 93 45 133 -11 21 -46 55 -57 57 -3 0 -15 2 -26 4 -11 2 -31 -1 -45 -6z"/>
<path d="M3330 730 c-35 -38 -42 -72 -21 -113 19 -38 78 -71 113 -62 44 11 76
48 81 93 5 37 1 46 -28 77 -27 29 -39 35 -75 35 -34 0 -47 -6 -70 -30z"/>
<path d="M3808 743 c-35 -22 -52 -63 -44 -106 8 -41 31 -65 74 -73 92 -18 154
85 93 155 -32 38 -84 48 -123 24z"/>
<path d="M4272 745 c-59 -26 -74 -103 -29 -152 43 -48 135 -36 159 21 24 58 5
110 -47 132 -41 17 -42 17 -83 -1z"/>
<path d="M5613 391 c-86 -34 -136 -112 -129 -200 10 -113 98 -192 205 -185 79
5 134 42 170 112 77 155 -86 337 -246 273z"/>
<path d="M1974 386 c-79 -29 -124 -88 -129 -168 -4 -78 30 -140 98 -178 111
-63 252 5 275 131 26 141 -113 264 -244 215z"/>
<path d="M2436 389 c-142 -40 -185 -216 -79 -322 94 -94 238 -67 309 59 16 28
15 125 -2 152 -8 12 -11 22 -7 22 14 0 -53 62 -83 76 -38 18 -100 24 -138 13z"/>
<path d="M1505 375 c-70 -33 -106 -85 -110 -159 -3 -50 18 -111 51 -143 23
-24 98 -53 134 -52 55 0 121 39 153 91 30 49 33 64 23 121 -9 58 -32 94 -77
124 -48 32 -128 40 -174 18z"/>
<path d="M160 366 c-45 -13 -77 -42 -101 -88 -24 -47 -24 -91 0 -144 75 -164
324 -103 316 78 -5 108 -113 186 -215 154z"/>
<path d="M650 373 c-51 -7 -97 -35 -123 -76 -57 -87 -27 -195 67 -244 28 -15
71 -18 111 -9 11 2 23 5 27 5 15 2 70 56 84 83 57 111 -44 257 -166 241z"/>
<path d="M1071 366 c-41 -12 -105 -74 -110 -107 -15 -96 12 -165 80 -199 131
-68 282 51 240 190 -28 95 -116 144 -210 116z"/>
<path d="M6537 365 c-102 -35 -144 -138 -98 -238 65 -139 270 -121 318 28 42
132 -88 256 -220 210z"/>
<path d="M6983 360 c-134 -54 -135 -250 -1 -310 146 -65 293 107 209 243 -39
63 -138 95 -208 67z"/>
<path d="M7425 351 c-67 -34 -102 -116 -83 -191 17 -67 92 -124 163 -124 52 0
135 45 135 73 0 5 5 11 10 13 20 6 24 114 6 152 -40 84 -147 119 -231 77z"/>
<path d="M7878 350 c-66 -36 -101 -124 -77 -199 22 -70 88 -115 164 -114 172
3 223 234 69 319 -34 18 -116 16 -156 -6z"/>
<path d="M5177 346 c-50 -18 -67 -34 -88 -81 -46 -104 23 -210 135 -210 86 0
155 66 150 145 -4 53 -8 67 -33 100 -36 49 -102 67 -164 46z"/>
<path d="M2935 345 c-5 -2 -22 -6 -36 -9 -93 -20 -126 -161 -55 -232 41 -41
127 -52 175 -22 58 35 82 119 52 182 -26 53 -95 94 -136 81z"/>
<path d="M3364 305 c-43 -18 -67 -50 -69 -92 -3 -46 8 -72 41 -97 69 -51 174
2 174 88 0 74 -80 129 -146 101z"/>
<path d="M3804 291 c-80 -49 -58 -170 34 -187 45 -9 96 17 112 57 38 92 -63
181 -146 130z"/>
<path d="M4274 300 c-34 -13 -64 -59 -64 -97 0 -66 56 -112 123 -99 96 18 112
154 23 191 -40 17 -52 17 -82 5z"/>
<path d="M4725 297 c-28 -13 -45 -36 -59 -80 -8 -25 17 -81 45 -101 61 -43
158 6 159 79 0 46 -9 68 -35 88 -34 24 -75 29 -110 14z"/>
</g>
</svg>
