<?xml version="1.0" encoding="UTF-8" standalone="no"?>
<svg
   xmlns:xhtml="http://www.w3.org/1999/xhtml"
   xmlns:dc="http://purl.org/dc/elements/1.1/"
   xmlns:cc="http://creativecommons.org/ns#"
   xmlns:rdf="http://www.w3.org/1999/02/22-rdf-syntax-ns#"
   xmlns:svg="http://www.w3.org/2000/svg"
   xmlns="http://www.w3.org/2000/svg"
   xmlns:sodipodi="http://sodipodi.sourceforge.net/DTD/sodipodi-0.dtd"
   xmlns:inkscape="http://www.inkscape.org/namespaces/inkscape"
   id="molgen"
   viewBox="0 0 202.09 203.9263"
   version="1.1"
   sodipodi:docname="molgen-logo.svg"
   width="202.09"
   height="203.9263"
   inkscape:version="0.92.4 5da689c313, 2019-01-14">
  <metadata
     id="metadata4107">
    <rdf:RDF>
      <cc:Work
         rdf:about="">
        <dc:format>image/svg+xml</dc:format>
        <dc:type
           rdf:resource="http://purl.org/dc/dcmitype/StillImage" />
        <dc:title>molgen-desktop-de</dc:title>
      </cc:Work>
    </rdf:RDF>
  </metadata>
  <sodipodi:namedview
     pagecolor="#ffffff"
     bordercolor="#666666"
     borderopacity="1"
     objecttolerance="10"
     gridtolerance="10"
     guidetolerance="10"
     inkscape:pageopacity="0"
     inkscape:pageshadow="2"
     inkscape:window-width="2498"
     inkscape:window-height="1352"
     id="namedview4105"
     showgrid="false"
     inkscape:zoom="1.2755556"
     inkscape:cx="712.90559"
     inkscape:cy="61.816034"
     inkscape:window-x="29"
     inkscape:window-y="55"
     inkscape:window-maximized="0"
     inkscape:current-layer="molgen" />
  <defs
     id="defs3932">
    <style
       id="style3930">.cls-1,.cls-2{fill:#006c66;}.cls-2{fill-rule:evenodd;}.cls-3{fill:#ac162c;}</style>
  </defs>
  <title
     id="title3934">molgen-desktop-de</title>
  <g
     id="Logo"
     transform="translate(-1249.94,-0.05001022)">
    <path
       class="cls-1"
       d="m 1447.79,194.67 a 4.22,4.22 0 1 0 4.21,4.22 4.21,4.21 0 0 0 -4.21,-4.22 z m -11.39,0 a 4.22,4.22 0 1 0 4.21,4.22 4.22,4.22 0 0 0 -4.21,-4.22 z m -11.39,0 a 4.22,4.22 0 1 0 4.21,4.22 4.22,4.22 0 0 0 -4.21,-4.22 z m -11.39,-0.12 a 4.34,4.34 0 1 0 4.33,4.34 4.33,4.33 0 0 0 -4.33,-4.34 z m -22.77,-0.67 a 5,5 0 1 0 5,5 5,5 0 0 0 -5,-5 z m -11.39,1.19 a 3.82,3.82 0 1 0 3.81,3.82 3.82,3.82 0 0 0 -3.81,-3.82 z m -11.39,1.21 a 2.61,2.61 0 1 0 2.6,2.61 2.61,2.61 0 0 0 -2.6,-2.61 z m -11.39,0 a 2.61,2.61 0 1 0 2.6,2.61 2.61,2.61 0 0 0 -2.6,-2.61 z m -11.39,0 a 2.61,2.61 0 1 0 2.61,2.61 2.61,2.61 0 0 0 -2.61,-2.61 z m -11.39,-0.14 a 2.74,2.74 0 1 0 2.74,2.75 2.74,2.74 0 0 0 -2.74,-2.75 z m -11.39,-0.82 a 3.56,3.56 0 1 0 3.56,3.56 3.56,3.56 0 0 0 -3.56,-3.56 z m -11.39,-1.26 a 4.83,4.83 0 1 0 4.82,4.83 4.82,4.82 0 0 0 -4.82,-4.83 z m -11.39,0 a 4.78,4.78 0 1 0 4.77,4.78 4.78,4.78 0 0 0 -4.77,-4.78 z m -11.39,0.16 a 4.62,4.62 0 1 0 4.61,4.62 4.62,4.62 0 0 0 -4.61,-4.62 z m -11.39,0.4 a 4.22,4.22 0 1 0 4.21,4.22 4.22,4.22 0 0 0 -4.21,-4.22 z m -11.39,0 a 4.22,4.22 0 1 0 4.21,4.22 4.22,4.22 0 0 0 -4.21,-4.22 z m -11.39,0 a 4.22,4.22 0 1 0 4.21,4.22 4.22,4.22 0 0 0 -4.21,-4.22 z m 193.58,-11.41 a 4.22,4.22 0 1 0 4.21,4.22 4.21,4.21 0 0 0 -4.21,-4.22 z m -11.39,0 a 4.22,4.22 0 1 0 4.21,4.22 4.22,4.22 0 0 0 -4.21,-4.22 z m -11.39,0 a 4.22,4.22 0 1 0 4.21,4.22 4.22,4.22 0 0 0 -4.21,-4.22 z m -45.55,6.83 a 2.61,2.61 0 1 0 -2.61,-2.61 2.61,2.61 0 0 0 2.61,2.61 z m -11.39,-5.22 a 2.61,2.61 0 1 0 2.6,2.61 2.61,2.61 0 0 0 -2.6,-2.61 z M 1356.7,190 a 2.48,2.48 0 1 0 -2.47,-2.48 2.47,2.47 0 0 0 2.47,2.48 z m -11.39,0 a 2.48,2.48 0 1 0 -2.47,-2.48 2.47,2.47 0 0 0 2.47,2.48 z m -11.39,0.14 a 2.61,2.61 0 1 0 -2.6,-2.61 2.61,2.61 0 0 0 2.6,2.61 z m -11.39,-6.93 a 4.32,4.32 0 1 0 4.31,4.32 4.32,4.32 0 0 0 -4.31,-4.32 z m -22.77,-0.9 a 5.23,5.23 0 1 0 5.22,5.23 5.22,5.22 0 0 0 -5.22,-5.23 z m -11.39,9.45 a 4.22,4.22 0 1 0 -4.21,-4.22 4.22,4.22 0 0 0 4.21,4.22 z m -11.37,-8.5 a 4.22,4.22 0 1 0 4.21,4.22 4.22,4.22 0 0 0 -4.21,-4.22 z m -11.39,0 a 4.22,4.22 0 1 0 4.21,4.22 4.22,4.22 0 0 0 -4.21,-4.22 z m -11.39,0 a 4.22,4.22 0 1 0 4.21,4.22 4.22,4.22 0 0 0 -4.21,-4.22 z m 193.58,-11.41 a 4.22,4.22 0 1 0 4.21,4.22 4.22,4.22 0 0 0 -4.21,-4.22 z m -11.39,0 a 4.22,4.22 0 1 0 4.21,4.22 4.22,4.22 0 0 0 -4.21,-4.22 z m -11.39,0 a 4.22,4.22 0 1 0 4.21,4.22 4.22,4.22 0 0 0 -4.21,-4.22 z m -39.85,-20.74 a 6.11,6.11 0 0 0 -3.19,-3.42 6.38,6.38 0 0 0 3.61,-4.13 5.56,5.56 0 0 0 4.09,3.71 6.09,6.09 0 0 0 -4.5,3.84 z m -11.73,1.36 a 5.43,5.43 0 0 0 -3.89,-4.45 3.75,3.75 0 0 1 7.42,-0.33 6.1,6.1 0 0 0 -3.53,4.78 z m 35.65,26.79 a 5.56,5.56 0 1 0 0,-6.39 7.58,7.58 0 0 0 -3,-3.32 6.22,6.22 0 1 0 -9.75,-6.84 5.84,5.84 0 0 0 -3.75,-3.63 6.1,6.1 0 0 0 -0.54,-11.83 5.56,5.56 0 1 0 -6.46,-7.15 20.15,20.15 0 0 1 -17.5,-4.64 6.35,6.35 0 0 0 -5.91,4 6,6 0 1 0 -6.68,8.18 5.68,5.68 0 1 0 2.39,0 6,6 0 0 0 4.28,-3.51 6.36,6.36 0 0 0 4.44,3.86 5.42,5.42 0 1 0 6.82,6 13.87,13.87 0 0 1 15.69,5.07 5.83,5.83 0 1 0 7.21,7.51 6.24,6.24 0 0 0 2.07,3 7.57,7.57 0 0 0 -3.48,4.65 4.49,4.49 0 1 0 0,3.73 7.56,7.56 0 0 0 2.58,4 7.27,7.27 0 0 0 -2.5,4.93 4.22,4.22 0 1 0 0,1.17 7.27,7.27 0 0 0 4.88,6.3 5.1,5.1 0 1 0 4.7,0 7.28,7.28 0 0 0 4.37,-4.13 5.43,5.43 0 1 0 0,-5.5 7.3,7.3 0 0 0 -2,-2.76 7.58,7.58 0 0 0 2.11,-2.71 z m -29.62,-0.72 a 2.48,2.48 0 1 0 -2.47,-2.48 2.47,2.47 0 0 0 2.47,2.48 z m -11.39,-5.09 a 2.61,2.61 0 1 0 2.6,2.61 2.61,2.61 0 0 0 -2.6,-2.61 z m -11.39,5 a 2.34,2.34 0 1 0 -2.34,-2.34 2.34,2.34 0 0 0 2.34,2.34 z m -11.39,-5.09 a 2.74,2.74 0 1 0 2.74,2.75 2.74,2.74 0 0 0 -2.74,-2.75 z m -11.39,-2.08 a 4.82,4.82 0 1 0 4.81,4.83 4.82,4.82 0 0 0 -4.81,-4.83 z m -11.39,-1.34 a 6.16,6.16 0 0 0 -6.12,5.5 5.31,5.31 0 1 0 -5.75,6 6.12,6.12 0 1 0 1,0 5.32,5.32 0 0 0 4.79,-4.64 6.15,6.15 0 1 0 6.12,-6.83 z m -22.77,1.95 a 4.22,4.22 0 1 0 4.21,4.22 4.22,4.22 0 0 0 -4.21,-4.22 z m -11.39,8.44 a 4.22,4.22 0 1 0 -4.21,-4.22 4.22,4.22 0 0 0 4.21,4.22 z M 1277,171.85 a 4.22,4.22 0 1 0 4.21,4.22 4.22,4.22 0 0 0 -4.21,-4.22 z m -11.39,0 a 4.22,4.22 0 1 0 4.21,4.22 4.22,4.22 0 0 0 -4.21,-4.22 z m -11.39,0 a 4.22,4.22 0 1 0 4.21,4.22 4.22,4.22 0 0 0 -4.21,-4.22 z m 193.58,-11.41 a 4.22,4.22 0 1 0 4.21,4.22 4.21,4.21 0 0 0 -4.21,-4.22 z m -11.39,0 a 4.22,4.22 0 1 0 4.21,4.22 4.22,4.22 0 0 0 -4.21,-4.22 z m -11.39,0 a 4.22,4.22 0 1 0 4.21,4.22 4.22,4.22 0 0 0 -4.21,-4.22 z m -11.39,9 a 4.76,4.76 0 1 0 -4.74,-4.76 4.75,4.75 0 0 0 4.74,4.76 z m -34.16,-8.58 a 3.82,3.82 0 1 0 3.81,3.82 3.81,3.81 0 0 0 -3.81,-3.82 z m -11.39,1.14 a 2.61,2.61 0 1 0 2.6,2.61 2.61,2.61 0 0 0 -2.6,-2.61 z m -11.39,-1.61 a 4.22,4.22 0 1 0 4.21,4.22 4.22,4.22 0 0 0 -4.21,-4.22 z m -11.39,-1.21 a 5.43,5.43 0 1 0 5.42,5.43 5.42,5.42 0 0 0 -5.42,-5.43 z m -11.39,-0.54 a 6,6 0 1 0 6,6 6,6 0 0 0 -6,-6 z m -11.39,11 a 5,5 0 1 0 -5,-5 5,5 0 0 0 5,5 z m -11.39,-9.25 a 4.22,4.22 0 1 0 4.21,4.22 4.22,4.22 0 0 0 -4.21,-4.22 z m -11.39,0 a 4.22,4.22 0 1 0 4.21,4.22 4.22,4.22 0 0 0 -4.21,-4.22 z m -11.39,8.44 a 4.22,4.22 0 1 0 -4.21,-4.22 4.22,4.22 0 0 0 4.21,4.22 z M 1277,160.44 a 4.22,4.22 0 1 0 4.21,4.22 4.22,4.22 0 0 0 -4.21,-4.22 z m -11.39,0 a 4.22,4.22 0 1 0 4.21,4.22 4.22,4.22 0 0 0 -4.21,-4.22 z m -11.39,0 a 4.22,4.22 0 1 0 4.21,4.22 4.22,4.22 0 0 0 -4.21,-4.22 z M 1447.79,149 a 4.22,4.22 0 1 0 4.21,4.22 4.22,4.22 0 0 0 -4.21,-4.22 z m -11.39,0 a 4.22,4.22 0 1 0 4.21,4.22 4.22,4.22 0 0 0 -4.21,-4.22 z m -11.4,0 a 4.22,4.22 0 1 0 4.21,4.22 A 4.22,4.22 0 0 0 1425,149 Z m -11.39,8.44 a 4.22,4.22 0 1 0 -4.21,-4.22 4.21,4.21 0 0 0 4.21,4.22 z m -11.39,0.8 a 5,5 0 1 0 -5,-5 5,5 0 0 0 5,5 z m -56.94,0.13 a 5.16,5.16 0 1 0 -5.15,-5.16 5.15,5.15 0 0 0 5.15,5.16 z M 1333.92,149 a 4.22,4.22 0 1 0 4.21,4.22 4.22,4.22 0 0 0 -4.21,-4.22 z m -11.39,8.44 a 4.22,4.22 0 1 0 -4.21,-4.22 4.22,4.22 0 0 0 4.21,4.22 z M 1311.15,149 a 4.22,4.22 0 1 0 4.21,4.22 4.22,4.22 0 0 0 -4.21,-4.22 z m -11.39,0 a 4.22,4.22 0 1 0 4.21,4.22 4.22,4.22 0 0 0 -4.21,-4.22 z m -11.39,8.44 a 4.22,4.22 0 1 0 -4.21,-4.22 4.22,4.22 0 0 0 4.21,4.22 z M 1277,149 a 4.22,4.22 0 1 0 4.21,4.22 A 4.22,4.22 0 0 0 1277,149 Z m -11.39,0 a 4.22,4.22 0 1 0 4.21,4.22 4.22,4.22 0 0 0 -4.21,-4.22 z m -11.39,0 a 4.22,4.22 0 1 0 4.21,4.22 4.22,4.22 0 0 0 -4.21,-4.22 z m 193.58,-11.41 a 4.22,4.22 0 1 0 4.21,4.22 4.21,4.21 0 0 0 -4.21,-4.22 z m -11.39,0 a 4.22,4.22 0 1 0 4.21,4.22 4.22,4.22 0 0 0 -4.21,-4.22 z m -11.39,0 a 4.22,4.22 0 1 0 4.21,4.22 4.22,4.22 0 0 0 -4.21,-4.22 z m -11.39,8.44 a 4.22,4.22 0 1 0 -4.21,-4.22 4.21,4.21 0 0 0 4.21,4.22 z m -11.39,0 a 4.22,4.22 0 1 0 -4.21,-4.22 4.21,4.21 0 0 0 4.21,4.22 z m -56.94,0.81 a 5,5 0 1 0 -5,-5 5,5 0 0 0 5,5 z m -11.39,-9.25 a 4.22,4.22 0 1 0 4.21,4.22 4.22,4.22 0 0 0 -4.21,-4.22 z m -11.39,8.44 a 4.22,4.22 0 1 0 -4.21,-4.22 4.22,4.22 0 0 0 4.21,4.22 z m -11.39,-8.44 a 4.22,4.22 0 1 0 4.21,4.22 4.22,4.22 0 0 0 -4.21,-4.22 z m -11.39,0 a 4.22,4.22 0 1 0 4.21,4.22 4.22,4.22 0 0 0 -4.21,-4.22 z m -11.39,8.44 a 4.22,4.22 0 1 0 -4.21,-4.22 4.22,4.22 0 0 0 4.21,4.22 z M 1277,137.61 a 4.22,4.22 0 1 0 4.21,4.22 4.22,4.22 0 0 0 -4.21,-4.22 z m -11.39,0 a 4.22,4.22 0 1 0 4.21,4.22 4.22,4.22 0 0 0 -4.21,-4.22 z m -11.39,0 a 4.22,4.22 0 1 0 4.21,4.22 4.22,4.22 0 0 0 -4.21,-4.22 z M 1447.8,126.2 a 4.22,4.22 0 1 0 4.21,4.22 4.21,4.21 0 0 0 -4.21,-4.22 z m -11.39,0 a 4.22,4.22 0 1 0 4.21,4.22 4.21,4.21 0 0 0 -4.21,-4.22 z m -11.39,0 a 4.22,4.22 0 1 0 4.21,4.22 4.21,4.21 0 0 0 -4.21,-4.22 z m -11.39,8.44 a 4.22,4.22 0 1 0 -4.21,-4.22 4.21,4.21 0 0 0 4.21,4.22 z m -22.77,1.61 a 5.83,5.83 0 1 0 -5.82,-5.83 5.82,5.82 0 0 0 5.82,5.83 z m -11.39,-1.61 a 4.22,4.22 0 1 0 -4.21,-4.22 4.22,4.22 0 0 0 4.21,4.22 z m -15.6,-4.22 a 4.21,4.21 0 1 0 4.21,-4.22 4.22,4.22 0 0 0 -4.21,4.22 z m -7.18,5.16 a 5.16,5.16 0 1 0 -5.08,-5.93 6.35,6.35 0 0 0 -12.41,-1 5.56,5.56 0 1 0 0,3.45 6.35,6.35 0 0 0 12.41,-1 5.15,5.15 0 0 0 5.08,4.39 z m -34.16,-10.18 a 5,5 0 1 0 5,5 5,5 0 0 0 -5,-5 z m -11.39,0.81 a 4.22,4.22 0 1 0 4.21,4.22 4.22,4.22 0 0 0 -4.21,-4.22 z m -11.39,0 a 4.22,4.22 0 1 0 4.21,4.22 4.22,4.22 0 0 0 -4.21,-4.22 z m -11.39,8.44 a 4.22,4.22 0 1 0 -4.21,-4.22 4.22,4.22 0 0 0 4.21,4.22 z M 1277,126.2 a 4.22,4.22 0 1 0 4.21,4.22 4.22,4.22 0 0 0 -4.21,-4.22 z m -11.39,0 a 4.22,4.22 0 1 0 4.21,4.22 4.22,4.22 0 0 0 -4.21,-4.22 z m -11.39,0 a 4.22,4.22 0 1 0 4.21,4.22 4.21,4.21 0 0 0 -4.21,-4.22 z m 193.58,-11.41 a 4.22,4.22 0 1 0 4.2,4.21 4.21,4.21 0 0 0 -4.21,-4.22 z m -11.39,0 a 4.22,4.22 0 1 0 4.21,4.22 4.22,4.22 0 0 0 -4.21,-4.22 z m -11.39,0 a 4.22,4.22 0 1 0 4.21,4.22 4.22,4.22 0 0 0 -4.21,-4.22 z m -34.16,0 a 4.22,4.22 0 1 0 4.21,4.22 4.22,4.22 0 0 0 -4.21,-4.22 z m -11.39,1.61 a 2.61,2.61 0 1 0 2.6,2.61 2.61,2.61 0 0 0 -2.6,-2.61 z m -11.39,5.35 a 2.74,2.74 0 1 0 -2.74,-2.74 2.74,2.74 0 0 0 2.74,2.74 z m -11.39,0.14 a 2.88,2.88 0 1 0 -2.87,-2.88 2.88,2.88 0 0 0 2.87,2.88 z m -11.39,1.34 a 4.22,4.22 0 1 0 -4.21,-4.22 4.22,4.22 0 0 0 4.21,4.22 z m -45.55,-8.44 a 4.22,4.22 0 1 0 4.25,4.21 4.22,4.22 0 0 0 -4.21,-4.22 z m -11.39,8.44 a 4.22,4.22 0 1 0 -4.21,-4.22 4.22,4.22 0 0 0 4.21,4.22 z M 1277,114.79 a 4.22,4.22 0 1 0 4.21,4.22 4.22,4.22 0 0 0 -4.21,-4.22 z m -11.39,0 a 4.22,4.22 0 1 0 4.21,4.22 4.22,4.22 0 0 0 -4.21,-4.22 z m -11.39,0 a 4.22,4.22 0 1 0 4.21,4.22 4.22,4.22 0 0 0 -4.21,-4.22 z m 193.58,-11.41 a 4.22,4.22 0 1 0 4.21,4.22 4.21,4.21 0 0 0 -4.21,-4.22 z m -11.39,0 a 4.22,4.22 0 1 0 4.21,4.22 4.22,4.22 0 0 0 -4.21,-4.22 z m -11.39,0 a 4.22,4.22 0 1 0 4.21,4.22 4.22,4.22 0 0 0 -4.21,-4.22 z m -20.12,-2 a 5.82,5.82 0 1 0 -5.3,0 6.77,6.77 0 0 0 -0.84,12 6.63,6.63 0 0 0 1.36,11.9 5.55,5.55 0 1 0 4.27,0 6.63,6.63 0 0 0 4.38,-5.12 5,5 0 1 0 0,-2.32 6.63,6.63 0 0 0 -3,-4.47 6.77,6.77 0 0 0 3.1,-4.32 5,5 0 1 0 0,-2.93 6.78,6.78 0 0 0 -3.94,-4.76 z m -14,2 a 4.22,4.22 0 1 0 4.21,4.22 4.22,4.22 0 0 0 -4.21,-4.22 z m -11.43,1.62 a 2.61,2.61 0 1 0 2.6,2.61 2.61,2.61 0 0 0 -2.6,-2.61 z m -11.39,5.22 a 2.61,2.61 0 1 0 -2.6,-2.61 2.61,2.61 0 0 0 2.6,2.61 z m -11.39,-5.09 a 2.48,2.48 0 1 0 2.47,2.48 2.47,2.47 0 0 0 -2.47,-2.48 z m -11.39,0 a 2.48,2.48 0 1 0 2.47,2.48 2.47,2.47 0 0 0 -2.47,-2.48 z m -11.39,5.76 a 3.28,3.28 0 1 0 -3.27,-3.28 3.28,3.28 0 0 0 3.27,3.28 z m -27.77,-13 a 5.3,5.3 0 0 0 3.29,3.3 6.64,6.64 0 0 0 -4.63,4.47 5.43,5.43 0 0 0 -3.12,-3.13 6.64,6.64 0 0 0 4.46,-4.64 z m -1.34,-22.6 a 6.64,6.64 0 0 0 4.63,4.47 5.29,5.29 0 0 0 -3.29,3.3 6.63,6.63 0 0 0 -4.46,-4.64 5.43,5.43 0 0 0 3.12,-3.13 z m 11.25,-25.48 a 5,5 0 0 0 -4.2,-4.21 6.52,6.52 0 0 0 5.66,-5.14 5.2,5.2 0 0 0 3.68,3.69 6.52,6.52 0 0 0 -5.13,5.67 z m -21.72,57.78 a 5.41,5.41 0 0 0 10.47,1.94 6.64,6.64 0 0 0 4.63,4.47 5.29,5.29 0 1 0 6.85,6.19 6.35,6.35 0 0 0 12.29,0.76 5.7,5.7 0 1 0 0,-3.89 6.35,6.35 0 0 0 -12.29,0.77 5.29,5.29 0 0 0 -3.44,-3.83 6.63,6.63 0 0 0 4.81,-5.24 5,5 0 1 0 0,-2.33 6.63,6.63 0 0 0 -4.81,-5.24 5.29,5.29 0 1 0 -6.7,-6.71 6.63,6.63 0 0 0 -3,-4 6.63,6.63 0 0 0 3,-4 5.28,5.28 0 1 0 6.7,-6.72 6.64,6.64 0 0 0 0.23,-12.75 5.43,5.43 0 0 0 3.28,-3.6 6.34,6.34 0 0 0 12.35,0 5.43,5.43 0 1 0 0,-2.94 6.37,6.37 0 0 0 -3.19,-4.15 6.54,6.54 0 0 0 3,-3.25 5.95,5.95 0 0 0 11,-0.44 6.2,6.2 0 0 0 3.93,3.8 5.82,5.82 0 1 0 3.76,0 6.19,6.19 0 0 0 4.2,-4.81 5.43,5.43 0 1 0 0,-2.17 6.17,6.17 0 0 0 -11.89,-1 5.95,5.95 0 0 0 -11,-0.44 6.53,6.53 0 0 0 -4.66,-3.85 5.2,5.2 0 1 0 -6.35,-6.36 6.53,6.53 0 0 0 -4.28,-4.84 5.63,5.63 0 1 0 -4.18,0 6.53,6.53 0 0 0 -4.38,5.46 5,5 0 1 0 0,1.43 6.52,6.52 0 0 0 5.75,5.76 5,5 0 1 0 5.63,5.65 6.52,6.52 0 0 0 3.48,5.07 6.38,6.38 0 0 0 -3.19,4.15 5.42,5.42 0 1 0 -7.14,6.53 6.64,6.64 0 0 0 -4.4,4.41 5.42,5.42 0 1 0 -7,7 6.63,6.63 0 0 0 -1.43,12.05 6.64,6.64 0 0 0 1.43,12.05 5.42,5.42 0 0 0 -3.48,5.07 z m -6,4.22 a 4.22,4.22 0 1 0 -4.21,-4.22 4.22,4.22 0 0 0 4.21,4.22 z M 1277,103.38 a 4.22,4.22 0 1 0 4.21,4.22 4.22,4.22 0 0 0 -4.21,-4.22 z m -11.39,0 a 4.22,4.22 0 1 0 4.21,4.22 4.22,4.22 0 0 0 -4.21,-4.22 z m -11.39,0 a 4.22,4.22 0 1 0 4.21,4.22 4.22,4.22 0 0 0 -4.21,-4.22 z M 1447.79,92 a 4.22,4.22 0 1 0 4.21,4.22 4.21,4.21 0 0 0 -4.21,-4.22 z m -11.39,0 a 4.22,4.22 0 1 0 4.21,4.22 4.22,4.22 0 0 0 -4.21,-4.22 z m -11.4,0 a 4.22,4.22 0 1 0 4.21,4.22 A 4.22,4.22 0 0 0 1425,92 Z m -11.39,0 a 4.22,4.22 0 1 0 4.21,4.22 4.22,4.22 0 0 0 -4.21,-4.22 z m -22.77,-1.34 a 5.56,5.56 0 1 0 5.55,5.56 5.56,5.56 0 0 0 -5.55,-5.56 z m -11.39,2 a 3.55,3.55 0 1 0 3.54,3.55 3.55,3.55 0 0 0 -3.54,-3.55 z m -11.39,6.16 a 2.61,2.61 0 1 0 -2.6,-2.61 2.61,2.61 0 0 0 2.6,2.61 z m -11.39,-5.22 a 2.61,2.61 0 1 0 2.6,2.61 2.61,2.61 0 0 0 -2.6,-2.61 z m -11.39,0 a 2.61,2.61 0 1 0 2.61,2.61 2.61,2.61 0 0 0 -2.61,-2.61 z m -11.39,5.35 a 2.74,2.74 0 1 0 -2.74,-2.74 2.74,2.74 0 0 0 2.74,2.74 z m -11.39,0.14 a 2.88,2.88 0 1 0 -2.87,-2.88 2.88,2.88 0 0 0 2.87,2.88 z m -34.16,-7.5 a 4.62,4.62 0 1 0 4.61,4.62 4.62,4.62 0 0 0 -4.61,-4.62 z M 1277,92 a 4.22,4.22 0 1 0 4.21,4.22 A 4.22,4.22 0 0 0 1277,92 Z m -11.39,0 a 4.22,4.22 0 1 0 4.21,4.22 4.22,4.22 0 0 0 -4.22,-4.22 z m -11.39,0 a 4.22,4.22 0 1 0 4.21,4.22 4.22,4.22 0 0 0 -4.21,-4.22 z M 1447.8,80.59 a 4.22,4.22 0 1 0 4.21,4.22 4.21,4.21 0 0 0 -4.21,-4.22 z m -11.39,0 a 4.22,4.22 0 1 0 4.21,4.22 4.22,4.22 0 0 0 -4.21,-4.22 z m -11.39,0 a 4.22,4.22 0 1 0 4.21,4.22 4.22,4.22 0 0 0 -4.21,-4.22 z m -11.39,0 a 4.22,4.22 0 1 0 4.21,4.22 4.22,4.22 0 0 0 -4.21,-4.22 z m -11.39,8.84 a 4.62,4.62 0 1 0 -4.61,-4.62 4.62,4.62 0 0 0 4.61,4.62 z m -11.39,1.07 a 5.7,5.7 0 1 0 -5.68,-5.7 5.69,5.69 0 0 0 5.68,5.7 z m -11.39,0 a 5.7,5.7 0 1 0 -5.68,-5.7 5.69,5.69 0 0 0 5.68,5.7 z m -11.39,-9.92 a 4.22,4.22 0 1 0 4.21,4.22 4.22,4.22 0 0 0 -4.21,-4.22 z M 1356.7,82 a 2.74,2.74 0 1 0 2.74,2.74 2.74,2.74 0 0 0 -2.74,-2.74 z m -11.39,0.13 a 2.61,2.61 0 1 0 2.61,2.61 2.61,2.61 0 0 0 -2.61,-2.61 z m -11.39,5.22 a 2.61,2.61 0 1 0 -2.6,-2.61 2.61,2.61 0 0 0 2.6,2.61 z m -11.39,0.27 a 2.88,2.88 0 1 0 -2.87,-2.88 2.87,2.87 0 0 0 2.87,2.88 z m -34.16,-7.5 a 4.62,4.62 0 1 0 4.61,4.62 4.62,4.62 0 0 0 -4.61,-4.62 z m -11.39,0.4 a 4.22,4.22 0 1 0 4.21,4.22 4.22,4.22 0 0 0 -4.21,-4.22 z m -11.39,0 a 4.22,4.22 0 1 0 4.21,4.22 4.22,4.22 0 0 0 -4.21,-4.22 z m -11.39,0 a 4.22,4.22 0 1 0 4.21,4.22 4.22,4.22 0 0 0 -4.21,-4.22 z m 193.58,-11.41 a 4.22,4.22 0 1 0 4.21,4.22 4.21,4.21 0 0 0 -4.21,-4.22 z m -11.39,0 a 4.22,4.22 0 1 0 4.21,4.22 4.22,4.22 0 0 0 -4.21,-4.22 z m -11.39,0 a 4.22,4.22 0 1 0 4.21,4.22 4.22,4.22 0 0 0 -4.21,-4.22 z m -11.39,0 a 4.22,4.22 0 1 0 4.21,4.22 4.22,4.22 0 0 0 -4.21,-4.22 z m -11.39,8.44 a 4.22,4.22 0 1 0 -4.21,-4.22 4.21,4.21 0 0 0 4.21,4.22 z m -11.39,-8.44 a 4.22,4.22 0 1 0 4.21,4.22 4.22,4.22 0 0 0 -4.21,-4.22 z m -11.39,9.38 a 5.16,5.16 0 1 0 -5.15,-5.16 5.15,5.15 0 0 0 5.15,5.16 z m -11.39,0.54 a 5.7,5.7 0 1 0 -5.68,-5.7 5.69,5.69 0 0 0 5.68,5.7 z m -6.37,-5.7 a 5,5 0 1 0 -5,5 5,5 0 0 0 5,-5 z m -16.4,-3.68 a 3.68,3.68 0 1 0 3.68,3.68 3.68,3.68 0 0 0 -3.68,-3.68 z m -11.39,0.54 a 3.15,3.15 0 1 0 3.14,3.15 3.14,3.14 0 0 0 -3.14,-3.15 z m -6.77,3.15 a 4.61,4.61 0 1 0 -4.61,4.62 4.62,4.62 0 0 0 4.61,-4.62 z m -38.77,4.22 a 4.22,4.22 0 1 0 -4.21,-4.22 4.22,4.22 0 0 0 4.21,4.22 z M 1277,69.14 a 4.22,4.22 0 1 0 4.21,4.22 4.22,4.22 0 0 0 -4.21,-4.22 z m -11.39,0 a 4.22,4.22 0 1 0 4.21,4.22 4.22,4.22 0 0 0 -4.21,-4.22 z m -11.39,0 a 4.22,4.22 0 1 0 4.21,4.22 4.22,4.22 0 0 0 -4.21,-4.22 z M 1447.8,57.73 a 4.22,4.22 0 1 0 4.21,4.22 4.21,4.21 0 0 0 -4.21,-4.22 z m -11.39,0 a 4.22,4.22 0 1 0 4.21,4.22 4.22,4.22 0 0 0 -4.21,-4.22 z m -11.39,0 a 4.22,4.22 0 1 0 4.21,4.22 4.22,4.22 0 0 0 -4.21,-4.22 z m -11.39,0 a 4.22,4.22 0 1 0 4.21,4.22 4.22,4.22 0 0 0 -4.21,-4.22 z m -11.39,8.44 a 4.22,4.22 0 1 0 -4.21,-4.22 4.21,4.21 0 0 0 4.21,4.22 z m -11.39,-8.44 a 4.22,4.22 0 1 0 4.21,4.22 4.22,4.22 0 0 0 -4.21,-4.22 z m -11.39,8.44 a 4.22,4.22 0 1 0 -4.21,-4.22 4.22,4.22 0 0 0 4.21,4.22 z m -11.39,0 a 4.22,4.22 0 1 0 -4.21,-4.22 4.22,4.22 0 0 0 4.21,4.22 z m -11.39,-9.51 a 5.29,5.29 0 1 0 5.28,5.29 5.29,5.29 0 0 0 -5.28,-5.29 z m -56.94,9.51 a 4.22,4.22 0 1 0 -4.21,-4.22 4.22,4.22 0 0 0 4.21,4.22 z m -11.39,0 a 4.22,4.22 0 1 0 -4.21,-4.22 4.22,4.22 0 0 0 4.21,4.22 z M 1277,57.73 a 4.22,4.22 0 1 0 4.21,4.22 4.22,4.22 0 0 0 -4.21,-4.22 z m -11.39,0 a 4.22,4.22 0 1 0 4.21,4.22 4.22,4.22 0 0 0 -4.21,-4.22 z m -11.39,0 a 4.22,4.22 0 1 0 4.21,4.22 4.22,4.22 0 0 0 -4.21,-4.22 z M 1447.8,46.32 a 4.22,4.22 0 1 0 4.21,4.22 4.21,4.21 0 0 0 -4.21,-4.22 z m -11.39,0 a 4.22,4.22 0 1 0 4.21,4.22 4.22,4.22 0 0 0 -4.21,-4.22 z m -11.39,0 a 4.22,4.22 0 1 0 4.21,4.22 4.22,4.22 0 0 0 -4.21,-4.22 z m -11.39,0 a 4.22,4.22 0 1 0 4.21,4.22 4.22,4.22 0 0 0 -4.21,-4.22 z m -11.39,8.44 a 4.22,4.22 0 1 0 -4.21,-4.22 4.21,4.21 0 0 0 4.21,4.22 z m -11.39,-8.44 a 4.22,4.22 0 1 0 4.21,4.22 4.22,4.22 0 0 0 -4.21,-4.22 z m -11.39,8.44 a 4.22,4.22 0 1 0 -4.21,-4.22 4.22,4.22 0 0 0 4.21,4.22 z m -11.39,0 a 4.22,4.22 0 1 0 -4.21,-4.22 4.22,4.22 0 0 0 4.21,4.22 z m -68.32,0 a 4.22,4.22 0 1 0 -4.21,-4.22 4.22,4.22 0 0 0 4.21,4.22 z m -11.39,0 a 4.22,4.22 0 1 0 -4.21,-4.22 4.22,4.22 0 0 0 4.21,4.22 z M 1277,46.32 a 4.22,4.22 0 1 0 4.21,4.22 4.22,4.22 0 0 0 -4.21,-4.22 z m -11.39,0 a 4.22,4.22 0 1 0 4.21,4.22 4.22,4.22 0 0 0 -4.21,-4.22 z m -11.39,0 a 4.22,4.22 0 1 0 4.21,4.22 4.22,4.22 0 0 0 -4.21,-4.22 z M 1447.8,34.91 a 4.22,4.22 0 1 0 4.21,4.22 4.21,4.21 0 0 0 -4.21,-4.22 z m -11.39,0 a 4.22,4.22 0 1 0 4.21,4.22 4.22,4.22 0 0 0 -4.21,-4.22 z m -11.39,0 a 4.22,4.22 0 1 0 4.21,4.22 4.22,4.22 0 0 0 -4.21,-4.22 z m -11.39,0 a 4.22,4.22 0 1 0 4.21,4.22 4.22,4.22 0 0 0 -4.21,-4.22 z m -11.39,8.44 a 4.22,4.22 0 1 0 -4.21,-4.22 4.21,4.21 0 0 0 4.21,4.22 z m -11.39,-8.44 a 4.22,4.22 0 1 0 4.21,4.22 4.22,4.22 0 0 0 -4.21,-4.22 z m -11.39,9.51 a 5.29,5.29 0 1 0 -5.28,-5.3 5.29,5.29 0 0 0 5.28,5.3 z m -22.77,-0.2 a 5.1,5.1 0 1 0 -5.09,-5.1 5.09,5.09 0 0 0 5.09,5.1 z M 1345.31,43 a 3.89,3.89 0 1 0 -3.88,-3.89 3.89,3.89 0 0 0 3.88,3.89 z m -11.39,-0.44 a 3.45,3.45 0 1 0 -3.45,-3.45 3.45,3.45 0 0 0 3.45,3.45 z m -45.55,0.77 a 4.22,4.22 0 1 0 -4.21,-4.22 4.22,4.22 0 0 0 4.21,4.22 z M 1277,34.91 a 4.22,4.22 0 1 0 4.21,4.22 4.22,4.22 0 0 0 -4.21,-4.22 z m -11.39,0 a 4.22,4.22 0 1 0 4.21,4.22 4.22,4.22 0 0 0 -4.21,-4.22 z m -11.39,0 a 4.22,4.22 0 1 0 4.21,4.22 4.22,4.22 0 0 0 -4.21,-4.22 z M 1447.8,23.5 a 4.22,4.22 0 1 0 4.21,4.22 4.21,4.21 0 0 0 -4.21,-4.22 z m -11.39,0 a 4.22,4.22 0 1 0 4.21,4.22 4.22,4.22 0 0 0 -4.21,-4.22 z m -11.39,0 a 4.22,4.22 0 1 0 4.21,4.22 4.22,4.22 0 0 0 -4.21,-4.22 z m -11.39,0 a 4.22,4.22 0 1 0 4.21,4.22 4.22,4.22 0 0 0 -4.21,-4.22 z M 1402.24,23 a 4.76,4.76 0 1 0 4.75,4.76 4.75,4.75 0 0 0 -4.75,-4.76 z m -11.39,10.45 a 5.7,5.7 0 1 0 -5.68,-5.7 5.69,5.69 0 0 0 5.68,5.7 z m -11.39,-0.4 a 5.29,5.29 0 1 0 -5.28,-5.29 5.29,5.29 0 0 0 5.28,5.29 z m -11.39,-1.48 a 3.82,3.82 0 1 0 -3.81,-3.82 3.81,3.81 0 0 0 3.81,3.82 z m -11.39,-1.24 a 2.58,2.58 0 1 0 -2.57,-2.58 2.57,2.57 0 0 0 2.57,2.58 z m -11.39,-5 a 2.47,2.47 0 1 0 2.46,2.47 2.46,2.46 0 0 0 -2.46,-2.47 z m -11.39,5.15 a 2.69,2.69 0 1 0 -2.68,-2.69 2.68,2.68 0 0 0 2.68,2.69 z m -11.39,0.44 a 3.12,3.12 0 1 0 -3.12,-3.12 3.12,3.12 0 0 0 3.12,3.12 z m -34.16,1.1 a 4.22,4.22 0 1 0 -4.21,-4.22 4.22,4.22 0 0 0 4.21,4.22 z M 1277,23.49 a 4.22,4.22 0 1 0 4.21,4.22 4.22,4.22 0 0 0 -4.21,-4.22 z m -11.39,0 a 4.22,4.22 0 1 0 4.21,4.22 4.22,4.22 0 0 0 -4.21,-4.22 z m -11.39,0 a 4.22,4.22 0 1 0 4.21,4.22 4.22,4.22 0 0 0 -4.21,-4.22 z M 1447.8,12.08 a 4.22,4.22 0 1 0 4.2,4.22 4.21,4.21 0 0 0 -4.21,-4.22 z m -11.39,0 a 4.22,4.22 0 1 0 4.21,4.22 4.22,4.22 0 0 0 -4.21,-4.22 z m -11.39,0 a 4.22,4.22 0 1 0 4.21,4.22 4.22,4.22 0 0 0 -4.21,-4.22 z m -11.39,0 a 4.22,4.22 0 1 0 4.21,4.22 4.22,4.22 0 0 0 -4.21,-4.22 z m -11.39,10.19 a 6,6 0 1 0 -6,-6 6,6 0 0 0 6,6 z m -11.39,-0.94 a 5,5 0 1 0 -5,-5 5,5 0 0 0 5,5 z m -11.39,-2.15 a 2.88,2.88 0 1 0 -2.87,-2.88 2.87,2.87 0 0 0 2.87,2.88 z m -11.39,-0.27 a 2.61,2.61 0 1 0 -2.6,-2.61 2.61,2.61 0 0 0 2.6,2.61 z m -11.39,-0.14 a 2.47,2.47 0 1 0 -2.46,-2.47 2.46,2.46 0 0 0 2.46,2.47 z m -11.39,0.11 a 2.58,2.58 0 1 0 -2.57,-2.58 2.57,2.57 0 0 0 2.57,2.58 z m -11.39,0.11 a 2.69,2.69 0 1 0 -2.68,-2.69 2.68,2.68 0 0 0 2.68,2.69 z m -11.39,0 a 2.69,2.69 0 1 0 -2.68,-2.69 2.68,2.68 0 0 0 2.68,2.69 z m -11.39,2.52 a 5.21,5.21 0 1 0 -5.2,-5.21 5.2,5.2 0 0 0 5.2,5.21 z m -12.1,0.61 a 5.63,5.63 0 1 0 1.43,0 5.85,5.85 0 1 0 -1.43,0 z m -10.67,-1.6 a 4.22,4.22 0 1 0 -4.21,-4.22 4.22,4.22 0 0 0 4.21,4.22 z M 1277,12.08 a 4.22,4.22 0 1 0 4.21,4.22 4.22,4.22 0 0 0 -4.21,-4.22 z m -11.39,0 a 4.22,4.22 0 1 0 4.21,4.22 4.22,4.22 0 0 0 -4.21,-4.22 z m -11.39,0 a 4.22,4.22 0 1 0 4.21,4.22 4.22,4.22 0 0 0 -4.21,-4.22 z m 193.58,-3 a 4.22,4.22 0 1 0 -4.21,-4.22 4.22,4.22 0 0 0 4.21,4.22 z m -11.4,-8.41 a 4.22,4.22 0 1 0 4.21,4.22 4.22,4.22 0 0 0 -4.21,-4.22 z m -11.4,0 a 4.22,4.22 0 1 0 4.21,4.22 4.22,4.22 0 0 0 -4.21,-4.22 z m -11.39,8.71 a 4.49,4.49 0 1 0 -4.48,-4.49 4.48,4.48 0 0 0 4.48,4.49 z m -11.39,0.27 a 4.76,4.76 0 1 0 -4.75,-4.76 4.75,4.75 0 0 0 4.75,4.76 z m -11.39,-0.94 a 3.82,3.82 0 1 0 -3.83,-3.82 3.81,3.81 0 0 0 3.81,3.82 z M 1379.47,7.5 a 2.61,2.61 0 1 0 -2.61,-2.61 2.61,2.61 0 0 0 2.61,2.61 z m -11.39,0 a 2.61,2.61 0 1 0 -2.6,-2.61 2.61,2.61 0 0 0 2.6,2.61 z m -11.39,-0.14 a 2.47,2.47 0 1 0 -2.46,-2.47 2.46,2.46 0 0 0 2.46,2.47 z m -11.39,0.11 a 2.58,2.58 0 1 0 -2.57,-2.58 2.57,2.57 0 0 0 2.57,2.58 z m -11.39,0.11 a 2.69,2.69 0 1 0 -2.68,-2.69 2.68,2.68 0 0 0 2.68,2.69 z m -11.39,1 a 3.64,3.64 0 1 0 -3.63,-3.64 3.63,3.63 0 0 0 3.63,3.64 z m -11.39,1.15 a 4.79,4.79 0 1 0 -4.78,-4.79 4.79,4.79 0 0 0 4.78,4.79 z m -11.39,0.1 a 4.89,4.89 0 1 0 -4.88,-4.89 4.88,4.88 0 0 0 4.88,4.89 z m -11.39,-0.67 a 4.22,4.22 0 1 0 -4.21,-4.22 4.22,4.22 0 0 0 4.21,4.22 z M 1277,0.67 a 4.22,4.22 0 1 0 4.21,4.22 4.22,4.22 0 0 0 -4.21,-4.22 z m -11.39,0 a 4.22,4.22 0 1 0 4.21,4.22 4.22,4.22 0 0 0 -4.22,-4.22 z m -11.39,0 a 4.22,4.22 0 1 0 4.21,4.22 4.22,4.22 0 0 0 -4.21,-4.22 z"
       id="path4099"
       inkscape:connector-curvature="0"
       style="fill:#006c66" />
    <path
       class="cls-3"
       d="m 1374.12,39 a 6.14,6.14 0 1 1 -6.14,-6.15 6.14,6.14 0 0 1 6.14,6.15 z"
       id="path4101"
       inkscape:connector-curvature="0"
       style="fill:#ac162c" />
  </g>
  <xhtml:iframe
     class="cleanslate hidden"
     src="molgen-desktop-de_files/commandline.html"
     id="cmdline_iframe"
     style="height: 0px !important;" />
</svg>
