<svg id="molgen" xmlns="http://www.w3.org/2000/svg" viewBox="0 0 1301.3 204.37"><defs><style>.cls-1{fill:#006c66;}.cls-2{fill:#ac162c;}.cls-3{isolation:isolate;}.cls-4{fill:none;stroke:#ac162c;stroke-miterlimit:10;}</style></defs><title>molgen-logo-intern-2</title><path class="cls-1" d="M267,163.1V134.4h-5v-1.2h26.5l.4,9.4h-1c-.2-1.1-.5-2.1-.8-3.2a7,7,0,0,0-2.4-3.9c-1.1-.8-2.8-1.1-5.3-1.1h-6.8v13.4h1.3a18.41,18.41,0,0,0,3.3-.3,3.36,3.36,0,0,0,2.1-1.6,8,8,0,0,0,1.1-4h1.2V155h-1.2a9.35,9.35,0,0,0-1-4.3,3,3,0,0,0-1.9-1.6,20.68,20.68,0,0,0-3.5-.3h-1.3v14.1h5.5v1.2h-16v-1.2H267Z" transform="translate(-4.3 -3.1)"/><path class="cls-1" d="M321.5,134.4h-5.1v-1.2h11.2v1.2h-5v18.8a20.41,20.41,0,0,1-.6,6,6.87,6.87,0,0,1-2.3,3.3,10.12,10.12,0,0,1-3.9,1.9,18.35,18.35,0,0,1-4.7.6c-3.4,0-6-.5-7.5-1.6a6.3,6.3,0,0,1-2.9-3.9,26.8,26.8,0,0,1-.5-6.3V134.5h-4.5v-1.2h15v1.2h-5v18.2a38.14,38.14,0,0,0,.4,5.9,6.34,6.34,0,0,0,1.9,3.6c1,1,2.7,1.4,4.9,1.4a10.35,10.35,0,0,0,4.9-1.1,6.25,6.25,0,0,0,3-3q.9-1.8.9-6.9Zm-16.3-8.1a2.35,2.35,0,0,1,4-1.7,2.41,2.41,0,0,1,.7,1.7,2,2,0,0,1-.7,1.6,2.35,2.35,0,0,1-3.3,0,2,2,0,0,1-.7-1.6Zm10,0a2.35,2.35,0,0,1,4-1.7,2.41,2.41,0,0,1,.7,1.7,2,2,0,0,1-.7,1.6,2.35,2.35,0,0,1-3.3,0,2,2,0,0,1-.7-1.6Z" transform="translate(-4.3 -3.1)"/><path class="cls-1" d="M339.8,163.1V134.4h-5v-1.2H352a25.05,25.05,0,0,1,5.5.6,6.68,6.68,0,0,1,3.7,2.4,6.26,6.26,0,0,1,1.6,4.2,6,6,0,0,1-2.3,4.8c-1.5,1.2-4.1,2.1-7.8,2.8v.1a13.39,13.39,0,0,1,6.5,3c1.7,1.5,2.5,3.9,2.5,7.4,0,2,.2,3.3.7,3.9a2.17,2.17,0,0,0,2,.8,6.45,6.45,0,0,0,2-.3v1.2a13.36,13.36,0,0,1-3.9.7c-2.6,0-4.4-.7-5.5-2.1a6.36,6.36,0,0,1-1.5-4.2l.1-3.9a7.39,7.39,0,0,0-1.3-4.1c-.9-1.3-2.9-2-6-2h-2.9v14.7h5v1.2H334.9v-1.2h4.9Zm5.5-28.7v12.8h4.2a18.4,18.4,0,0,0,4.1-.4,3.94,3.94,0,0,0,2.3-1.9,10,10,0,0,0,.9-4.8,7,7,0,0,0-.9-4,3.22,3.22,0,0,0-2.1-1.5,17.33,17.33,0,0,0-3.2-.3Z" transform="translate(-4.3 -3.1)"/><path class="cls-1" d="M386.8,133.3h11.3l6.7,21.9h.1l6.8-21.9h11v1.2H418v28.7h4.7v1.2H407.9v-1.2h4.8V134h-.1l-9.4,30.4h-1.1L392.7,134h-.1v29.2h4.8v1.2H386.7v-1.2h4.7V134.5h-4.7v-1.2Z" transform="translate(-4.3 -3.1)"/><path class="cls-1" d="M444.5,165a13.22,13.22,0,0,1-10.4-5,16.7,16.7,0,0,1,.2-22.6,13.93,13.93,0,0,1,10.4-4.9c3.7,0,7,1.7,10,5a16.64,16.64,0,0,1,0,22.6A13.15,13.15,0,0,1,444.5,165Zm.1-31.3a9.29,9.29,0,0,0-4.6,1.2,6,6,0,0,0-2.8,4.1,42.59,42.59,0,0,0-.7,10.1,68.51,68.51,0,0,0,.4,7.9,9.8,9.8,0,0,0,2.1,4.9c1.1,1.3,2.9,1.9,5.4,1.9a8.92,8.92,0,0,0,4.5-1.2c1.5-.8,2.5-2.3,3-4.6a62.94,62.94,0,0,0,.7-10.6q0-6.45-.9-9a6.13,6.13,0,0,0-2.7-3.6A9.26,9.26,0,0,0,444.6,133.7Z" transform="translate(-4.3 -3.1)"/><path class="cls-1" d="M476.8,134.4v28.7h7.1a16.55,16.55,0,0,0,3.2-.3,5.13,5.13,0,0,0,2.3-1.5,7.5,7.5,0,0,0,1.8-2.8,36.62,36.62,0,0,0,1.3-4.4h1.1l-.9,10.1H466.3V163h5V134.3h-5v-1.2H482v1.2h-5.2Z" transform="translate(-4.3 -3.1)"/><path class="cls-1" d="M510.5,134.4v13.3h2.8a10.07,10.07,0,0,0,2.5-.3,3.33,3.33,0,0,0,1.9-1.6,7.92,7.92,0,0,0,1-4h1.2V155h-1.2c-.1-2.5-.6-4.1-1.5-4.9a5.51,5.51,0,0,0-3.9-1.2h-2.8v14.2h6.4c3.6,0,6.1-.8,7.5-2.3s2.2-3.8,2.5-7h1.2l-.3,10.4H500v-1.1h5V134.4h-5v-1.2h26.7l.5,8.3H526a9.05,9.05,0,0,0-2.5-5.4c-1.3-1.1-3.4-1.7-6.3-1.7Z" transform="translate(-4.3 -3.1)"/><path class="cls-1" d="M541.7,163.1V134.4h-4.9v-1.2h15.5v1.2h-5v28.7h5v1.2H536.8v-1.2Zm13.9-29.8h11.9v1.2h-4.8L552.2,145l15.2,18.1h3.1v1.2H555v-1.2h5.4l-12.7-15.3,13.1-13.4h-5.3Z" transform="translate(-4.3 -3.1)"/><path class="cls-1" d="M602.4,134.4h-5.1v-1.2h11.2v1.2h-5v18.8a20.41,20.41,0,0,1-.6,6,6.87,6.87,0,0,1-2.3,3.3,10.12,10.12,0,0,1-3.9,1.9,18.35,18.35,0,0,1-4.7.6c-3.4,0-6-.5-7.5-1.6a6.3,6.3,0,0,1-2.9-3.9,26.8,26.8,0,0,1-.5-6.3V134.5h-4.5v-1.2h15v1.2h-5v18.2a56.83,56.83,0,0,0,.3,5.9,6.34,6.34,0,0,0,1.9,3.6c1,1,2.7,1.4,4.9,1.4a10.35,10.35,0,0,0,4.9-1.1,6.25,6.25,0,0,0,3-3q.9-1.8.9-6.9Z" transform="translate(-4.3 -3.1)"/><path class="cls-1" d="M625.4,134.4v28.7h7.1a16.55,16.55,0,0,0,3.2-.3,5.13,5.13,0,0,0,2.3-1.5,7.5,7.5,0,0,0,1.8-2.8,36.62,36.62,0,0,0,1.3-4.4h1.1l-.9,10.1H614.9V163h5V134.3h-5v-1.2h15.8v1.2h-5.3Z" transform="translate(-4.3 -3.1)"/><path class="cls-1" d="M666.1,154.6h-10l-3.2,8.5h5.8v1.2H647.3v-1.2h4.3l11.5-30.6h.7l11,30.6H679v1.2H664v-1.2h5.1Zm-9.5-1.2h9.1L661.3,141h-.1Z" transform="translate(-4.3 -3.1)"/><path class="cls-1" d="M690.5,163.1V134.4h-5v-1.2h17.2a25.05,25.05,0,0,1,5.5.6,6.68,6.68,0,0,1,3.7,2.4,6.26,6.26,0,0,1,1.6,4.2,6,6,0,0,1-2.3,4.8c-1.5,1.2-4.1,2.1-7.8,2.8v.1a13.39,13.39,0,0,1,6.5,3c1.7,1.5,2.5,3.9,2.5,7.4,0,2,.2,3.3.7,3.9a2.17,2.17,0,0,0,2,.8,6.45,6.45,0,0,0,2-.3v1.2a13.36,13.36,0,0,1-3.9.7c-2.6,0-4.4-.7-5.5-2.1a6.36,6.36,0,0,1-1.5-4.2l.1-3.9a7.39,7.39,0,0,0-1.3-4.1c-.9-1.3-2.9-2-6-2h-2.9v14.7H701v1.2H685.5v-1.2h5Zm5.6-28.7v12.8h4.2a19.92,19.92,0,0,0,4.2-.4,3.62,3.62,0,0,0,2.3-1.9,10,10,0,0,0,.9-4.8,7,7,0,0,0-.9-4,3.22,3.22,0,0,0-2.1-1.5,17.33,17.33,0,0,0-3.2-.3Z" transform="translate(-4.3 -3.1)"/><path class="cls-1" d="M734.4,134.4v13.3h2.8a10.07,10.07,0,0,0,2.5-.3,3.33,3.33,0,0,0,1.9-1.6,7.92,7.92,0,0,0,1-4h1.2V155h-1.2c-.1-2.5-.6-4.1-1.5-4.9a5.51,5.51,0,0,0-3.9-1.2h-2.8v14.2h6.4c3.6,0,6.1-.8,7.5-2.3s2.2-3.8,2.5-7H752l-.3,10.4H723.8v-1.1h5V134.4h-5v-1.2h26.7l.5,8.3h-1.2a9.05,9.05,0,0,0-2.5-5.4c-1.3-1.1-3.4-1.7-6.3-1.7Z" transform="translate(-4.3 -3.1)"/><path class="cls-1" d="M793.5,153.9h-5.3v-1.2h16.3v1.2H800c0,4-1.3,6.8-3.9,8.5a15.51,15.51,0,0,1-8,2.6,12.64,12.64,0,0,1-10.3-4.9,17,17,0,0,1-4.1-11.4,16.44,16.44,0,0,1,4.2-11.4,13.23,13.23,0,0,1,10.5-4.8,11.58,11.58,0,0,1,6.2,1.9,3.38,3.38,0,0,0,1.2.6c.5,0,1-.4,1.5-1.3h1l.3,8.4h-1.2c-1.3-5.6-4.4-8.3-9.2-8.3a7.87,7.87,0,0,0-5.5,1.7,6.78,6.78,0,0,0-2.1,4.2,59.53,59.53,0,0,0-.4,7.3,70.73,70.73,0,0,0,.6,11.3,6.44,6.44,0,0,0,6.7,5.6,9.46,9.46,0,0,0,3.7-.8,3.88,3.88,0,0,0,2-2.5,20.28,20.28,0,0,0,.4-4.9Z" transform="translate(-4.3 -3.1)"/><path class="cls-1" d="M820.9,134.4v13.3h2.8a10.07,10.07,0,0,0,2.5-.3,3.33,3.33,0,0,0,1.9-1.6,7.92,7.92,0,0,0,1-4h1.2V155h-1.2c-.1-2.5-.6-4.1-1.5-4.9a5.51,5.51,0,0,0-3.9-1.2h-2.8v14.2h6.4c3.6,0,6.1-.8,7.5-2.3s2.2-3.8,2.5-7h1.2l-.3,10.4H810.3v-1.1h5V134.4h-5v-1.2H837l.5,8.3h-1.2a9.05,9.05,0,0,0-2.5-5.4c-1.3-1.1-3.4-1.7-6.3-1.7Z" transform="translate(-4.3 -3.1)"/><path class="cls-1" d="M873.5,134.4V165h-1l-20.7-30.7h-.1v28.8H857v1.2H845.9v-1.2h4.7V134.4h-5v-1.2h12l14.7,21.7h.1V134.3h-5.2v-1.2h11.2v1.2h-4.9Z" transform="translate(-4.3 -3.1)"/><path class="cls-1" d="M895.7,134.4v13.3h2.8a10.07,10.07,0,0,0,2.5-.3,3.33,3.33,0,0,0,1.9-1.6,7.92,7.92,0,0,0,1-4h1.2V155h-1.2c-.1-2.5-.6-4.1-1.5-4.9a5.51,5.51,0,0,0-3.9-1.2h-2.8v14.2h6.4c3.6,0,6.1-.8,7.5-2.3s2.2-3.8,2.5-7h1.2l-.3,10.4H885.1v-1.1h5V134.4h-5v-1.2h26.7l.5,8.3h-1.2a9.05,9.05,0,0,0-2.5-5.4c-1.3-1.1-3.4-1.7-6.3-1.7Z" transform="translate(-4.3 -3.1)"/><path class="cls-1" d="M920.6,133.3h26.8l.8,10.6H947c-.7-3.5-1.7-6-2.9-7.3a6.2,6.2,0,0,0-4.8-2h-2.6v28.6h5.6v1.2H925.5v-1.2h5.6V134.5h-2.6a6.2,6.2,0,0,0-4.8,2c-1.2,1.3-2.2,3.8-2.9,7.3h-1.2Z" transform="translate(-4.3 -3.1)"/><path class="cls-1" d="M959.3,163.1V134.4h-5.1v-1.2H970v1.2h-5.2v28.7H970v1.2H954.1v-1.2Z" transform="translate(-4.3 -3.1)"/><path class="cls-1" d="M983.2,163.1V134.4h-4.9v-1.2h15.5v1.2h-5v28.7h5v1.2H978.3v-1.2Zm13.9-29.8H1009v1.2h-4.8L993.7,145l15.2,18.1h3.1v1.2H996.5v-1.2h5.5l-12.7-15.3,13.1-13.4h-5.3Z" transform="translate(-4.3 -3.1)"/><path class="cls-1" d="M262,51.1h16.9L289,84.2h.1l10.2-33.1h16.5v1.8h-7V96.2h7V98H293.6V96.2h7.2V52.1h-.1L286.7,98H285L271,52.1h-.1V96.2h7.2V98H262V96.2h7.1V52.9H262Z" transform="translate(-4.3 -3.1)"/><path class="cls-1" d="M352.8,83.3h-15L333,96.1h8.7v1.8H324.6V96.1h6.5L348.3,50h1.1l16.5,46.1h6.3v1.8H349.7V96.1h7.6Zm-14.4-1.8h13.7l-6.6-18.8h-.1Z" transform="translate(-4.3 -3.1)"/><path class="cls-1" d="M409.6,71.2l18.2,24.9h5.9v1.8H410V96.1h8.1L404.6,77.5,389.8,96.1H399v1.8H380.4V96.1h7.1l15.8-20-17-23.2h-6V51.1h23.5v1.8H396l12.3,16.7,13.4-16.7h-8.1V51.1h17.1v1.8h-6.6Z" transform="translate(-4.3 -3.1)"/><path class="cls-1" d="M437.4,78.2h15.1V84H437.4Z" transform="translate(-4.3 -3.1)"/><path class="cls-1" d="M476.6,76.5V96.2h7.6V98H460.7V96.2h7.5V52.9h-7.5V51.1H485c5.5,0,9.6,1.2,12.4,3.6a11.74,11.74,0,0,1,0,18c-2.8,2.5-7.5,3.7-14,3.7Zm0-23.6V74.7h4.5a28.8,28.8,0,0,0,5.9-.6,7.12,7.12,0,0,0,4.1-3.1c1.1-1.7,1.7-4.3,1.7-7.9,0-3.1-.5-5.5-1.5-6.9a6.24,6.24,0,0,0-3.5-2.7,22.06,22.06,0,0,0-5.1-.5Z" transform="translate(-4.3 -3.1)"/><path class="cls-1" d="M524,52.9V96.2h10.6a25.92,25.92,0,0,0,4.8-.4,8.66,8.66,0,0,0,3.5-2.2,10.25,10.25,0,0,0,2.6-4.2,51.62,51.62,0,0,0,2-6.7h1.7L547.9,98H508.2V96.2h7.4V52.9h-7.4V51.1h23.6v1.8Z" transform="translate(-4.3 -3.1)"/><path class="cls-1" d="M584.8,83.3h-15L565,96.1h8.7v1.8H556.6V96.1h6.5L580.3,50h1.1l16.5,46.1h6.3v1.8H581.7V96.1h7.6Zm-14.4-1.8h13.7l-6.7-18.8h-.1Z" transform="translate(-4.3 -3.1)"/><path class="cls-1" d="M653.9,52.9V99h-1.4L621.4,52.7h-.1V96.2h8V98H612.5V96.2h7V52.9H612V51.1h18l22,32.8h.1v-31h-7.8V51.1h16.8v1.8Z" transform="translate(-4.3 -3.1)"/><path class="cls-1" d="M702.3,50.6V64.5h-1.5c-1.6-8.5-5.9-12.7-12.8-12.7-3.7,0-6.4,1.4-8.1,4.3s-2.5,8.9-2.5,18.1c0,7.6.4,12.7,1.1,15.4a9.23,9.23,0,0,0,3.8,5.8,10.5,10.5,0,0,0,5.9,1.8,11.65,11.65,0,0,0,7.9-3.2c2.5-2.1,4.4-5.5,5.8-10.2h1.7L703,98.2h-1.4a8.38,8.38,0,0,0-2.6-3.8c-3.7,3.1-7.5,4.6-11.4,4.6-5,0-9.5-2.3-13.6-7a25.82,25.82,0,0,1-6.2-17.2,26.86,26.86,0,0,1,6-17.6c4-4.8,8.7-7.2,14-7.2a15.63,15.63,0,0,1,10.8,4.4,28.17,28.17,0,0,0,2.1-3.8Z" transform="translate(-4.3 -3.1)"/><path class="cls-1" d="M720.7,96.1V52.9h-7.4V51.1h23.2v1.8h-7.4V96.2h7.4V98H713.3V96.2h7.4Zm20.8-45h17.8v1.8h-7.2L736.5,68.8l22.8,27.3h4.6v1.8H740.7V96.1h8.1L729.8,73l19.7-20.2h-8Z" transform="translate(-4.3 -3.1)"/><path class="cls-1" d="M767.1,78.2h15.1V84H767.1Z" transform="translate(-4.3 -3.1)"/><path class="cls-1" d="M797.9,96.1V52.9h-7.7V51.1H814v1.8h-7.8V96.2H814V98H790.2V96.2h7.7Z" transform="translate(-4.3 -3.1)"/><path class="cls-1" d="M864.9,52.9V99h-1.4L832.4,52.7h-.1V96.2h8V98H823.5V96.2h7V52.9H823V51.1h18l22,32.8h.1v-31h-7.8V51.1h16.8v1.8Z" transform="translate(-4.3 -3.1)"/><path class="cls-1" d="M908.1,50.6l.2,12.1h-1.7c-2.3-7.3-6.5-10.9-12.4-10.9a10.63,10.63,0,0,0-7.7,2.7,7.9,7.9,0,0,0-2.7,5.6,5.64,5.64,0,0,0,2.3,4.6c1.5,1.3,4.3,2.2,8.3,2.9a38.1,38.1,0,0,1,9.2,2.5,12.55,12.55,0,0,1,5.3,4.9,14.14,14.14,0,0,1,2.1,8,15.92,15.92,0,0,1-4.5,11.5A15.08,15.08,0,0,1,895.3,99a18,18,0,0,1-10.9-4l-3.3,2.9h-1.2V84.8h1.5a19.38,19.38,0,0,0,5.8,9.3,12.49,12.49,0,0,0,8.2,3.1,12.76,12.76,0,0,0,8.1-2.9,9.09,9.09,0,0,0,3.7-7.3,8.45,8.45,0,0,0-2.5-6.2c-1.7-1.7-4.5-2.8-8.3-3.5a45.35,45.35,0,0,1-8.8-2.2,12.51,12.51,0,0,1-7.4-11.4,14.1,14.1,0,0,1,3.8-9.5c2.5-2.8,6-4.2,10.3-4.2a17.12,17.12,0,0,1,10.2,3.4,13.37,13.37,0,0,0,2.3-2.9Z" transform="translate(-4.3 -3.1)"/><path class="cls-1" d="M919.3,51.1h40.2L960.7,67h-1.8c-1.1-5.3-2.6-9-4.4-11.1a9.25,9.25,0,0,0-7.2-3.1h-3.8V96.1h8.4v1.8H926.7V96.1h8.4V52.9h-3.8a9.06,9.06,0,0,0-7.2,3.1c-1.8,2-3.3,5.7-4.4,11.1h-1.8Z" transform="translate(-4.3 -3.1)"/><path class="cls-1" d="M976.5,96.1V52.9h-7.7V51.1h23.8v1.8h-7.8V96.2h7.8V98H968.7V96.2h7.8Z" transform="translate(-4.3 -3.1)"/><path class="cls-1" d="M1001.8,51.1H1042l1.2,15.9h-1.8c-1.1-5.3-2.6-9-4.4-11.1a9.25,9.25,0,0,0-7.2-3.1H1026V96.1h8.4v1.8h-25.2V96.1h8.4V52.9h-3.8a9.06,9.06,0,0,0-7.2,3.1c-1.8,2-3.3,5.7-4.4,11.1h-1.8Z" transform="translate(-4.3 -3.1)"/><path class="cls-1" d="M1090.6,52.9h-7.7V51.1h16.8v1.8h-7.4V81.2a34.74,34.74,0,0,1-.9,9.1,9.94,9.94,0,0,1-3.4,4.9,14.2,14.2,0,0,1-5.9,2.9,28.2,28.2,0,0,1-7.1.9c-5.2,0-8.9-.8-11.3-2.4a9.67,9.67,0,0,1-4.4-5.9,43,43,0,0,1-.8-9.5V52.9h-6.8V51.1h22.6v1.8h-7.4V80.4a52.56,52.56,0,0,0,.5,8.9,9.15,9.15,0,0,0,2.8,5.4c1.5,1.4,4,2.2,7.3,2.2a15.65,15.65,0,0,0,7.3-1.7,9.17,9.17,0,0,0,4.5-4.4c.9-1.9,1.3-5.3,1.3-10.4Z" transform="translate(-4.3 -3.1)"/><path class="cls-1" d="M1108.6,51.1h40.2L1150,67h-1.8c-1.1-5.3-2.6-9-4.4-11.1a9.25,9.25,0,0,0-7.2-3.1h-3.8V96.1h8.4v1.8H1116V96.1h8.4V52.9h-3.8a9.06,9.06,0,0,0-7.2,3.1c-1.8,2-3.2,5.7-4.3,11.1h-1.8Z" transform="translate(-4.3 -3.1)"/><g id="Logo"><path class="cls-1" d="M202.2,197.8a4.2,4.2,0,1,0,4.2,4.2h0a4.23,4.23,0,0,0-4.2-4.2Zm-11.4,0A4.2,4.2,0,1,0,195,202h0A4.23,4.23,0,0,0,190.8,197.8Zm-11.4,0a4.2,4.2,0,1,0,4.2,4.2h0A4.23,4.23,0,0,0,179.4,197.8Zm-11.4-.1a4.27,4.27,0,0,0-4.3,4.3,4.35,4.35,0,0,0,8.7.1h0a4.44,4.44,0,0,0-4.4-4.4Zm-22.8-.7a5,5,0,1,0,5,5A5,5,0,0,0,145.2,197Zm-11.4,1.2a3.8,3.8,0,1,0,3.8,3.8h0A3.8,3.8,0,0,0,133.8,198.2Zm-11.4,1.2A2.6,2.6,0,1,0,125,202h0A2.58,2.58,0,0,0,122.4,199.4Zm-11.4,0a2.6,2.6,0,1,0,2.6,2.6h0A2.58,2.58,0,0,0,111,199.4Zm-11.3,0a2.6,2.6,0,1,0,2.6,2.6h0A2.65,2.65,0,0,0,99.7,199.4Zm-11.4-.1A2.7,2.7,0,1,0,91,202a2.69,2.69,0,0,0-2.7-2.7Zm-11.4-.9a3.6,3.6,0,1,0,3.6,3.6,3.72,3.72,0,0,0-3.6-3.6Zm-11.4-1.2a4.8,4.8,0,1,0,4.8,4.8h0a4.74,4.74,0,0,0-4.8-4.8Zm-11.4,0a4.8,4.8,0,1,0,4.8,4.8h0A4.8,4.8,0,0,0,54.1,197.2Zm-11.4.1a4.6,4.6,0,1,0,4.6,4.6h0A4.65,4.65,0,0,0,42.7,197.3Zm-11.4.4a4.2,4.2,0,1,0,4.2,4.2h0A4.23,4.23,0,0,0,31.3,197.7Zm-11.4,0a4.2,4.2,0,1,0,4.2,4.2h0A4.23,4.23,0,0,0,19.9,197.7Zm-11.4,0a4.2,4.2,0,1,0,4.2,4.2h0A4.16,4.16,0,0,0,8.5,197.7Zm193.6-11.4a4.2,4.2,0,1,0,4.2,4.2h0a4.23,4.23,0,0,0-4.2-4.2Zm-11.4,0a4.2,4.2,0,1,0,4.2,4.2h0A4.23,4.23,0,0,0,190.7,186.3Zm-11.4,0a4.2,4.2,0,1,0,4.2,4.2h0A4.16,4.16,0,0,0,179.3,186.3Zm-45.5,6.9a2.6,2.6,0,1,0-2.6-2.6h0A2.58,2.58,0,0,0,133.8,193.2Zm-11.4-5.3a2.6,2.6,0,1,0,2.6,2.6h0A2.65,2.65,0,0,0,122.4,187.9Zm-11.3,5.2a2.5,2.5,0,1,0-2.5-2.5h0a2.48,2.48,0,0,0,2.5,2.5Zm-11.4,0a2.5,2.5,0,1,0-2.5-2.5h0a2.48,2.48,0,0,0,2.5,2.5Zm-11.4.2a2.6,2.6,0,1,0-2.6-2.6h0A2.58,2.58,0,0,0,88.3,193.3Zm-11.4-7a4.3,4.3,0,1,0,4.3,4.3h0A4.33,4.33,0,0,0,76.9,186.3Zm-22.8-.9a5.2,5.2,0,1,0,5.2,5.2h0a5.23,5.23,0,0,0-5.2-5.2Zm-11.4,9.5a4.2,4.2,0,1,0-4.2-4.2h0A4.23,4.23,0,0,0,42.7,194.9Zm-11.3-8.5a4.2,4.2,0,1,0,4.2,4.2h0A4.23,4.23,0,0,0,31.4,186.4Zm-11.4,0a4.2,4.2,0,1,0,4.2,4.2h0A4.23,4.23,0,0,0,20,186.4Zm-11.4,0a4.2,4.2,0,1,0,4.2,4.2h0A4.23,4.23,0,0,0,8.6,186.4ZM202.2,175a4.2,4.2,0,1,0,4.2,4.2h0A4.23,4.23,0,0,0,202.2,175Zm-11.4,0a4.2,4.2,0,1,0,4.2,4.2h0A4.23,4.23,0,0,0,190.8,175Zm-11.4,0a4.2,4.2,0,1,0,4.2,4.2h0A4.23,4.23,0,0,0,179.4,175Zm-39.9-20.8a6.26,6.26,0,0,0-3.2-3.4,6.37,6.37,0,0,0,3.6-4.1,5.49,5.49,0,0,0,4.1,3.7,6.38,6.38,0,0,0-4.5,3.8Zm-11.7,1.4a5.24,5.24,0,0,0-3.9-4.4,3.74,3.74,0,0,1,7.4-.4A6.26,6.26,0,0,0,127.8,155.6Zm35.7,26.8a5.53,5.53,0,1,0,1.4-7.7,6.2,6.2,0,0,0-1.4,1.4,7.37,7.37,0,0,0-3-3.3,6.19,6.19,0,0,0-7.7-9.7,6.58,6.58,0,0,0-2.1,2.9,5.7,5.7,0,0,0-3.8-3.6,6.13,6.13,0,0,0,4.1-7.6,5.81,5.81,0,0,0-4.7-4.2,5.57,5.57,0,1,0-2.3-10.9,5.49,5.49,0,0,0-4.1,3.7,20.29,20.29,0,0,1-17.5-4.6,6.41,6.41,0,0,0-5.9,4,6,6,0,1,0-11.1,4.5,6,6,0,0,0,4.4,3.6,5.67,5.67,0,1,0,6.7,4.4,5.82,5.82,0,0,0-4.4-4.4,6.09,6.09,0,0,0,4.3-3.5,6.6,6.6,0,0,0,4.4,3.9,5.45,5.45,0,0,0,2.9,10.5,5.36,5.36,0,0,0,3.9-4.4,13.9,13.9,0,0,1,15.7,5.1,5.85,5.85,0,0,0,3.4,11.2,5.7,5.7,0,0,0,3.8-3.6,6.34,6.34,0,0,0,2.1,3,7.71,7.71,0,0,0-3.5,4.6,4.42,4.42,0,0,0-5.9-2.2,4.45,4.45,0,1,0,3.7,8.1,4,4,0,0,0,2.2-2.2,7.22,7.22,0,0,0,2.6,4,7.77,7.77,0,0,0-2.5,4.9,4.24,4.24,0,1,0,0,1.2,7.09,7.09,0,0,0,4.9,6.3A5.12,5.12,0,1,0,161,200a5.19,5.19,0,0,0-2.2-2.2,7.43,7.43,0,0,0,4.4-4.1,5.4,5.4,0,1,0,1.9-7.4,5,5,0,0,0-1.9,1.9,6.9,6.9,0,0,0-2-2.8,18.54,18.54,0,0,0,2.3-3Zm-29.7-.7a2.5,2.5,0,1,0-2.5-2.5h0a2.69,2.69,0,0,0,2.5,2.5Zm-11.4-5.1a2.6,2.6,0,1,0,2.6,2.6h0A2.52,2.52,0,0,0,122.4,176.6Zm-11.3,5a2.3,2.3,0,1,0-2.3-2.3h0A2.26,2.26,0,0,0,111.1,181.6Zm-11.4-5.1a2.7,2.7,0,1,0,2.7,2.7,2.69,2.69,0,0,0-2.7-2.7Zm-11.4-2.1a4.8,4.8,0,1,0,4.8,4.8,4.87,4.87,0,0,0-4.8-4.8Zm-11.4-1.3a6.17,6.17,0,0,0-6.1,5.5,5.3,5.3,0,1,0-5.7,6.1,6.12,6.12,0,1,0,1,0,5.32,5.32,0,0,0,4.8-4.6,6.14,6.14,0,1,0,12.2-1.4,6.19,6.19,0,0,0-6.2-5.6ZM54.1,175a4.2,4.2,0,1,0,4.2,4.2h0A4.23,4.23,0,0,0,54.1,175Zm-11.4,8.4a4.2,4.2,0,1,0-4.2-4.2h0A4.16,4.16,0,0,0,42.7,183.4ZM31.4,175a4.2,4.2,0,1,0,4.2,4.2h0A4.23,4.23,0,0,0,31.4,175ZM20,175a4.2,4.2,0,1,0,4.2,4.2h0A4.23,4.23,0,0,0,20,175ZM8.6,175a4.2,4.2,0,1,0,4.2,4.2h0A4.23,4.23,0,0,0,8.6,175Zm193.6-11.4a4.2,4.2,0,1,0,4.2,4.2h0a4.23,4.23,0,0,0-4.2-4.2Zm-11.4,0a4.2,4.2,0,1,0,4.2,4.2h0A4.16,4.16,0,0,0,190.8,163.6Zm-11.4,0a4.2,4.2,0,1,0,4.2,4.2h0A4.16,4.16,0,0,0,179.4,163.6Zm-11.4,9a4.75,4.75,0,1,0-4.7-4.8h0a4.72,4.72,0,0,0,4.7,4.8ZM133.8,164a3.8,3.8,0,1,0,3.8,3.8h0a3.8,3.8,0,0,0-3.8-3.8Zm-11.4,1.1a2.6,2.6,0,1,0,2.6,2.6h0A2.58,2.58,0,0,0,122.4,165.1Zm-11.3-1.6a4.2,4.2,0,1,0,4.2,4.2h0A4.23,4.23,0,0,0,111.1,163.5Zm-11.4-1.2a5.4,5.4,0,1,0,5.4,5.4h0a5.38,5.38,0,0,0-5.4-5.4Zm-11.4-.5a6,6,0,1,0,6,6A6,6,0,0,0,88.3,161.8Zm-11.4,11a5,5,0,1,0-5-5A5,5,0,0,0,76.9,172.8Zm-11.4-9.3a4.2,4.2,0,1,0,4.2,4.2h0A4.23,4.23,0,0,0,65.5,163.5Zm-11.4,0a4.2,4.2,0,1,0,4.2,4.2h0A4.23,4.23,0,0,0,54.1,163.5Zm-11.4,8.4a4.2,4.2,0,1,0-4.2-4.2h0A4.16,4.16,0,0,0,42.7,171.9Zm-11.3-8.3a4.2,4.2,0,1,0,4.2,4.2h0A4.16,4.16,0,0,0,31.4,163.6Zm-11.4,0a4.2,4.2,0,1,0,4.2,4.2h0A4.16,4.16,0,0,0,20,163.6Zm-11.4,0a4.2,4.2,0,1,0,4.2,4.2h0A4.16,4.16,0,0,0,8.6,163.6Zm193.6-11.5a4.2,4.2,0,1,0,4.2,4.2h0A4.23,4.23,0,0,0,202.2,152.1Zm-11.4,0a4.2,4.2,0,1,0,4.2,4.2h0A4.23,4.23,0,0,0,190.8,152.1Zm-11.4,0a4.2,4.2,0,1,0,4.2,4.2h0A4.23,4.23,0,0,0,179.4,152.1ZM168,160.6a4.2,4.2,0,1,0-4.2-4.2h0a4.16,4.16,0,0,0,4.2,4.2Zm-11.4.8a5,5,0,1,0-5-5A5,5,0,0,0,156.6,161.4Zm-57,.1a5.2,5.2,0,1,0-5.2-5.2h0a5.29,5.29,0,0,0,5.2,5.2Zm-11.3-9.4a4.2,4.2,0,1,0,4.2,4.2h0A4.23,4.23,0,0,0,88.3,152.1Zm-11.4,8.5a4.2,4.2,0,1,0-4.2-4.2h0A4.23,4.23,0,0,0,76.9,160.6Zm-11.4-8.5a4.2,4.2,0,1,0,4.2,4.2h0A4.23,4.23,0,0,0,65.5,152.1Zm-11.4,0a4.2,4.2,0,1,0,4.2,4.2h0A4.23,4.23,0,0,0,54.1,152.1Zm-11.4,8.5a4.2,4.2,0,1,0-4.2-4.2h0A4.23,4.23,0,0,0,42.7,160.6Zm-11.3-8.5a4.2,4.2,0,1,0,4.2,4.2h0A4.23,4.23,0,0,0,31.4,152.1Zm-11.4,0a4.2,4.2,0,1,0,4.2,4.2h0A4.23,4.23,0,0,0,20,152.1Zm-11.4,0a4.2,4.2,0,1,0,4.2,4.2h0A4.23,4.23,0,0,0,8.6,152.1Zm193.6-11.4a4.2,4.2,0,1,0,4.2,4.2h0a4.23,4.23,0,0,0-4.2-4.2Zm-11.4,0a4.2,4.2,0,1,0,4.2,4.2h0A4.23,4.23,0,0,0,190.8,140.7Zm-11.4,0a4.2,4.2,0,1,0,4.2,4.2h0A4.23,4.23,0,0,0,179.4,140.7ZM168,149.1a4.2,4.2,0,1,0-4.2-4.2h0a4.16,4.16,0,0,0,4.2,4.2Zm-11.4,0a4.2,4.2,0,1,0-4.2-4.2h0a4.16,4.16,0,0,0,4.2,4.2Zm-56.9.9a5,5,0,1,0-5-5A5,5,0,0,0,99.7,150Zm-11.4-9.3a4.2,4.2,0,1,0,4.2,4.2h0A4.23,4.23,0,0,0,88.3,140.7Zm-11.4,8.4a4.2,4.2,0,1,0-4.2-4.2h0A4.16,4.16,0,0,0,76.9,149.1Zm-11.4-8.4a4.2,4.2,0,1,0,4.2,4.2h0A4.23,4.23,0,0,0,65.5,140.7Zm-11.4,0a4.2,4.2,0,1,0,4.2,4.2h0A4.23,4.23,0,0,0,54.1,140.7Zm-11.4,8.4a4.2,4.2,0,1,0-4.2-4.2h0A4.16,4.16,0,0,0,42.7,149.1Zm-11.3-8.4a4.2,4.2,0,1,0,4.2,4.2h0A4.23,4.23,0,0,0,31.4,140.7Zm-11.4,0a4.2,4.2,0,1,0,4.2,4.2h0A4.23,4.23,0,0,0,20,140.7Zm-11.4,0a4.2,4.2,0,1,0,4.2,4.2h0A4.23,4.23,0,0,0,8.6,140.7Zm193.6-11.4a4.2,4.2,0,1,0,4.2,4.2h0a4.23,4.23,0,0,0-4.2-4.2Zm-11.4,0a4.2,4.2,0,1,0,4.2,4.2h0a4.23,4.23,0,0,0-4.2-4.2Zm-11.4,0a4.2,4.2,0,1,0,4.2,4.2h0a4.23,4.23,0,0,0-4.2-4.2ZM168,137.8a4.2,4.2,0,1,0-4.2-4.2h0a4.23,4.23,0,0,0,4.2,4.2Zm-22.8,1.6a5.8,5.8,0,1,0-5.8-5.8h0a5.8,5.8,0,0,0,5.8,5.8Zm-11.4-1.6a4.2,4.2,0,1,0-4.2-4.2h0A4.23,4.23,0,0,0,133.8,137.8Zm-15.6-4.3a4.2,4.2,0,1,0,4.2-4.2A4.23,4.23,0,0,0,118.2,133.5Zm-7.1,5.2a5.15,5.15,0,1,0-5-5.9,6.39,6.39,0,0,0-12.5-1,5.57,5.57,0,1,0-3.6,7,5.85,5.85,0,0,0,3.6-3.6,6.46,6.46,0,0,0,7.9,4.4,6.32,6.32,0,0,0,4.6-5.4,5.08,5.08,0,0,0,5,4.5ZM76.9,128.5a5,5,0,1,0,5,5h0A5,5,0,0,0,76.9,128.5Zm-11.4.8a4.2,4.2,0,1,0,4.2,4.2h0A4.23,4.23,0,0,0,65.5,129.3Zm-11.4,0a4.2,4.2,0,1,0,4.2,4.2h0A4.23,4.23,0,0,0,54.1,129.3Zm-11.4,8.5a4.2,4.2,0,1,0-4.2-4.2h0A4.23,4.23,0,0,0,42.7,137.8Zm-11.3-8.5a4.2,4.2,0,1,0,4.2,4.2h0A4.23,4.23,0,0,0,31.4,129.3Zm-11.4,0a4.2,4.2,0,1,0,4.2,4.2h0A4.23,4.23,0,0,0,20,129.3Zm-11.4,0a4.2,4.2,0,1,0,4.2,4.2h0a4.23,4.23,0,0,0-4.2-4.2Zm193.6-11.4a4.2,4.2,0,1,0,4.2,4.2h0a4.23,4.23,0,0,0-4.2-4.2Zm-11.4,0a4.2,4.2,0,1,0,4.2,4.2h0A4.23,4.23,0,0,0,190.8,117.9Zm-11.4,0a4.2,4.2,0,1,0,4.2,4.2h0A4.23,4.23,0,0,0,179.4,117.9Zm-34.2,0a4.2,4.2,0,1,0,4.2,4.2h0A4.23,4.23,0,0,0,145.2,117.9Zm-11.4,1.6a2.6,2.6,0,1,0,2.6,2.6h0A2.58,2.58,0,0,0,133.8,119.5Zm-11.4,5.4a2.7,2.7,0,1,0-2.7-2.7h0A2.75,2.75,0,0,0,122.4,124.9Zm-11.3.1a2.9,2.9,0,1,0-2.9-2.9h0A2.9,2.9,0,0,0,111.1,125Zm-11.4,1.3a4.2,4.2,0,1,0-4.2-4.2h0A4.1,4.1,0,0,0,99.7,126.3Zm-45.6-8.4a4.25,4.25,0,1,0,4.3,4.3,4.25,4.25,0,0,0-4.3-4.3Zm-11.4,8.4a4.2,4.2,0,1,0-4.2-4.2h0A4.16,4.16,0,0,0,42.7,126.3Zm-11.3-8.4a4.2,4.2,0,1,0,4.2,4.2h0A4.23,4.23,0,0,0,31.4,117.9Zm-11.4,0a4.2,4.2,0,1,0,4.2,4.2h0A4.23,4.23,0,0,0,20,117.9Zm-11.4,0a4.2,4.2,0,1,0,4.2,4.2h0A4.23,4.23,0,0,0,8.6,117.9Zm193.6-11.4a4.2,4.2,0,1,0,4.2,4.2h0a4.23,4.23,0,0,0-4.2-4.2Zm-11.4,0a4.2,4.2,0,1,0,4.2,4.2h0A4.23,4.23,0,0,0,190.8,106.5Zm-11.4,0a4.2,4.2,0,1,0,4.2,4.2h0A4.23,4.23,0,0,0,179.4,106.5Zm-20.1-2a5.79,5.79,0,1,0-7.8-2.5,5.5,5.5,0,0,0,2.5,2.5,6.78,6.78,0,0,0-.8,12,6.65,6.65,0,0,0,1.4,11.9,5.58,5.58,0,1,0,4.3,10.3,5.58,5.58,0,0,0,0-10.3,6.55,6.55,0,0,0,4.4-5.1,5,5,0,1,0,0-2.3,6.68,6.68,0,0,0-3-4.5,6.77,6.77,0,0,0,3.1-4.3,5,5,0,1,0,0-2.9,7.1,7.1,0,0,0-4.1-4.8Zm-14,2a4.2,4.2,0,1,0,4.2,4.2h0A4.23,4.23,0,0,0,145.3,106.5Zm-11.5,1.6a2.6,2.6,0,1,0,2.6,2.6h0A2.58,2.58,0,0,0,133.8,108.1Zm-11.4,5.2a2.6,2.6,0,1,0-2.6-2.6h0A2.58,2.58,0,0,0,122.4,113.3Zm-11.3-5.1a2.5,2.5,0,1,0,2.5,2.5h0a2.77,2.77,0,0,0-2.5-2.5Zm-11.4,0a2.5,2.5,0,1,0,2.5,2.5h0a2.77,2.77,0,0,0-2.5-2.5ZM88.3,114a3.3,3.3,0,1,0-3.3-3.3h0A3.33,3.33,0,0,0,88.3,114ZM60.5,101a5.17,5.17,0,0,0,3.3,3.3,6.52,6.52,0,0,0-4.6,4.5,5.27,5.27,0,0,0-3.1-3.1A6.91,6.91,0,0,0,60.5,101ZM59.2,78.4a6.71,6.71,0,0,0,4.6,4.5,5.4,5.4,0,0,0-3.3,3.3A6.52,6.52,0,0,0,56,81.6,5.9,5.9,0,0,0,59.2,78.4ZM70.4,52.9a4.88,4.88,0,0,0-4.2-4.2,6.6,6.6,0,0,0,5.7-5.1,5.31,5.31,0,0,0,3.7,3.7,6.47,6.47,0,0,0-5.2,5.6ZM48.7,110.7a5.43,5.43,0,0,0,10.5,1.9,6.71,6.71,0,0,0,4.6,4.5,5.28,5.28,0,0,0,3.4,10,5.36,5.36,0,0,0,3.5-3.8,6.43,6.43,0,0,0,7.4,5.1,6.33,6.33,0,0,0,4.9-4.3,5.69,5.69,0,1,0,3.4-7.3,5.71,5.71,0,0,0-3.4,3.4,6.36,6.36,0,0,0-12.3.8,5.23,5.23,0,0,0-3.4-3.8,6.56,6.56,0,0,0,4.8-5.2,5,5,0,1,0,0-2.3,6.57,6.57,0,0,0-4.8-5.2,5.28,5.28,0,1,0-6.7-6.7,6.38,6.38,0,0,0-3-4,6.38,6.38,0,0,0,3-4,5.28,5.28,0,0,0,10-3.4,5.4,5.4,0,0,0-3.3-3.3,6.61,6.61,0,0,0,.3-12.7,5.41,5.41,0,0,0,3.3-3.6,6.31,6.31,0,0,0,7.6,4.7,6.12,6.12,0,0,0,4.7-4.7A5.45,5.45,0,1,0,87,60.1a5.58,5.58,0,0,0-3.8,3.8A6.48,6.48,0,0,0,80,59.7a6.89,6.89,0,0,0,3-3.3,5.92,5.92,0,0,0,7.9,2.9A6.09,6.09,0,0,0,94,55.9a6.38,6.38,0,0,0,3.9,3.8,5.82,5.82,0,1,0,7.4,3.6,5.85,5.85,0,0,0-3.6-3.6,6.23,6.23,0,0,0,4.2-4.8,5.41,5.41,0,1,0,4.2-6.4,5.34,5.34,0,0,0-4.2,4.2,6.11,6.11,0,0,0-7.1-5,6,6,0,0,0-4.7,4,5.94,5.94,0,0,0-7.6-3.6,6.09,6.09,0,0,0-3.4,3.1,6.29,6.29,0,0,0-4.7-3.8,5.23,5.23,0,1,0-2.7-10.1A5.31,5.31,0,0,0,72,41a6.37,6.37,0,0,0-4.3-4.8,5.61,5.61,0,1,0-4.2,0A6.2,6.2,0,0,0,59,41.5,5,5,0,1,0,49.1,43,5,5,0,0,0,59,43a6.59,6.59,0,0,0,5.8,5.8,5.1,5.1,0,0,0-4.3,5.6,5,5,0,0,0,5.6,4.3,5,5,0,0,0,4.3-4.3,6.3,6.3,0,0,0,3.5,5.1,6.48,6.48,0,0,0-3.2,4.2,5.45,5.45,0,1,0-7.2,6.5,6.48,6.48,0,0,0-4.4,4.4A5.41,5.41,0,0,0,49,78.5a5.55,5.55,0,0,0,3.1,3.1,6.66,6.66,0,0,0-1.4,12.1,6.57,6.57,0,0,0-2.3,9.1,6.27,6.27,0,0,0,3.7,2.9,5.35,5.35,0,0,0-3.4,5Zm-6,4.2a4.2,4.2,0,1,0-4.2-4.2h0A4.23,4.23,0,0,0,42.7,114.9Zm-11.3-8.4a4.2,4.2,0,1,0,4.2,4.2h0A4.23,4.23,0,0,0,31.4,106.5Zm-11.4,0a4.2,4.2,0,1,0,4.2,4.2h0A4.23,4.23,0,0,0,20,106.5Zm-11.4,0a4.2,4.2,0,1,0,4.2,4.2h0A4.23,4.23,0,0,0,8.6,106.5ZM202.2,95.1a4.2,4.2,0,1,0,4.2,4.2h0a4.23,4.23,0,0,0-4.2-4.2Zm-11.4,0a4.2,4.2,0,1,0,4.2,4.2h0A4.23,4.23,0,0,0,190.8,95.1Zm-11.4,0a4.2,4.2,0,1,0,4.2,4.2h0A4.23,4.23,0,0,0,179.4,95.1Zm-11.4,0a4.2,4.2,0,1,0,4.2,4.2h0A4.23,4.23,0,0,0,168,95.1Zm-22.8-1.3a5.6,5.6,0,1,0,5.6,5.6h0A5.59,5.59,0,0,0,145.2,93.8Zm-11.4,2a3.56,3.56,0,0,0-3.6,3.5,3.63,3.63,0,0,0,3.5,3.6,3.56,3.56,0,0,0,3.6-3.5h0A3.44,3.44,0,0,0,133.8,95.8Zm-11.4,6.1a2.6,2.6,0,1,0-2.6-2.6h0A2.58,2.58,0,0,0,122.4,101.9ZM111,96.7a2.6,2.6,0,1,0,2.6,2.6h0A2.58,2.58,0,0,0,111,96.7Zm-11.4,0a2.6,2.6,0,1,0,2.6,2.6h0A2.52,2.52,0,0,0,99.6,96.7Zm-11.3,5.4a2.7,2.7,0,1,0-2.7-2.7h0A2.63,2.63,0,0,0,88.3,102.1Zm-11.4.1A2.9,2.9,0,1,0,74,99.3h0A2.9,2.9,0,0,0,76.9,102.2ZM42.7,94.7a4.6,4.6,0,0,0,0,9.2,4.65,4.65,0,0,0,4.6-4.6h0A4.65,4.65,0,0,0,42.7,94.7Zm-11.3.4a4.2,4.2,0,1,0,4.2,4.2h0A4.23,4.23,0,0,0,31.4,95.1ZM20,95.1a4.2,4.2,0,1,0,4.2,4.2h0A4.23,4.23,0,0,0,20,95.1Zm-11.4,0a4.2,4.2,0,1,0,4.2,4.2h0A4.23,4.23,0,0,0,8.6,95.1ZM202.2,83.7a4.2,4.2,0,1,0,4.2,4.2h0a4.23,4.23,0,0,0-4.2-4.2Zm-11.4,0a4.2,4.2,0,1,0,4.2,4.2h0A4.23,4.23,0,0,0,190.8,83.7Zm-11.4,0a4.2,4.2,0,1,0,4.2,4.2h0A4.23,4.23,0,0,0,179.4,83.7Zm-11.4,0a4.2,4.2,0,1,0,4.2,4.2h0A4.23,4.23,0,0,0,168,83.7Zm-11.4,8.8a4.6,4.6,0,0,0,0-9.2,4.65,4.65,0,0,0-4.6,4.6h0A4.59,4.59,0,0,0,156.6,92.5Zm-11.4,1.1a5.7,5.7,0,1,0-5.7-5.7h0a5.7,5.7,0,0,0,5.7,5.7Zm-11.4,0a5.7,5.7,0,1,0-5.7-5.7h0a5.7,5.7,0,0,0,5.7,5.7Zm-11.4-9.9a4.2,4.2,0,1,0,4.2,4.2h0A4.16,4.16,0,0,0,122.4,83.7Zm-11.3,1.4a2.7,2.7,0,1,0,2.7,2.7h0A2.69,2.69,0,0,0,111.1,85.1Zm-11.4.1a2.6,2.6,0,1,0,2.6,2.6h0A2.65,2.65,0,0,0,99.7,85.2ZM88.3,90.5a2.6,2.6,0,1,0-2.6-2.6h0A2.58,2.58,0,0,0,88.3,90.5Zm-11.4.2a2.9,2.9,0,0,0,0-5.8A3,3,0,0,0,74,87.8h0a2.9,2.9,0,0,0,2.9,2.9ZM42.7,83.2a4.6,4.6,0,0,0,0,9.2,4.65,4.65,0,0,0,4.6-4.6h0A4.59,4.59,0,0,0,42.7,83.2Zm-11.4.4a4.2,4.2,0,1,0,4.2,4.2h0A4.1,4.1,0,0,0,31.3,83.6ZM20,83.6a4.2,4.2,0,1,0,4.2,4.2h0A4.23,4.23,0,0,0,20,83.6Zm-11.4,0a4.2,4.2,0,1,0,4.2,4.2h0A4.23,4.23,0,0,0,8.6,83.6ZM202.1,72.2a4.2,4.2,0,1,0,4.2,4.2h0a4.1,4.1,0,0,0-4.2-4.2Zm-11.3,0a4.2,4.2,0,1,0,4.2,4.2h0A4.23,4.23,0,0,0,190.8,72.2Zm-11.4,0a4.2,4.2,0,1,0,4.2,4.2h0A4.23,4.23,0,0,0,179.4,72.2Zm-11.4,0a4.2,4.2,0,1,0,4.2,4.2h0A4.23,4.23,0,0,0,168,72.2Zm-11.4,8.5a4.2,4.2,0,1,0-4.2-4.2h0a4.16,4.16,0,0,0,4.2,4.2Zm-11.4-8.5a4.2,4.2,0,1,0,4.2,4.2h0A4.23,4.23,0,0,0,145.2,72.2Zm-11.4,9.4a5.23,5.23,0,0,0,5.2-5.2,5.16,5.16,0,0,0-5.2-5.2,5.23,5.23,0,0,0-5.2,5.2h0a5.16,5.16,0,0,0,5.2,5.2Zm-11.4.5a5.7,5.7,0,1,0-5.7-5.7h0a5.7,5.7,0,0,0,5.7,5.7ZM116,76.4a5,5,0,1,0-5,5A5,5,0,0,0,116,76.4ZM99.6,72.8a3.69,3.69,0,0,0-3.7,3.7,3.63,3.63,0,0,0,3.7,3.7,3.69,3.69,0,0,0,3.7-3.7,3.63,3.63,0,0,0-3.7-3.7Zm-11.3.5a3.15,3.15,0,1,0,3.1,3.2h0a3.14,3.14,0,0,0-3.1-3.2Zm-6.8,3.2a4.6,4.6,0,1,0-4.6,4.6A4.65,4.65,0,0,0,81.5,76.5ZM42.7,80.7a4.2,4.2,0,1,0-4.2-4.2h0A4.23,4.23,0,0,0,42.7,80.7ZM31.4,72.3a4.2,4.2,0,1,0,4.2,4.2h0A4.16,4.16,0,0,0,31.4,72.3ZM20,72.3a4.2,4.2,0,1,0,4.2,4.2h0A4.16,4.16,0,0,0,20,72.3Zm-11.4,0a4.2,4.2,0,1,0,4.2,4.2h0A4.16,4.16,0,0,0,8.6,72.3ZM202.2,60.8a4.2,4.2,0,1,0,4.2,4.2h0a4.29,4.29,0,0,0-4.2-4.2Zm-11.4,0A4.2,4.2,0,1,0,195,65h0A4.29,4.29,0,0,0,190.8,60.8Zm-11.4,0a4.2,4.2,0,1,0,4.2,4.2h0A4.29,4.29,0,0,0,179.4,60.8Zm-11.4,0a4.2,4.2,0,1,0,4.2,4.2h0A4.29,4.29,0,0,0,168,60.8Zm-11.4,8.5a4.2,4.2,0,1,0-4.2-4.2h0a4.23,4.23,0,0,0,4.2,4.2Zm-11.4-8.5a4.2,4.2,0,1,0,4.2,4.2h0A4.29,4.29,0,0,0,145.2,60.8Zm-11.4,8.5a4.2,4.2,0,1,0-4.2-4.2h0A4.23,4.23,0,0,0,133.8,69.3Zm-11.4,0a4.2,4.2,0,1,0-4.2-4.2h0A4.23,4.23,0,0,0,122.4,69.3ZM111,59.8a5.3,5.3,0,1,0,5.3,5.3h0A5.21,5.21,0,0,0,111,59.8ZM54.1,69.3a4.2,4.2,0,1,0-4.2-4.2h0A4.23,4.23,0,0,0,54.1,69.3Zm-11.4,0a4.2,4.2,0,1,0-4.2-4.2h0A4.23,4.23,0,0,0,42.7,69.3ZM31.4,60.8A4.2,4.2,0,1,0,35.6,65h0A4.29,4.29,0,0,0,31.4,60.8ZM20,60.8A4.2,4.2,0,1,0,24.2,65h0A4.29,4.29,0,0,0,20,60.8Zm-11.4,0A4.2,4.2,0,1,0,12.8,65h0A4.29,4.29,0,0,0,8.6,60.8ZM202.2,49.4a4.2,4.2,0,1,0,4.2,4.2h0a4.23,4.23,0,0,0-4.2-4.2Zm-11.4,0a4.2,4.2,0,1,0,4.2,4.2h0A4.23,4.23,0,0,0,190.8,49.4Zm-11.4,0a4.2,4.2,0,1,0,4.2,4.2h0A4.23,4.23,0,0,0,179.4,49.4Zm-11.4,0a4.2,4.2,0,1,0,4.2,4.2h0A4.23,4.23,0,0,0,168,49.4Zm-11.4,8.5a4.2,4.2,0,1,0-4.2-4.2h0a4.23,4.23,0,0,0,4.2,4.2Zm-11.4-8.5a4.2,4.2,0,1,0,4.2,4.2h0A4.23,4.23,0,0,0,145.2,49.4Zm-11.4,8.5a4.2,4.2,0,1,0-4.2-4.2h0A4.23,4.23,0,0,0,133.8,57.9Zm-11.4,0a4.2,4.2,0,1,0-4.2-4.2h0A4.23,4.23,0,0,0,122.4,57.9Zm-68.3,0a4.2,4.2,0,1,0-4.2-4.2h0A4.23,4.23,0,0,0,54.1,57.9Zm-11.4,0a4.2,4.2,0,1,0-4.2-4.2h0A4.23,4.23,0,0,0,42.7,57.9ZM31.4,49.4a4.2,4.2,0,1,0,4.2,4.2h0A4.23,4.23,0,0,0,31.4,49.4ZM20,49.4a4.2,4.2,0,1,0,4.2,4.2h0A4.23,4.23,0,0,0,20,49.4Zm-11.4,0a4.2,4.2,0,1,0,4.2,4.2h0A4.23,4.23,0,0,0,8.6,49.4ZM202.2,38a4.2,4.2,0,1,0,4.2,4.2h0a4.23,4.23,0,0,0-4.2-4.2Zm-11.4,0a4.2,4.2,0,1,0,4.2,4.2h0A4.23,4.23,0,0,0,190.8,38Zm-11.4,0a4.2,4.2,0,1,0,4.2,4.2h0A4.23,4.23,0,0,0,179.4,38ZM168,38a4.2,4.2,0,1,0,4.2,4.2h0A4.23,4.23,0,0,0,168,38Zm-11.4,8.5a4.2,4.2,0,1,0-4.2-4.2h0a4.23,4.23,0,0,0,4.2,4.2ZM145.2,38a4.2,4.2,0,1,0,4.2,4.2h0A4.23,4.23,0,0,0,145.2,38Zm-11.4,9.5a5.3,5.3,0,1,0-5.3-5.3,5.27,5.27,0,0,0,5.3,5.3Zm-22.7-.2a5.1,5.1,0,1,0-5.1-5.1h0a5.06,5.06,0,0,0,5.1,5.1ZM99.7,46.1a3.9,3.9,0,1,0-3.9-3.9h0A3.84,3.84,0,0,0,99.7,46.1Zm-11.4-.4a3.45,3.45,0,1,0-3.4-3.5h0A3.39,3.39,0,0,0,88.3,45.7Zm-45.6.7a4.2,4.2,0,1,0-4.2-4.2h0A4.16,4.16,0,0,0,42.7,46.4ZM31.4,38a4.2,4.2,0,1,0,4.2,4.2h0A4.23,4.23,0,0,0,31.4,38ZM20,38a4.2,4.2,0,1,0,4.2,4.2h0A4.23,4.23,0,0,0,20,38ZM8.6,38a4.2,4.2,0,1,0,4.2,4.2h0A4.23,4.23,0,0,0,8.6,38ZM202.2,26.6a4.2,4.2,0,1,0,4.2,4.2h0a4.23,4.23,0,0,0-4.2-4.2Zm-11.4,0a4.2,4.2,0,1,0,4.2,4.2h0A4.23,4.23,0,0,0,190.8,26.6Zm-11.4,0a4.2,4.2,0,1,0,4.2,4.2h0A4.23,4.23,0,0,0,179.4,26.6Zm-11.4,0a4.2,4.2,0,1,0,4.2,4.2h0A4.23,4.23,0,0,0,168,26.6Zm-11.4-.5a4.75,4.75,0,1,0,4.8,4.8h0a4.87,4.87,0,0,0-4.8-4.8ZM145.2,36.6a5.7,5.7,0,1,0-5.7-5.7h0a5.76,5.76,0,0,0,5.7,5.7Zm-11.4-.4a5.3,5.3,0,1,0-5.3-5.3h0A5.34,5.34,0,0,0,133.8,36.2Zm-11.4-1.5a3.8,3.8,0,1,0-3.8-3.8h0a3.8,3.8,0,0,0,3.8,3.8ZM111,33.4a2.6,2.6,0,1,0-2.6-2.6h0a2.65,2.65,0,0,0,2.6,2.6Zm-11.3-5a2.5,2.5,0,1,0,2.5,2.5h0a2.77,2.77,0,0,0-2.5-2.5ZM88.3,33.6a2.7,2.7,0,1,0-2.7-2.7h0a2.69,2.69,0,0,0,2.7,2.7ZM76.9,34a3.1,3.1,0,1,0-3.1-3.1h0A3.05,3.05,0,0,0,76.9,34ZM42.7,35.1a4.2,4.2,0,1,0-4.2-4.2h0A4.23,4.23,0,0,0,42.7,35.1ZM31.4,26.6a4.2,4.2,0,1,0,4.2,4.2h0A4.23,4.23,0,0,0,31.4,26.6ZM20,26.6a4.2,4.2,0,1,0,4.2,4.2h0A4.23,4.23,0,0,0,20,26.6Zm-11.4,0a4.2,4.2,0,1,0,4.2,4.2h0A4.23,4.23,0,0,0,8.6,26.6ZM202.2,15.2a4.2,4.2,0,1,0,4.2,4.2h0a4.23,4.23,0,0,0-4.2-4.2Zm-11.4,0a4.2,4.2,0,1,0,4.2,4.2h0A4.23,4.23,0,0,0,190.8,15.2Zm-11.4,0a4.2,4.2,0,1,0,4.2,4.2h0A4.23,4.23,0,0,0,179.4,15.2Zm-11.4,0a4.2,4.2,0,1,0,4.2,4.2h0A4.23,4.23,0,0,0,168,15.2ZM156.6,25.4a6,6,0,1,0-6-6A6,6,0,0,0,156.6,25.4Zm-11.4-1a5,5,0,1,0-5-5A5,5,0,0,0,145.2,24.4Zm-11.4-2.1a2.9,2.9,0,1,0-2.9-2.9h0a2.9,2.9,0,0,0,2.9,2.9ZM122.4,22a2.6,2.6,0,1,0-2.6-2.6h0A2.58,2.58,0,0,0,122.4,22ZM111,21.9a2.5,2.5,0,1,0-2.5-2.5h0a2.61,2.61,0,0,0,2.5,2.5ZM99.7,22a2.6,2.6,0,1,0-2.6-2.6h0A2.58,2.58,0,0,0,99.7,22Zm-11.4.1a2.7,2.7,0,1,0-2.7-2.7h0a2.69,2.69,0,0,0,2.7,2.7Zm-11.4,0a2.7,2.7,0,1,0-2.7-2.7h0a2.69,2.69,0,0,0,2.7,2.7ZM65.5,24.6a5.2,5.2,0,1,0-5.2-5.2h0a5.16,5.16,0,0,0,5.2,5.2Zm-12.1.6a5.64,5.64,0,1,0,6.3,4.9,5.73,5.73,0,0,0-4.9-4.9,5.84,5.84,0,1,0-6.5-5.1A5.75,5.75,0,0,0,53.4,25.2ZM42.7,23.6a4.2,4.2,0,1,0-4.2-4.2h0A4.23,4.23,0,0,0,42.7,23.6ZM31.4,15.2a4.2,4.2,0,1,0,4.2,4.2h0A4.23,4.23,0,0,0,31.4,15.2ZM20,15.2a4.2,4.2,0,1,0,4.2,4.2h0A4.23,4.23,0,0,0,20,15.2Zm-11.4,0a4.2,4.2,0,1,0,4.2,4.2h0A4.23,4.23,0,0,0,8.6,15.2Zm193.6-3A4.2,4.2,0,1,0,198,8h0A4.16,4.16,0,0,0,202.2,12.2ZM190.8,3.8A4.2,4.2,0,1,0,195,8h0A4.23,4.23,0,0,0,190.8,3.8Zm-11.4,0A4.2,4.2,0,1,0,183.6,8h0A4.23,4.23,0,0,0,179.4,3.8ZM168,12.5A4.5,4.5,0,1,0,163.5,8h0a4.48,4.48,0,0,0,4.5,4.5Zm-11.4.3a4.78,4.78,0,0,0,4.8-4.7,4.8,4.8,0,0,0-4.8-4.8A4.72,4.72,0,0,0,151.8,8h0a4.8,4.8,0,0,0,4.8,4.8Zm-11.4-1A3.8,3.8,0,1,0,141.4,8a3.8,3.8,0,0,0,3.8,3.8Zm-11.4-1.2A2.65,2.65,0,0,0,136.4,8a2.6,2.6,0,0,0-5.2,0h0A2.65,2.65,0,0,0,133.8,10.6Zm-11.4,0A2.65,2.65,0,0,0,125,8a2.6,2.6,0,1,0-5.2,0h0A2.65,2.65,0,0,0,122.4,10.6Zm-11.3-.1A2.5,2.5,0,1,0,108.6,8h0a2.48,2.48,0,0,0,2.5,2.5Zm-11.4.1A2.6,2.6,0,1,0,97.1,8h0a2.58,2.58,0,0,0,2.6,2.6Zm-11.4.1A2.7,2.7,0,1,0,85.6,8h0a2.69,2.69,0,0,0,2.7,2.7Zm-11.4,1a3.74,3.74,0,0,0,3.7-3.6A3.59,3.59,0,0,0,77,4.5a3.74,3.74,0,0,0-3.7,3.6h0a3.52,3.52,0,0,0,3.6,3.6ZM65.5,12.8A4.8,4.8,0,0,0,70.3,8a4.74,4.74,0,0,0-4.8-4.8A4.8,4.8,0,0,0,60.7,8h0A4.74,4.74,0,0,0,65.5,12.8Zm-11.4.1A4.9,4.9,0,1,0,49.2,8h0a4.84,4.84,0,0,0,4.9,4.9Zm-11.4-.6a4.2,4.2,0,1,0-4.2-4.2h0A4.23,4.23,0,0,0,42.7,12.3ZM31.4,3.8A4.2,4.2,0,1,0,35.6,8h0A4.23,4.23,0,0,0,31.4,3.8ZM20,3.8A4.2,4.2,0,1,0,24.2,8h0A4.23,4.23,0,0,0,20,3.8ZM8.6,3.8A4.2,4.2,0,1,0,12.8,8h0A4.23,4.23,0,0,0,8.6,3.8Z" transform="translate(-4.3 -3.1)"/><path class="cls-2" d="M128.5,42.1a6.15,6.15,0,1,1-6.2-6.1,6.15,6.15,0,0,1,6.2,6.1Z" transform="translate(-4.3 -3.1)"/></g><g class="cls-3"><path class="cls-2" d="M1058.5,167.81V130.3h-6.63v-1.55h20.52v1.55h-6.69v37.51h6.69v1.54h-20.52v-1.54Z" transform="translate(-4.3 -3.1)"/><path class="cls-2" d="M1113.93,130.3v40h-1.24L1086,130.12h-.12v37.69h6.88v1.54h-14.45v-1.54h6V130.3h-6.45v-1.55h15.5l18.92,28.46h.12V130.3h-6.72v-1.55h14.41v1.55Z" transform="translate(-4.3 -3.1)"/><path class="cls-2" d="M1125.19,128.75h34.6l1.06,13.81h-1.54q-1.43-6.93-3.77-9.6a7.84,7.84,0,0,0-6.16-2.66h-3.3v37.51h7.26v1.54h-21.7v-1.54h7.26V130.3h-3.3a7.84,7.84,0,0,0-6.16,2.66q-2.34,2.67-3.77,9.6h-1.54Z" transform="translate(-4.3 -3.1)"/><path class="cls-2" d="M1179.5,130.3v17.4h3.66a12.48,12.48,0,0,0,3.29-.37,4.52,4.52,0,0,0,2.42-2.05,10.74,10.74,0,0,0,1.22-5.2h1.58v17.19h-1.58q-.24-4.91-1.89-6.46a7.11,7.11,0,0,0-5-1.56h-3.66v18.56h8.26q7,0,9.74-3c1.8-2,2.88-5,3.22-9.09h1.54l-.39,13.59h-36v-1.54h6.44V130.3h-6.44v-1.55h34.51l.69,10.84h-1.54q-.78-4.93-3.24-7.11c-1.63-1.46-4.36-2.18-8.17-2.18Z" transform="translate(-4.3 -3.1)"/><path class="cls-2" d="M1216.28,167.81V130.3h-6.39v-1.55h22.25a28.23,28.23,0,0,1,7.16.76,9.51,9.51,0,0,1,4.83,3.13,8.16,8.16,0,0,1,2,5.47,7.62,7.62,0,0,1-3,6.23q-3,2.4-10,3.61v.15a17.38,17.38,0,0,1,8.34,3.87q3.26,2.88,3.26,9.75c0,2.62.31,4.3.92,5a3.16,3.16,0,0,0,2.56,1.11,9.21,9.21,0,0,0,2.54-.43v1.49a15.66,15.66,0,0,1-5.08.9c-3.33,0-5.68-.92-7.06-2.78a8.79,8.79,0,0,1-2-5.45l.12-5.15a9.64,9.64,0,0,0-1.71-5.31q-1.71-2.62-7.77-2.62h-3.78v19.29h6.38v1.54h-20v-1.54Zm7.21-37.51v16.8h5.45a23.23,23.23,0,0,0,5.35-.47,4.68,4.68,0,0,0,3-2.45c.73-1.32,1.1-3.43,1.1-6.31a9.3,9.3,0,0,0-1.12-5.18,4.56,4.56,0,0,0-2.71-2,18.12,18.12,0,0,0-4.16-.38Z" transform="translate(-4.3 -3.1)"/><path class="cls-2" d="M1291.48,130.3v40h-1.24l-26.73-40.17h-.12v37.69h6.87v1.54h-14.44v-1.54h6V130.3h-6.45v-1.55h15.5l18.93,28.46h.12V130.3h-6.72v-1.55h14.41v1.55Z" transform="translate(-4.3 -3.1)"/></g><rect class="cls-4" x="1037.8" y="118.15" width="263" height="54.3"/></svg>