<svg id="molgen" xmlns="http://www.w3.org/2000/svg" viewBox="0 0 1357.2 204.37"><defs><style>.cls-1{fill:#006c66;}.cls-2{fill:#ac162c;}.cls-3{isolation:isolate;}.cls-4{fill:none;stroke:#ac162c;stroke-miterlimit:10;}</style></defs><title>molgen-logo-intern-2-en</title><g id="Logo"><path class="cls-1" d="M202.2,197.8a4.2,4.2,0,1,0,4.2,4.2h0a4.23,4.23,0,0,0-4.2-4.2Zm-11.4,0A4.2,4.2,0,1,0,195,202h0A4.23,4.23,0,0,0,190.8,197.8Zm-11.4,0a4.2,4.2,0,1,0,4.2,4.2h0A4.23,4.23,0,0,0,179.4,197.8Zm-11.4-.1a4.27,4.27,0,0,0-4.3,4.3,4.35,4.35,0,0,0,8.7.1h0a4.44,4.44,0,0,0-4.4-4.4Zm-22.8-.7a5,5,0,1,0,5,5A5,5,0,0,0,145.2,197Zm-11.4,1.2a3.8,3.8,0,1,0,3.8,3.8h0A3.8,3.8,0,0,0,133.8,198.2Zm-11.4,1.2A2.6,2.6,0,1,0,125,202h0A2.58,2.58,0,0,0,122.4,199.4Zm-11.4,0a2.6,2.6,0,1,0,2.6,2.6h0A2.58,2.58,0,0,0,111,199.4Zm-11.3,0a2.6,2.6,0,1,0,2.6,2.6h0A2.65,2.65,0,0,0,99.7,199.4Zm-11.4-.1A2.7,2.7,0,1,0,91,202a2.69,2.69,0,0,0-2.7-2.7Zm-11.4-.9a3.6,3.6,0,1,0,3.6,3.6,3.72,3.72,0,0,0-3.6-3.6Zm-11.4-1.2a4.8,4.8,0,1,0,4.8,4.8h0a4.74,4.74,0,0,0-4.8-4.8Zm-11.4,0a4.8,4.8,0,1,0,4.8,4.8h0A4.8,4.8,0,0,0,54.1,197.2Zm-11.4.1a4.6,4.6,0,1,0,4.6,4.6h0A4.65,4.65,0,0,0,42.7,197.3Zm-11.4.4a4.2,4.2,0,1,0,4.2,4.2h0A4.23,4.23,0,0,0,31.3,197.7Zm-11.4,0a4.2,4.2,0,1,0,4.2,4.2h0A4.23,4.23,0,0,0,19.9,197.7Zm-11.4,0a4.2,4.2,0,1,0,4.2,4.2h0A4.16,4.16,0,0,0,8.5,197.7Zm193.6-11.4a4.2,4.2,0,1,0,4.2,4.2h0a4.23,4.23,0,0,0-4.2-4.2Zm-11.4,0a4.2,4.2,0,1,0,4.2,4.2h0A4.23,4.23,0,0,0,190.7,186.3Zm-11.4,0a4.2,4.2,0,1,0,4.2,4.2h0A4.16,4.16,0,0,0,179.3,186.3Zm-45.5,6.9a2.6,2.6,0,1,0-2.6-2.6h0A2.58,2.58,0,0,0,133.8,193.2Zm-11.4-5.3a2.6,2.6,0,1,0,2.6,2.6h0A2.65,2.65,0,0,0,122.4,187.9Zm-11.3,5.2a2.5,2.5,0,1,0-2.5-2.5h0a2.48,2.48,0,0,0,2.5,2.5Zm-11.4,0a2.5,2.5,0,1,0-2.5-2.5h0a2.48,2.48,0,0,0,2.5,2.5Zm-11.4.2a2.6,2.6,0,1,0-2.6-2.6h0A2.58,2.58,0,0,0,88.3,193.3Zm-11.4-7a4.3,4.3,0,1,0,4.3,4.3h0A4.33,4.33,0,0,0,76.9,186.3Zm-22.8-.9a5.2,5.2,0,1,0,5.2,5.2h0a5.23,5.23,0,0,0-5.2-5.2Zm-11.4,9.5a4.2,4.2,0,1,0-4.2-4.2h0A4.23,4.23,0,0,0,42.7,194.9Zm-11.3-8.5a4.2,4.2,0,1,0,4.2,4.2h0A4.23,4.23,0,0,0,31.4,186.4Zm-11.4,0a4.2,4.2,0,1,0,4.2,4.2h0A4.23,4.23,0,0,0,20,186.4Zm-11.4,0a4.2,4.2,0,1,0,4.2,4.2h0A4.23,4.23,0,0,0,8.6,186.4ZM202.2,175a4.2,4.2,0,1,0,4.2,4.2h0A4.23,4.23,0,0,0,202.2,175Zm-11.4,0a4.2,4.2,0,1,0,4.2,4.2h0A4.23,4.23,0,0,0,190.8,175Zm-11.4,0a4.2,4.2,0,1,0,4.2,4.2h0A4.23,4.23,0,0,0,179.4,175Zm-39.9-20.8a6.26,6.26,0,0,0-3.2-3.4,6.37,6.37,0,0,0,3.6-4.1,5.49,5.49,0,0,0,4.1,3.7,6.38,6.38,0,0,0-4.5,3.8Zm-11.7,1.4a5.24,5.24,0,0,0-3.9-4.4,3.74,3.74,0,0,1,7.4-.4A6.26,6.26,0,0,0,127.8,155.6Zm35.7,26.8a5.53,5.53,0,1,0,1.4-7.7,6.2,6.2,0,0,0-1.4,1.4,7.37,7.37,0,0,0-3-3.3,6.19,6.19,0,0,0-7.7-9.7,6.58,6.58,0,0,0-2.1,2.9,5.7,5.7,0,0,0-3.8-3.6,6.13,6.13,0,0,0,4.1-7.6,5.81,5.81,0,0,0-4.7-4.2,5.57,5.57,0,1,0-2.3-10.9,5.49,5.49,0,0,0-4.1,3.7,20.29,20.29,0,0,1-17.5-4.6,6.41,6.41,0,0,0-5.9,4,6,6,0,1,0-11.1,4.5,6,6,0,0,0,4.4,3.6,5.67,5.67,0,1,0,6.7,4.4,5.82,5.82,0,0,0-4.4-4.4,6.09,6.09,0,0,0,4.3-3.5,6.6,6.6,0,0,0,4.4,3.9,5.45,5.45,0,0,0,2.9,10.5,5.36,5.36,0,0,0,3.9-4.4,13.9,13.9,0,0,1,15.7,5.1,5.85,5.85,0,0,0,3.4,11.2,5.7,5.7,0,0,0,3.8-3.6,6.34,6.34,0,0,0,2.1,3,7.71,7.71,0,0,0-3.5,4.6,4.42,4.42,0,0,0-5.9-2.2,4.45,4.45,0,1,0,3.7,8.1,4,4,0,0,0,2.2-2.2,7.22,7.22,0,0,0,2.6,4,7.77,7.77,0,0,0-2.5,4.9,4.24,4.24,0,1,0,0,1.2,7.09,7.09,0,0,0,4.9,6.3A5.12,5.12,0,1,0,161,200a5.19,5.19,0,0,0-2.2-2.2,7.43,7.43,0,0,0,4.4-4.1,5.4,5.4,0,1,0,1.9-7.4,5,5,0,0,0-1.9,1.9,6.9,6.9,0,0,0-2-2.8,18.54,18.54,0,0,0,2.3-3Zm-29.7-.7a2.5,2.5,0,1,0-2.5-2.5h0a2.69,2.69,0,0,0,2.5,2.5Zm-11.4-5.1a2.6,2.6,0,1,0,2.6,2.6h0A2.52,2.52,0,0,0,122.4,176.6Zm-11.3,5a2.3,2.3,0,1,0-2.3-2.3h0A2.26,2.26,0,0,0,111.1,181.6Zm-11.4-5.1a2.7,2.7,0,1,0,2.7,2.7,2.69,2.69,0,0,0-2.7-2.7Zm-11.4-2.1a4.8,4.8,0,1,0,4.8,4.8,4.87,4.87,0,0,0-4.8-4.8Zm-11.4-1.3a6.17,6.17,0,0,0-6.1,5.5,5.3,5.3,0,1,0-5.7,6.1,6.12,6.12,0,1,0,1,0,5.32,5.32,0,0,0,4.8-4.6,6.14,6.14,0,1,0,12.2-1.4,6.19,6.19,0,0,0-6.2-5.6ZM54.1,175a4.2,4.2,0,1,0,4.2,4.2h0A4.23,4.23,0,0,0,54.1,175Zm-11.4,8.4a4.2,4.2,0,1,0-4.2-4.2h0A4.16,4.16,0,0,0,42.7,183.4ZM31.4,175a4.2,4.2,0,1,0,4.2,4.2h0A4.23,4.23,0,0,0,31.4,175ZM20,175a4.2,4.2,0,1,0,4.2,4.2h0A4.23,4.23,0,0,0,20,175ZM8.6,175a4.2,4.2,0,1,0,4.2,4.2h0A4.23,4.23,0,0,0,8.6,175Zm193.6-11.4a4.2,4.2,0,1,0,4.2,4.2h0a4.23,4.23,0,0,0-4.2-4.2Zm-11.4,0a4.2,4.2,0,1,0,4.2,4.2h0A4.16,4.16,0,0,0,190.8,163.6Zm-11.4,0a4.2,4.2,0,1,0,4.2,4.2h0A4.16,4.16,0,0,0,179.4,163.6Zm-11.4,9a4.75,4.75,0,1,0-4.7-4.8h0a4.72,4.72,0,0,0,4.7,4.8ZM133.8,164a3.8,3.8,0,1,0,3.8,3.8h0a3.8,3.8,0,0,0-3.8-3.8Zm-11.4,1.1a2.6,2.6,0,1,0,2.6,2.6h0A2.58,2.58,0,0,0,122.4,165.1Zm-11.3-1.6a4.2,4.2,0,1,0,4.2,4.2h0A4.23,4.23,0,0,0,111.1,163.5Zm-11.4-1.2a5.4,5.4,0,1,0,5.4,5.4h0a5.38,5.38,0,0,0-5.4-5.4Zm-11.4-.5a6,6,0,1,0,6,6A6,6,0,0,0,88.3,161.8Zm-11.4,11a5,5,0,1,0-5-5A5,5,0,0,0,76.9,172.8Zm-11.4-9.3a4.2,4.2,0,1,0,4.2,4.2h0A4.23,4.23,0,0,0,65.5,163.5Zm-11.4,0a4.2,4.2,0,1,0,4.2,4.2h0A4.23,4.23,0,0,0,54.1,163.5Zm-11.4,8.4a4.2,4.2,0,1,0-4.2-4.2h0A4.16,4.16,0,0,0,42.7,171.9Zm-11.3-8.3a4.2,4.2,0,1,0,4.2,4.2h0A4.16,4.16,0,0,0,31.4,163.6Zm-11.4,0a4.2,4.2,0,1,0,4.2,4.2h0A4.16,4.16,0,0,0,20,163.6Zm-11.4,0a4.2,4.2,0,1,0,4.2,4.2h0A4.16,4.16,0,0,0,8.6,163.6Zm193.6-11.5a4.2,4.2,0,1,0,4.2,4.2h0A4.23,4.23,0,0,0,202.2,152.1Zm-11.4,0a4.2,4.2,0,1,0,4.2,4.2h0A4.23,4.23,0,0,0,190.8,152.1Zm-11.4,0a4.2,4.2,0,1,0,4.2,4.2h0A4.23,4.23,0,0,0,179.4,152.1ZM168,160.6a4.2,4.2,0,1,0-4.2-4.2h0a4.16,4.16,0,0,0,4.2,4.2Zm-11.4.8a5,5,0,1,0-5-5A5,5,0,0,0,156.6,161.4Zm-57,.1a5.2,5.2,0,1,0-5.2-5.2h0a5.29,5.29,0,0,0,5.2,5.2Zm-11.3-9.4a4.2,4.2,0,1,0,4.2,4.2h0A4.23,4.23,0,0,0,88.3,152.1Zm-11.4,8.5a4.2,4.2,0,1,0-4.2-4.2h0A4.23,4.23,0,0,0,76.9,160.6Zm-11.4-8.5a4.2,4.2,0,1,0,4.2,4.2h0A4.23,4.23,0,0,0,65.5,152.1Zm-11.4,0a4.2,4.2,0,1,0,4.2,4.2h0A4.23,4.23,0,0,0,54.1,152.1Zm-11.4,8.5a4.2,4.2,0,1,0-4.2-4.2h0A4.23,4.23,0,0,0,42.7,160.6Zm-11.3-8.5a4.2,4.2,0,1,0,4.2,4.2h0A4.23,4.23,0,0,0,31.4,152.1Zm-11.4,0a4.2,4.2,0,1,0,4.2,4.2h0A4.23,4.23,0,0,0,20,152.1Zm-11.4,0a4.2,4.2,0,1,0,4.2,4.2h0A4.23,4.23,0,0,0,8.6,152.1Zm193.6-11.4a4.2,4.2,0,1,0,4.2,4.2h0a4.23,4.23,0,0,0-4.2-4.2Zm-11.4,0a4.2,4.2,0,1,0,4.2,4.2h0A4.23,4.23,0,0,0,190.8,140.7Zm-11.4,0a4.2,4.2,0,1,0,4.2,4.2h0A4.23,4.23,0,0,0,179.4,140.7ZM168,149.1a4.2,4.2,0,1,0-4.2-4.2h0a4.16,4.16,0,0,0,4.2,4.2Zm-11.4,0a4.2,4.2,0,1,0-4.2-4.2h0a4.16,4.16,0,0,0,4.2,4.2Zm-56.9.9a5,5,0,1,0-5-5A5,5,0,0,0,99.7,150Zm-11.4-9.3a4.2,4.2,0,1,0,4.2,4.2h0A4.23,4.23,0,0,0,88.3,140.7Zm-11.4,8.4a4.2,4.2,0,1,0-4.2-4.2h0A4.16,4.16,0,0,0,76.9,149.1Zm-11.4-8.4a4.2,4.2,0,1,0,4.2,4.2h0A4.23,4.23,0,0,0,65.5,140.7Zm-11.4,0a4.2,4.2,0,1,0,4.2,4.2h0A4.23,4.23,0,0,0,54.1,140.7Zm-11.4,8.4a4.2,4.2,0,1,0-4.2-4.2h0A4.16,4.16,0,0,0,42.7,149.1Zm-11.3-8.4a4.2,4.2,0,1,0,4.2,4.2h0A4.23,4.23,0,0,0,31.4,140.7Zm-11.4,0a4.2,4.2,0,1,0,4.2,4.2h0A4.23,4.23,0,0,0,20,140.7Zm-11.4,0a4.2,4.2,0,1,0,4.2,4.2h0A4.23,4.23,0,0,0,8.6,140.7Zm193.6-11.4a4.2,4.2,0,1,0,4.2,4.2h0a4.23,4.23,0,0,0-4.2-4.2Zm-11.4,0a4.2,4.2,0,1,0,4.2,4.2h0a4.23,4.23,0,0,0-4.2-4.2Zm-11.4,0a4.2,4.2,0,1,0,4.2,4.2h0a4.23,4.23,0,0,0-4.2-4.2ZM168,137.8a4.2,4.2,0,1,0-4.2-4.2h0a4.23,4.23,0,0,0,4.2,4.2Zm-22.8,1.6a5.8,5.8,0,1,0-5.8-5.8h0a5.8,5.8,0,0,0,5.8,5.8Zm-11.4-1.6a4.2,4.2,0,1,0-4.2-4.2h0A4.23,4.23,0,0,0,133.8,137.8Zm-15.6-4.3a4.2,4.2,0,1,0,4.2-4.2A4.23,4.23,0,0,0,118.2,133.5Zm-7.1,5.2a5.15,5.15,0,1,0-5-5.9,6.39,6.39,0,0,0-12.5-1,5.57,5.57,0,1,0-3.6,7,5.85,5.85,0,0,0,3.6-3.6,6.46,6.46,0,0,0,7.9,4.4,6.32,6.32,0,0,0,4.6-5.4,5.08,5.08,0,0,0,5,4.5ZM76.9,128.5a5,5,0,1,0,5,5h0A5,5,0,0,0,76.9,128.5Zm-11.4.8a4.2,4.2,0,1,0,4.2,4.2h0A4.23,4.23,0,0,0,65.5,129.3Zm-11.4,0a4.2,4.2,0,1,0,4.2,4.2h0A4.23,4.23,0,0,0,54.1,129.3Zm-11.4,8.5a4.2,4.2,0,1,0-4.2-4.2h0A4.23,4.23,0,0,0,42.7,137.8Zm-11.3-8.5a4.2,4.2,0,1,0,4.2,4.2h0A4.23,4.23,0,0,0,31.4,129.3Zm-11.4,0a4.2,4.2,0,1,0,4.2,4.2h0A4.23,4.23,0,0,0,20,129.3Zm-11.4,0a4.2,4.2,0,1,0,4.2,4.2h0a4.23,4.23,0,0,0-4.2-4.2Zm193.6-11.4a4.2,4.2,0,1,0,4.2,4.2h0a4.23,4.23,0,0,0-4.2-4.2Zm-11.4,0a4.2,4.2,0,1,0,4.2,4.2h0A4.23,4.23,0,0,0,190.8,117.9Zm-11.4,0a4.2,4.2,0,1,0,4.2,4.2h0A4.23,4.23,0,0,0,179.4,117.9Zm-34.2,0a4.2,4.2,0,1,0,4.2,4.2h0A4.23,4.23,0,0,0,145.2,117.9Zm-11.4,1.6a2.6,2.6,0,1,0,2.6,2.6h0A2.58,2.58,0,0,0,133.8,119.5Zm-11.4,5.4a2.7,2.7,0,1,0-2.7-2.7h0A2.75,2.75,0,0,0,122.4,124.9Zm-11.3.1a2.9,2.9,0,1,0-2.9-2.9h0A2.9,2.9,0,0,0,111.1,125Zm-11.4,1.3a4.2,4.2,0,1,0-4.2-4.2h0A4.1,4.1,0,0,0,99.7,126.3Zm-45.6-8.4a4.25,4.25,0,1,0,4.3,4.3,4.25,4.25,0,0,0-4.3-4.3Zm-11.4,8.4a4.2,4.2,0,1,0-4.2-4.2h0A4.16,4.16,0,0,0,42.7,126.3Zm-11.3-8.4a4.2,4.2,0,1,0,4.2,4.2h0A4.23,4.23,0,0,0,31.4,117.9Zm-11.4,0a4.2,4.2,0,1,0,4.2,4.2h0A4.23,4.23,0,0,0,20,117.9Zm-11.4,0a4.2,4.2,0,1,0,4.2,4.2h0A4.23,4.23,0,0,0,8.6,117.9Zm193.6-11.4a4.2,4.2,0,1,0,4.2,4.2h0a4.23,4.23,0,0,0-4.2-4.2Zm-11.4,0a4.2,4.2,0,1,0,4.2,4.2h0A4.23,4.23,0,0,0,190.8,106.5Zm-11.4,0a4.2,4.2,0,1,0,4.2,4.2h0A4.23,4.23,0,0,0,179.4,106.5Zm-20.1-2a5.79,5.79,0,1,0-7.8-2.5,5.5,5.5,0,0,0,2.5,2.5,6.78,6.78,0,0,0-.8,12,6.65,6.65,0,0,0,1.4,11.9,5.58,5.58,0,1,0,4.3,10.3,5.58,5.58,0,0,0,0-10.3,6.55,6.55,0,0,0,4.4-5.1,5,5,0,1,0,0-2.3,6.68,6.68,0,0,0-3-4.5,6.77,6.77,0,0,0,3.1-4.3,5,5,0,1,0,0-2.9,7.1,7.1,0,0,0-4.1-4.8Zm-14,2a4.2,4.2,0,1,0,4.2,4.2h0A4.23,4.23,0,0,0,145.3,106.5Zm-11.5,1.6a2.6,2.6,0,1,0,2.6,2.6h0A2.58,2.58,0,0,0,133.8,108.1Zm-11.4,5.2a2.6,2.6,0,1,0-2.6-2.6h0A2.58,2.58,0,0,0,122.4,113.3Zm-11.3-5.1a2.5,2.5,0,1,0,2.5,2.5h0a2.77,2.77,0,0,0-2.5-2.5Zm-11.4,0a2.5,2.5,0,1,0,2.5,2.5h0a2.77,2.77,0,0,0-2.5-2.5ZM88.3,114a3.3,3.3,0,1,0-3.3-3.3h0A3.33,3.33,0,0,0,88.3,114ZM60.5,101a5.17,5.17,0,0,0,3.3,3.3,6.52,6.52,0,0,0-4.6,4.5,5.27,5.27,0,0,0-3.1-3.1A6.91,6.91,0,0,0,60.5,101ZM59.2,78.4a6.71,6.71,0,0,0,4.6,4.5,5.4,5.4,0,0,0-3.3,3.3A6.52,6.52,0,0,0,56,81.6,5.9,5.9,0,0,0,59.2,78.4ZM70.4,52.9a4.88,4.88,0,0,0-4.2-4.2,6.6,6.6,0,0,0,5.7-5.1,5.31,5.31,0,0,0,3.7,3.7,6.47,6.47,0,0,0-5.2,5.6ZM48.7,110.7a5.43,5.43,0,0,0,10.5,1.9,6.71,6.71,0,0,0,4.6,4.5,5.28,5.28,0,0,0,3.4,10,5.36,5.36,0,0,0,3.5-3.8,6.43,6.43,0,0,0,7.4,5.1,6.33,6.33,0,0,0,4.9-4.3,5.69,5.69,0,1,0,3.4-7.3,5.71,5.71,0,0,0-3.4,3.4,6.36,6.36,0,0,0-12.3.8,5.23,5.23,0,0,0-3.4-3.8,6.56,6.56,0,0,0,4.8-5.2,5,5,0,1,0,0-2.3,6.57,6.57,0,0,0-4.8-5.2,5.28,5.28,0,1,0-6.7-6.7,6.38,6.38,0,0,0-3-4,6.38,6.38,0,0,0,3-4,5.28,5.28,0,0,0,10-3.4,5.4,5.4,0,0,0-3.3-3.3,6.61,6.61,0,0,0,.3-12.7,5.41,5.41,0,0,0,3.3-3.6,6.31,6.31,0,0,0,7.6,4.7,6.12,6.12,0,0,0,4.7-4.7A5.45,5.45,0,1,0,87,60.1a5.58,5.58,0,0,0-3.8,3.8A6.48,6.48,0,0,0,80,59.7a6.89,6.89,0,0,0,3-3.3,5.92,5.92,0,0,0,7.9,2.9A6.09,6.09,0,0,0,94,55.9a6.38,6.38,0,0,0,3.9,3.8,5.82,5.82,0,1,0,7.4,3.6,5.85,5.85,0,0,0-3.6-3.6,6.23,6.23,0,0,0,4.2-4.8,5.41,5.41,0,1,0,4.2-6.4,5.34,5.34,0,0,0-4.2,4.2,6.11,6.11,0,0,0-7.1-5,6,6,0,0,0-4.7,4,5.94,5.94,0,0,0-7.6-3.6,6.09,6.09,0,0,0-3.4,3.1,6.29,6.29,0,0,0-4.7-3.8,5.23,5.23,0,1,0-2.7-10.1A5.31,5.31,0,0,0,72,41a6.37,6.37,0,0,0-4.3-4.8,5.61,5.61,0,1,0-4.2,0A6.2,6.2,0,0,0,59,41.5,5,5,0,1,0,49.1,43,5,5,0,0,0,59,43a6.59,6.59,0,0,0,5.8,5.8,5.1,5.1,0,0,0-4.3,5.6,5,5,0,0,0,5.6,4.3,5,5,0,0,0,4.3-4.3,6.3,6.3,0,0,0,3.5,5.1,6.48,6.48,0,0,0-3.2,4.2,5.45,5.45,0,1,0-7.2,6.5,6.48,6.48,0,0,0-4.4,4.4A5.41,5.41,0,0,0,49,78.5a5.55,5.55,0,0,0,3.1,3.1,6.66,6.66,0,0,0-1.4,12.1,6.57,6.57,0,0,0-2.3,9.1,6.27,6.27,0,0,0,3.7,2.9,5.35,5.35,0,0,0-3.4,5Zm-6,4.2a4.2,4.2,0,1,0-4.2-4.2h0A4.23,4.23,0,0,0,42.7,114.9Zm-11.3-8.4a4.2,4.2,0,1,0,4.2,4.2h0A4.23,4.23,0,0,0,31.4,106.5Zm-11.4,0a4.2,4.2,0,1,0,4.2,4.2h0A4.23,4.23,0,0,0,20,106.5Zm-11.4,0a4.2,4.2,0,1,0,4.2,4.2h0A4.23,4.23,0,0,0,8.6,106.5ZM202.2,95.1a4.2,4.2,0,1,0,4.2,4.2h0a4.23,4.23,0,0,0-4.2-4.2Zm-11.4,0a4.2,4.2,0,1,0,4.2,4.2h0A4.23,4.23,0,0,0,190.8,95.1Zm-11.4,0a4.2,4.2,0,1,0,4.2,4.2h0A4.23,4.23,0,0,0,179.4,95.1Zm-11.4,0a4.2,4.2,0,1,0,4.2,4.2h0A4.23,4.23,0,0,0,168,95.1Zm-22.8-1.3a5.6,5.6,0,1,0,5.6,5.6h0A5.59,5.59,0,0,0,145.2,93.8Zm-11.4,2a3.56,3.56,0,0,0-3.6,3.5,3.63,3.63,0,0,0,3.5,3.6,3.56,3.56,0,0,0,3.6-3.5h0A3.44,3.44,0,0,0,133.8,95.8Zm-11.4,6.1a2.6,2.6,0,1,0-2.6-2.6h0A2.58,2.58,0,0,0,122.4,101.9ZM111,96.7a2.6,2.6,0,1,0,2.6,2.6h0A2.58,2.58,0,0,0,111,96.7Zm-11.4,0a2.6,2.6,0,1,0,2.6,2.6h0A2.52,2.52,0,0,0,99.6,96.7Zm-11.3,5.4a2.7,2.7,0,1,0-2.7-2.7h0A2.63,2.63,0,0,0,88.3,102.1Zm-11.4.1A2.9,2.9,0,1,0,74,99.3h0A2.9,2.9,0,0,0,76.9,102.2ZM42.7,94.7a4.6,4.6,0,0,0,0,9.2,4.65,4.65,0,0,0,4.6-4.6h0A4.65,4.65,0,0,0,42.7,94.7Zm-11.3.4a4.2,4.2,0,1,0,4.2,4.2h0A4.23,4.23,0,0,0,31.4,95.1ZM20,95.1a4.2,4.2,0,1,0,4.2,4.2h0A4.23,4.23,0,0,0,20,95.1Zm-11.4,0a4.2,4.2,0,1,0,4.2,4.2h0A4.23,4.23,0,0,0,8.6,95.1ZM202.2,83.7a4.2,4.2,0,1,0,4.2,4.2h0a4.23,4.23,0,0,0-4.2-4.2Zm-11.4,0a4.2,4.2,0,1,0,4.2,4.2h0A4.23,4.23,0,0,0,190.8,83.7Zm-11.4,0a4.2,4.2,0,1,0,4.2,4.2h0A4.23,4.23,0,0,0,179.4,83.7Zm-11.4,0a4.2,4.2,0,1,0,4.2,4.2h0A4.23,4.23,0,0,0,168,83.7Zm-11.4,8.8a4.6,4.6,0,0,0,0-9.2,4.65,4.65,0,0,0-4.6,4.6h0A4.59,4.59,0,0,0,156.6,92.5Zm-11.4,1.1a5.7,5.7,0,1,0-5.7-5.7h0a5.7,5.7,0,0,0,5.7,5.7Zm-11.4,0a5.7,5.7,0,1,0-5.7-5.7h0a5.7,5.7,0,0,0,5.7,5.7Zm-11.4-9.9a4.2,4.2,0,1,0,4.2,4.2h0A4.16,4.16,0,0,0,122.4,83.7Zm-11.3,1.4a2.7,2.7,0,1,0,2.7,2.7h0A2.69,2.69,0,0,0,111.1,85.1Zm-11.4.1a2.6,2.6,0,1,0,2.6,2.6h0A2.65,2.65,0,0,0,99.7,85.2ZM88.3,90.5a2.6,2.6,0,1,0-2.6-2.6h0A2.58,2.58,0,0,0,88.3,90.5Zm-11.4.2a2.9,2.9,0,0,0,0-5.8A3,3,0,0,0,74,87.8h0a2.9,2.9,0,0,0,2.9,2.9ZM42.7,83.2a4.6,4.6,0,0,0,0,9.2,4.65,4.65,0,0,0,4.6-4.6h0A4.59,4.59,0,0,0,42.7,83.2Zm-11.4.4a4.2,4.2,0,1,0,4.2,4.2h0A4.1,4.1,0,0,0,31.3,83.6ZM20,83.6a4.2,4.2,0,1,0,4.2,4.2h0A4.23,4.23,0,0,0,20,83.6Zm-11.4,0a4.2,4.2,0,1,0,4.2,4.2h0A4.23,4.23,0,0,0,8.6,83.6ZM202.1,72.2a4.2,4.2,0,1,0,4.2,4.2h0a4.1,4.1,0,0,0-4.2-4.2Zm-11.3,0a4.2,4.2,0,1,0,4.2,4.2h0A4.23,4.23,0,0,0,190.8,72.2Zm-11.4,0a4.2,4.2,0,1,0,4.2,4.2h0A4.23,4.23,0,0,0,179.4,72.2Zm-11.4,0a4.2,4.2,0,1,0,4.2,4.2h0A4.23,4.23,0,0,0,168,72.2Zm-11.4,8.5a4.2,4.2,0,1,0-4.2-4.2h0a4.16,4.16,0,0,0,4.2,4.2Zm-11.4-8.5a4.2,4.2,0,1,0,4.2,4.2h0A4.23,4.23,0,0,0,145.2,72.2Zm-11.4,9.4a5.23,5.23,0,0,0,5.2-5.2,5.16,5.16,0,0,0-5.2-5.2,5.23,5.23,0,0,0-5.2,5.2h0a5.16,5.16,0,0,0,5.2,5.2Zm-11.4.5a5.7,5.7,0,1,0-5.7-5.7h0a5.7,5.7,0,0,0,5.7,5.7ZM116,76.4a5,5,0,1,0-5,5A5,5,0,0,0,116,76.4ZM99.6,72.8a3.69,3.69,0,0,0-3.7,3.7,3.63,3.63,0,0,0,3.7,3.7,3.69,3.69,0,0,0,3.7-3.7,3.63,3.63,0,0,0-3.7-3.7Zm-11.3.5a3.15,3.15,0,1,0,3.1,3.2h0a3.14,3.14,0,0,0-3.1-3.2Zm-6.8,3.2a4.6,4.6,0,1,0-4.6,4.6A4.65,4.65,0,0,0,81.5,76.5ZM42.7,80.7a4.2,4.2,0,1,0-4.2-4.2h0A4.23,4.23,0,0,0,42.7,80.7ZM31.4,72.3a4.2,4.2,0,1,0,4.2,4.2h0A4.16,4.16,0,0,0,31.4,72.3ZM20,72.3a4.2,4.2,0,1,0,4.2,4.2h0A4.16,4.16,0,0,0,20,72.3Zm-11.4,0a4.2,4.2,0,1,0,4.2,4.2h0A4.16,4.16,0,0,0,8.6,72.3ZM202.2,60.8a4.2,4.2,0,1,0,4.2,4.2h0a4.29,4.29,0,0,0-4.2-4.2Zm-11.4,0A4.2,4.2,0,1,0,195,65h0A4.29,4.29,0,0,0,190.8,60.8Zm-11.4,0a4.2,4.2,0,1,0,4.2,4.2h0A4.29,4.29,0,0,0,179.4,60.8Zm-11.4,0a4.2,4.2,0,1,0,4.2,4.2h0A4.29,4.29,0,0,0,168,60.8Zm-11.4,8.5a4.2,4.2,0,1,0-4.2-4.2h0a4.23,4.23,0,0,0,4.2,4.2Zm-11.4-8.5a4.2,4.2,0,1,0,4.2,4.2h0A4.29,4.29,0,0,0,145.2,60.8Zm-11.4,8.5a4.2,4.2,0,1,0-4.2-4.2h0A4.23,4.23,0,0,0,133.8,69.3Zm-11.4,0a4.2,4.2,0,1,0-4.2-4.2h0A4.23,4.23,0,0,0,122.4,69.3ZM111,59.8a5.3,5.3,0,1,0,5.3,5.3h0A5.21,5.21,0,0,0,111,59.8ZM54.1,69.3a4.2,4.2,0,1,0-4.2-4.2h0A4.23,4.23,0,0,0,54.1,69.3Zm-11.4,0a4.2,4.2,0,1,0-4.2-4.2h0A4.23,4.23,0,0,0,42.7,69.3ZM31.4,60.8A4.2,4.2,0,1,0,35.6,65h0A4.29,4.29,0,0,0,31.4,60.8ZM20,60.8A4.2,4.2,0,1,0,24.2,65h0A4.29,4.29,0,0,0,20,60.8Zm-11.4,0A4.2,4.2,0,1,0,12.8,65h0A4.29,4.29,0,0,0,8.6,60.8ZM202.2,49.4a4.2,4.2,0,1,0,4.2,4.2h0a4.23,4.23,0,0,0-4.2-4.2Zm-11.4,0a4.2,4.2,0,1,0,4.2,4.2h0A4.23,4.23,0,0,0,190.8,49.4Zm-11.4,0a4.2,4.2,0,1,0,4.2,4.2h0A4.23,4.23,0,0,0,179.4,49.4Zm-11.4,0a4.2,4.2,0,1,0,4.2,4.2h0A4.23,4.23,0,0,0,168,49.4Zm-11.4,8.5a4.2,4.2,0,1,0-4.2-4.2h0a4.23,4.23,0,0,0,4.2,4.2Zm-11.4-8.5a4.2,4.2,0,1,0,4.2,4.2h0A4.23,4.23,0,0,0,145.2,49.4Zm-11.4,8.5a4.2,4.2,0,1,0-4.2-4.2h0A4.23,4.23,0,0,0,133.8,57.9Zm-11.4,0a4.2,4.2,0,1,0-4.2-4.2h0A4.23,4.23,0,0,0,122.4,57.9Zm-68.3,0a4.2,4.2,0,1,0-4.2-4.2h0A4.23,4.23,0,0,0,54.1,57.9Zm-11.4,0a4.2,4.2,0,1,0-4.2-4.2h0A4.23,4.23,0,0,0,42.7,57.9ZM31.4,49.4a4.2,4.2,0,1,0,4.2,4.2h0A4.23,4.23,0,0,0,31.4,49.4ZM20,49.4a4.2,4.2,0,1,0,4.2,4.2h0A4.23,4.23,0,0,0,20,49.4Zm-11.4,0a4.2,4.2,0,1,0,4.2,4.2h0A4.23,4.23,0,0,0,8.6,49.4ZM202.2,38a4.2,4.2,0,1,0,4.2,4.2h0a4.23,4.23,0,0,0-4.2-4.2Zm-11.4,0a4.2,4.2,0,1,0,4.2,4.2h0A4.23,4.23,0,0,0,190.8,38Zm-11.4,0a4.2,4.2,0,1,0,4.2,4.2h0A4.23,4.23,0,0,0,179.4,38ZM168,38a4.2,4.2,0,1,0,4.2,4.2h0A4.23,4.23,0,0,0,168,38Zm-11.4,8.5a4.2,4.2,0,1,0-4.2-4.2h0a4.23,4.23,0,0,0,4.2,4.2ZM145.2,38a4.2,4.2,0,1,0,4.2,4.2h0A4.23,4.23,0,0,0,145.2,38Zm-11.4,9.5a5.3,5.3,0,1,0-5.3-5.3,5.27,5.27,0,0,0,5.3,5.3Zm-22.7-.2a5.1,5.1,0,1,0-5.1-5.1h0a5.06,5.06,0,0,0,5.1,5.1ZM99.7,46.1a3.9,3.9,0,1,0-3.9-3.9h0A3.84,3.84,0,0,0,99.7,46.1Zm-11.4-.4a3.45,3.45,0,1,0-3.4-3.5h0A3.39,3.39,0,0,0,88.3,45.7Zm-45.6.7a4.2,4.2,0,1,0-4.2-4.2h0A4.16,4.16,0,0,0,42.7,46.4ZM31.4,38a4.2,4.2,0,1,0,4.2,4.2h0A4.23,4.23,0,0,0,31.4,38ZM20,38a4.2,4.2,0,1,0,4.2,4.2h0A4.23,4.23,0,0,0,20,38ZM8.6,38a4.2,4.2,0,1,0,4.2,4.2h0A4.23,4.23,0,0,0,8.6,38ZM202.2,26.6a4.2,4.2,0,1,0,4.2,4.2h0a4.23,4.23,0,0,0-4.2-4.2Zm-11.4,0a4.2,4.2,0,1,0,4.2,4.2h0A4.23,4.23,0,0,0,190.8,26.6Zm-11.4,0a4.2,4.2,0,1,0,4.2,4.2h0A4.23,4.23,0,0,0,179.4,26.6Zm-11.4,0a4.2,4.2,0,1,0,4.2,4.2h0A4.23,4.23,0,0,0,168,26.6Zm-11.4-.5a4.75,4.75,0,1,0,4.8,4.8h0a4.87,4.87,0,0,0-4.8-4.8ZM145.2,36.6a5.7,5.7,0,1,0-5.7-5.7h0a5.76,5.76,0,0,0,5.7,5.7Zm-11.4-.4a5.3,5.3,0,1,0-5.3-5.3h0A5.34,5.34,0,0,0,133.8,36.2Zm-11.4-1.5a3.8,3.8,0,1,0-3.8-3.8h0a3.8,3.8,0,0,0,3.8,3.8ZM111,33.4a2.6,2.6,0,1,0-2.6-2.6h0a2.65,2.65,0,0,0,2.6,2.6Zm-11.3-5a2.5,2.5,0,1,0,2.5,2.5h0a2.77,2.77,0,0,0-2.5-2.5ZM88.3,33.6a2.7,2.7,0,1,0-2.7-2.7h0a2.69,2.69,0,0,0,2.7,2.7ZM76.9,34a3.1,3.1,0,1,0-3.1-3.1h0A3.05,3.05,0,0,0,76.9,34ZM42.7,35.1a4.2,4.2,0,1,0-4.2-4.2h0A4.23,4.23,0,0,0,42.7,35.1ZM31.4,26.6a4.2,4.2,0,1,0,4.2,4.2h0A4.23,4.23,0,0,0,31.4,26.6ZM20,26.6a4.2,4.2,0,1,0,4.2,4.2h0A4.23,4.23,0,0,0,20,26.6Zm-11.4,0a4.2,4.2,0,1,0,4.2,4.2h0A4.23,4.23,0,0,0,8.6,26.6ZM202.2,15.2a4.2,4.2,0,1,0,4.2,4.2h0a4.23,4.23,0,0,0-4.2-4.2Zm-11.4,0a4.2,4.2,0,1,0,4.2,4.2h0A4.23,4.23,0,0,0,190.8,15.2Zm-11.4,0a4.2,4.2,0,1,0,4.2,4.2h0A4.23,4.23,0,0,0,179.4,15.2Zm-11.4,0a4.2,4.2,0,1,0,4.2,4.2h0A4.23,4.23,0,0,0,168,15.2ZM156.6,25.4a6,6,0,1,0-6-6A6,6,0,0,0,156.6,25.4Zm-11.4-1a5,5,0,1,0-5-5A5,5,0,0,0,145.2,24.4Zm-11.4-2.1a2.9,2.9,0,1,0-2.9-2.9h0a2.9,2.9,0,0,0,2.9,2.9ZM122.4,22a2.6,2.6,0,1,0-2.6-2.6h0A2.58,2.58,0,0,0,122.4,22ZM111,21.9a2.5,2.5,0,1,0-2.5-2.5h0a2.61,2.61,0,0,0,2.5,2.5ZM99.7,22a2.6,2.6,0,1,0-2.6-2.6h0A2.58,2.58,0,0,0,99.7,22Zm-11.4.1a2.7,2.7,0,1,0-2.7-2.7h0a2.69,2.69,0,0,0,2.7,2.7Zm-11.4,0a2.7,2.7,0,1,0-2.7-2.7h0a2.69,2.69,0,0,0,2.7,2.7ZM65.5,24.6a5.2,5.2,0,1,0-5.2-5.2h0a5.16,5.16,0,0,0,5.2,5.2Zm-12.1.6a5.64,5.64,0,1,0,6.3,4.9,5.73,5.73,0,0,0-4.9-4.9,5.84,5.84,0,1,0-6.5-5.1A5.75,5.75,0,0,0,53.4,25.2ZM42.7,23.6a4.2,4.2,0,1,0-4.2-4.2h0A4.23,4.23,0,0,0,42.7,23.6ZM31.4,15.2a4.2,4.2,0,1,0,4.2,4.2h0A4.23,4.23,0,0,0,31.4,15.2ZM20,15.2a4.2,4.2,0,1,0,4.2,4.2h0A4.23,4.23,0,0,0,20,15.2Zm-11.4,0a4.2,4.2,0,1,0,4.2,4.2h0A4.23,4.23,0,0,0,8.6,15.2Zm193.6-3A4.2,4.2,0,1,0,198,8h0A4.16,4.16,0,0,0,202.2,12.2ZM190.8,3.8A4.2,4.2,0,1,0,195,8h0A4.23,4.23,0,0,0,190.8,3.8Zm-11.4,0A4.2,4.2,0,1,0,183.6,8h0A4.23,4.23,0,0,0,179.4,3.8ZM168,12.5A4.5,4.5,0,1,0,163.5,8h0a4.48,4.48,0,0,0,4.5,4.5Zm-11.4.3a4.78,4.78,0,0,0,4.8-4.7,4.8,4.8,0,0,0-4.8-4.8A4.72,4.72,0,0,0,151.8,8h0a4.8,4.8,0,0,0,4.8,4.8Zm-11.4-1A3.8,3.8,0,1,0,141.4,8a3.8,3.8,0,0,0,3.8,3.8Zm-11.4-1.2A2.65,2.65,0,0,0,136.4,8a2.6,2.6,0,0,0-5.2,0h0A2.65,2.65,0,0,0,133.8,10.6Zm-11.4,0A2.65,2.65,0,0,0,125,8a2.6,2.6,0,1,0-5.2,0h0A2.65,2.65,0,0,0,122.4,10.6Zm-11.3-.1A2.5,2.5,0,1,0,108.6,8h0a2.48,2.48,0,0,0,2.5,2.5Zm-11.4.1A2.6,2.6,0,1,0,97.1,8h0a2.58,2.58,0,0,0,2.6,2.6Zm-11.4.1A2.7,2.7,0,1,0,85.6,8h0a2.69,2.69,0,0,0,2.7,2.7Zm-11.4,1a3.74,3.74,0,0,0,3.7-3.6A3.59,3.59,0,0,0,77,4.5a3.74,3.74,0,0,0-3.7,3.6h0a3.52,3.52,0,0,0,3.6,3.6ZM65.5,12.8A4.8,4.8,0,0,0,70.3,8a4.74,4.74,0,0,0-4.8-4.8A4.8,4.8,0,0,0,60.7,8h0A4.74,4.74,0,0,0,65.5,12.8Zm-11.4.1A4.9,4.9,0,1,0,49.2,8h0a4.84,4.84,0,0,0,4.9,4.9Zm-11.4-.6a4.2,4.2,0,1,0-4.2-4.2h0A4.23,4.23,0,0,0,42.7,12.3ZM31.4,3.8A4.2,4.2,0,1,0,35.6,8h0A4.23,4.23,0,0,0,31.4,3.8ZM20,3.8A4.2,4.2,0,1,0,24.2,8h0A4.23,4.23,0,0,0,20,3.8ZM8.6,3.8A4.2,4.2,0,1,0,12.8,8h0A4.23,4.23,0,0,0,8.6,3.8Z" transform="translate(-4.3 -3.1)"/><path class="cls-2" d="M128.5,42.1a6.15,6.15,0,1,1-6.2-6.1,6.15,6.15,0,0,1,6.2,6.1Z" transform="translate(-4.3 -3.1)"/></g><g class="cls-3"><path class="cls-2" d="M1028.5,167.81V130.3h-6.63v-1.55h20.52v1.55h-6.69v37.51h6.69v1.54h-20.52v-1.54Z" transform="translate(-4.3 -3.1)"/><path class="cls-2" d="M1083.93,130.3v40h-1.24L1056,130.12h-.12v37.69h6.88v1.54h-14.45v-1.54h6V130.3h-6.45v-1.55h15.5l18.92,28.46h.12V130.3h-6.72v-1.55h14.41v1.55Z" transform="translate(-4.3 -3.1)"/><path class="cls-2" d="M1095.19,128.75h34.6l1.06,13.81h-1.54q-1.43-6.93-3.77-9.6a7.84,7.84,0,0,0-6.16-2.66h-3.3v37.51h7.26v1.54h-21.7v-1.54h7.26V130.3h-3.3a7.84,7.84,0,0,0-6.16,2.66q-2.34,2.67-3.77,9.6h-1.54Z" transform="translate(-4.3 -3.1)"/><path class="cls-2" d="M1149.5,130.3v17.4h3.66a12.48,12.48,0,0,0,3.29-.37,4.52,4.52,0,0,0,2.42-2.05,10.74,10.74,0,0,0,1.22-5.2h1.58v17.19h-1.58q-.24-4.91-1.89-6.46a7.11,7.11,0,0,0-5-1.56h-3.66v18.56h8.26q7,0,9.74-3c1.8-2,2.88-5,3.22-9.09h1.54l-.39,13.59h-36v-1.54h6.44V130.3h-6.44v-1.55h34.51l.69,10.84h-1.54q-.78-4.93-3.24-7.11c-1.63-1.46-4.36-2.18-8.17-2.18Z" transform="translate(-4.3 -3.1)"/><path class="cls-2" d="M1186.28,167.81V130.3h-6.39v-1.55h22.25a28.23,28.23,0,0,1,7.16.76,9.51,9.51,0,0,1,4.83,3.13,8.16,8.16,0,0,1,2,5.47,7.62,7.62,0,0,1-3,6.23q-3,2.4-10,3.61v.15a17.38,17.38,0,0,1,8.34,3.87q3.26,2.88,3.26,9.75c0,2.62.31,4.3.92,5a3.16,3.16,0,0,0,2.56,1.11,9.21,9.21,0,0,0,2.54-.43v1.49a15.66,15.66,0,0,1-5.08.9c-3.33,0-5.68-.92-7.06-2.78a8.79,8.79,0,0,1-2-5.45l.12-5.15a9.64,9.64,0,0,0-1.71-5.31q-1.71-2.62-7.77-2.62h-3.78v19.29h6.38v1.54h-20v-1.54Zm7.21-37.51v16.8h5.45a23.23,23.23,0,0,0,5.35-.47,4.68,4.68,0,0,0,3-2.45c.73-1.32,1.1-3.43,1.1-6.31a9.3,9.3,0,0,0-1.12-5.18,4.56,4.56,0,0,0-2.71-2,18.12,18.12,0,0,0-4.16-.38Z" transform="translate(-4.3 -3.1)"/><path class="cls-2" d="M1261.48,130.3v40h-1.24l-26.73-40.17h-.12v37.69h6.87v1.54h-14.44v-1.54h6V130.3h-6.45v-1.55h15.5l18.93,28.46h.12V130.3h-6.72v-1.55h14.41v1.55Z" transform="translate(-4.3 -3.1)"/><path class="cls-2" d="M1293.15,156.7h-12.9l-4.15,11.11h7.51v1.54H1268.9v-1.54h5.6l14.8-40h.94l14.2,40h5.45v1.54h-19.35v-1.54h6.57Zm-12.32-1.55h11.77l-5.72-16.26h-.12Z" transform="translate(-4.3 -3.1)"/><path class="cls-2" d="M1327.69,130.3v37.51h9.11a17.29,17.29,0,0,0,4.15-.4,6.53,6.53,0,0,0,3-1.91,10.36,10.36,0,0,0,2.27-3.6,48.07,48.07,0,0,0,1.71-5.81h1.42l-1.12,13.26H1314.1v-1.54h6.38V130.3h-6.38v-1.55h20.34v1.55Z" transform="translate(-4.3 -3.1)"/></g><rect class="cls-4" x="1007.8" y="118.15" width="348.9" height="54.3"/><path class="cls-1" d="M267.06,163.13V134.87h-4.94v-1.16h26.52L289,143H288a19.85,19.85,0,0,0-.82-3.14,7,7,0,0,0-2.4-3.82q-1.57-1.12-5.33-1.12h-6.82v13.25h1.29a14.86,14.86,0,0,0,3.26-.27,3.52,3.52,0,0,0,2.07-1.53,8,8,0,0,0,1.07-3.95h1.19v13h-1.19a10.16,10.16,0,0,0-.95-4.23,3.16,3.16,0,0,0-1.93-1.61,15.86,15.86,0,0,0-3.51-.3h-1.3v13.94h5.5v1.16h-16v-1.16Z" transform="translate(-4.3 -3.1)"/><path class="cls-1" d="M309.86,165a13.12,13.12,0,0,1-10.34-5,16.13,16.13,0,0,1-4.25-10.63,16.42,16.42,0,0,1,4.46-11.6A13.78,13.78,0,0,1,310.12,133q5.55,0,10,4.88a16.28,16.28,0,0,1,0,22.3A13.46,13.46,0,0,1,309.86,165Zm.09-30.84a9.25,9.25,0,0,0-4.63,1.15,6,6,0,0,0-2.79,4,45.4,45.4,0,0,0-.74,9.94,56.77,56.77,0,0,0,.42,7.82,9,9,0,0,0,2.14,4.84q1.72,1.92,5.4,1.92a9.88,9.88,0,0,0,4.51-1.16c1.51-.77,2.51-2.3,3-4.57a57.46,57.46,0,0,0,.69-10.48q0-6.41-.86-8.85a6.25,6.25,0,0,0-2.74-3.52A8.56,8.56,0,0,0,310,134.16Z" transform="translate(-4.3 -3.1)"/><path class="cls-1" d="M337.35,163.13V134.87h-4.94v-1.16h17.22a22.48,22.48,0,0,1,5.54.57,7.42,7.42,0,0,1,3.74,2.36,6.09,6.09,0,0,1,1.57,4.12,5.7,5.7,0,0,1-2.3,4.7c-1.53,1.2-4.13,2.1-7.78,2.71v.11a13.57,13.57,0,0,1,6.45,2.92c1.68,1.45,2.52,3.89,2.52,7.34,0,2,.24,3.27.71,3.8a2.45,2.45,0,0,0,2,.83,7.53,7.53,0,0,0,2-.32V164a12.31,12.31,0,0,1-3.94.68q-3.87,0-5.46-2.1a6.58,6.58,0,0,1-1.55-4.11l.09-3.88a7.16,7.16,0,0,0-1.32-4q-1.32-2-6-2h-3v14.53h4.94v1.16H332.4v-1.16Zm5.58-28.26v12.66h4.19a18.67,18.67,0,0,0,4.15-.35,3.61,3.61,0,0,0,2.28-1.85,10,10,0,0,0,.86-4.76,6.9,6.9,0,0,0-.87-3.9,3.53,3.53,0,0,0-2.1-1.52,15.13,15.13,0,0,0-3.22-.29Z" transform="translate(-4.3 -3.1)"/><path class="cls-1" d="M384.37,133.71h11.27l6.72,21.62h.09l6.77-21.62h11v1.16h-4.66v28.26h4.66v1.16H405.43v-1.16h4.8V134.35h-.11l-9.35,30h-1.08l-9.35-30h-.09v28.78h4.87v1.16H384.37v-1.16h4.75V134.87h-4.71Z" transform="translate(-4.3 -3.1)"/><path class="cls-1" d="M442.12,165a13.12,13.12,0,0,1-10.34-5,16.13,16.13,0,0,1-4.25-10.63,16.42,16.42,0,0,1,4.46-11.6A13.76,13.76,0,0,1,442.32,133q5.55,0,10,4.88a16.28,16.28,0,0,1,0,22.3A13.49,13.49,0,0,1,442.12,165Zm.09-30.84a9.25,9.25,0,0,0-4.63,1.15,6,6,0,0,0-2.79,4,45.4,45.4,0,0,0-.74,9.94,56.77,56.77,0,0,0,.42,7.82,9,9,0,0,0,2.14,4.84q1.72,1.92,5.4,1.92a9.88,9.88,0,0,0,4.51-1.16c1.51-.77,2.51-2.3,3-4.57a57.46,57.46,0,0,0,.69-10.48q0-6.41-.86-8.85a6.25,6.25,0,0,0-2.74-3.52,8.67,8.67,0,0,0-4.43-1.09Z" transform="translate(-4.3 -3.1)"/><path class="cls-1" d="M474.33,134.87v28.26h7.05a13.29,13.29,0,0,0,3.21-.3,5.09,5.09,0,0,0,2.31-1.44,7.83,7.83,0,0,0,1.76-2.71A36.82,36.82,0,0,0,490,154.3h1.14l-.87,10H463.81v-1.16h4.94V134.87h-4.94v-1.16h15.74v1.16Z" transform="translate(-4.3 -3.1)"/><path class="cls-1" d="M508,134.87V148h2.84a9.44,9.44,0,0,0,2.54-.29,3.43,3.43,0,0,0,1.87-1.54,7.87,7.87,0,0,0,1-3.92h1.22v13h-1.22c-.13-2.46-.61-4.08-1.46-4.87a5.6,5.6,0,0,0-3.9-1.17H508v14h6.4q5.45,0,7.53-2.22c1.39-1.48,2.23-3.76,2.5-6.85h1.19l-.3,10.24H497.47v-1.16h5V134.87h-5v-1.16h26.71l.54,8.17h-1.2a8.73,8.73,0,0,0-2.51-5.36q-1.9-1.64-6.33-1.64Z" transform="translate(-4.3 -3.1)"/><path class="cls-1" d="M556.19,133.36v9.08h-1q-1.63-8.28-8.48-8.28a5.8,5.8,0,0,0-5.37,2.81q-1.7,2.81-1.69,11.81,0,7.41.73,10.08a6.27,6.27,0,0,0,2.52,3.82,7.2,7.2,0,0,0,4,1.15,8.1,8.1,0,0,0,5.28-2.06,13.3,13.3,0,0,0,3.83-6.63h1.1l-.37,9.33h-1A6,6,0,0,0,554,162a12,12,0,0,1-7.61,3q-5,0-9.07-4.58a16.23,16.23,0,0,1-4.1-11.22,17.06,17.06,0,0,1,4-11.48q4-4.71,9.33-4.71a10.34,10.34,0,0,1,7.19,2.85,16.79,16.79,0,0,0,1.38-2.49Z" transform="translate(-4.3 -3.1)"/><path class="cls-1" d="M590.39,134.87h-5.13v-1.16h11.22v1.16h-4.94v18.5a20.78,20.78,0,0,1-.62,5.93,6.63,6.63,0,0,1-2.26,3.22,10.49,10.49,0,0,1-3.92,1.89A18.79,18.79,0,0,1,580,165c-3.43,0-5.95-.52-7.54-1.57a6.42,6.42,0,0,1-2.94-3.88,27.88,27.88,0,0,1-.55-6.18v-18.5h-4.55v-1.16h15v1.16H574.5v18a38,38,0,0,0,.35,5.84,6,6,0,0,0,1.9,3.54c1,.94,2.67,1.41,4.9,1.41a10.67,10.67,0,0,0,4.87-1.08,6.28,6.28,0,0,0,3-2.91q.86-1.81.86-6.8Z" transform="translate(-4.3 -3.1)"/><path class="cls-1" d="M613.4,134.87v28.26h7.05a13.29,13.29,0,0,0,3.21-.3,5,5,0,0,0,2.31-1.44,7.83,7.83,0,0,0,1.76-2.71,36.82,36.82,0,0,0,1.32-4.38h1.07l-.87,10H602.88v-1.16h4.94V134.87h-4.94v-1.16h15.74v1.16Z" transform="translate(-4.3 -3.1)"/><path class="cls-1" d="M654,154.76H644l-3.21,8.37h5.81v1.16H635.27v-1.16h4.33L651.06,133h.73l11,30.13H667v1.16H652v-1.16h5.11Zm-9.54-1.16h9.11l-4.43-12.25h-.06Z" transform="translate(-4.3 -3.1)"/><path class="cls-1" d="M678.42,163.13V134.87h-4.94v-1.16H690.7a22.48,22.48,0,0,1,5.54.57,7.42,7.42,0,0,1,3.74,2.36,6.09,6.09,0,0,1,1.57,4.12,5.7,5.7,0,0,1-2.3,4.7c-1.53,1.2-4.13,2.1-7.78,2.71v.11a13.57,13.57,0,0,1,6.45,2.92c1.68,1.45,2.52,3.89,2.52,7.34,0,2,.24,3.27.71,3.8a2.45,2.45,0,0,0,2,.83,7.53,7.53,0,0,0,2-.32V164a12.31,12.31,0,0,1-3.94.68q-3.87,0-5.46-2.1a6.58,6.58,0,0,1-1.55-4.11l.09-3.88a7.16,7.16,0,0,0-1.32-4q-1.32-2-6-2H684v14.53H689v1.16H673.47v-1.16ZM684,134.87v12.66h4.22a18.67,18.67,0,0,0,4.15-.35,3.61,3.61,0,0,0,2.28-1.85,10,10,0,0,0,.86-4.76,6.9,6.9,0,0,0-.87-3.9,3.53,3.53,0,0,0-2.1-1.52,15.13,15.13,0,0,0-3.22-.29Z" transform="translate(-4.3 -3.1)"/><path class="cls-1" d="M745.49,154.05h-5.32v-1.16h16.26v1.16h-4.55q0,5.87-3.87,8.4a14.48,14.48,0,0,1-8.08,2.54,13,13,0,0,1-10.26-4.79,16.68,16.68,0,0,1-4.1-11.2,16.44,16.44,0,0,1,4.19-11.26A13.37,13.37,0,0,1,740.22,133a11.62,11.62,0,0,1,6.19,1.82,3.15,3.15,0,0,0,1.24.55c.5,0,1-.43,1.5-1.3h1.05l.33,8.3h-1.19q-1.94-8.2-9.21-8.21-3.76,0-5.51,1.65A7.05,7.05,0,0,0,732.5,140a51,51,0,0,0-.39,7.2,67,67,0,0,0,.57,11.15,6.73,6.73,0,0,0,2.35,4.12,6.9,6.9,0,0,0,4.36,1.38,8,8,0,0,0,3.67-.82,3.66,3.66,0,0,0,2-2.45,21.52,21.52,0,0,0,.41-4.87Z" transform="translate(-4.3 -3.1)"/><path class="cls-1" d="M772.84,134.87V148h2.84a9.44,9.44,0,0,0,2.54-.29,3.43,3.43,0,0,0,1.87-1.54,7.87,7.87,0,0,0,.95-3.92h1.22v13H781c-.13-2.46-.61-4.08-1.46-4.87a5.6,5.6,0,0,0-3.9-1.17h-2.84v14h6.4q5.44,0,7.53-2.22c1.39-1.48,2.23-3.76,2.5-6.85h1.19l-.3,10.24H762.3v-1.16h5V134.87h-5v-1.16H789l.54,8.17h-1.19a8.73,8.73,0,0,0-2.51-5.36q-1.9-1.64-6.33-1.64Z" transform="translate(-4.3 -3.1)"/><path class="cls-1" d="M825.45,134.87V165h-1l-20.69-30.27h-.09v28.4H809v1.16H797.85v-1.16h4.66V134.87h-5v-1.16h12l14.61,21.44h.09V134.87H819v-1.16h11.15v1.16Z" transform="translate(-4.3 -3.1)"/><path class="cls-1" d="M847.6,134.87V148h2.84a9.44,9.44,0,0,0,2.54-.29,3.43,3.43,0,0,0,1.87-1.54,7.87,7.87,0,0,0,.95-3.92H857v13H855.8c-.13-2.46-.61-4.08-1.46-4.87a5.6,5.6,0,0,0-3.9-1.17H847.6v14H854q5.44,0,7.53-2.22c1.39-1.48,2.23-3.76,2.5-6.85h1.19l-.3,10.24H837.06v-1.16h5V134.87h-5v-1.16h26.71l.54,8.17h-1.19a8.73,8.73,0,0,0-2.51-5.36q-1.9-1.64-6.33-1.64Z" transform="translate(-4.3 -3.1)"/><path class="cls-1" d="M872.47,133.71h26.78l.82,10.4h-1.19c-.73-3.48-1.71-5.89-2.92-7.23a6.12,6.12,0,0,0-4.77-2h-2.55v28.26h5.62v1.16h-16.8v-1.16h5.66V134.87h-2.55a6.12,6.12,0,0,0-4.77,2c-1.21,1.33-2.19,3.74-2.92,7.23h-1.19Z" transform="translate(-4.3 -3.1)"/><path class="cls-1" d="M911.19,163.13V134.87h-5.13v-1.16H922v1.16h-5.18v28.26H922v1.16h-15.9v-1.16Z" transform="translate(-4.3 -3.1)"/><path class="cls-1" d="M952.06,133.36v9.08h-1q-1.63-8.28-8.48-8.28a5.8,5.8,0,0,0-5.37,2.81q-1.69,2.81-1.69,11.81,0,7.41.73,10.08a6.27,6.27,0,0,0,2.52,3.82,7.2,7.2,0,0,0,4,1.15,8.1,8.1,0,0,0,5.28-2.06,13.3,13.3,0,0,0,3.83-6.63h1.1l-.37,9.33h-1a6,6,0,0,0-1.69-2.46,12,12,0,0,1-7.61,3q-5,0-9.07-4.58a16.23,16.23,0,0,1-4.1-11.22,17.06,17.06,0,0,1,4-11.48q4-4.71,9.33-4.71a10.34,10.34,0,0,1,7.19,2.85,16.79,16.79,0,0,0,1.38-2.49Z" transform="translate(-4.3 -3.1)"/><path class="cls-1" d="M979.12,133.36l.14,7.94h-1.1q-2.34-7.14-8.27-7.14a7,7,0,0,0-5.1,1.77,5.12,5.12,0,0,0-1.82,3.66,3.73,3.73,0,0,0,1.51,3q1.51,1.23,5.52,1.9a25.37,25.37,0,0,1,6.1,1.64,8.37,8.37,0,0,1,3.54,3.23,9.47,9.47,0,0,1,1.44,5.18A10.25,10.25,0,0,1,971,165h-.39a12.23,12.23,0,0,1-7.24-2.62l-2.2,1.92h-.82v-8.55h1a13.09,13.09,0,0,0,3.87,6.07,8.41,8.41,0,0,0,5.44,2,8.65,8.65,0,0,0,5.42-1.82,5.75,5.75,0,0,0,2.45-4.76,5.47,5.47,0,0,0-1.7-4.07,10.2,10.2,0,0,0-5.51-2.28,28.63,28.63,0,0,1-5.85-1.46,8,8,0,0,1-3.49-2.9,7.78,7.78,0,0,1-1.45-4.57,9,9,0,0,1,9.07-8.93H970a11.45,11.45,0,0,1,6.77,2.24,8.44,8.44,0,0,0,1.5-1.87Z" transform="translate(-4.3 -3.1)"/><g id="MPI"><path class="cls-1" d="M262.12,51.1h16.5l9.84,33.78h.14l9.91-33.78H314.6v1.82h-6.83V97.08h6.83V98.9H293V97.08h7v-45h-.14L286.12,98.9h-1.58L270.9,52.1h-.14v45h7v1.8H262.12V97.08H269V52.92h-6.89Z" transform="translate(-4.3 -3.1)"/><path class="cls-1" d="M351.18,84H336.56l-4.7,13.08h8.51V98.9H323.7V97.08h6.35L346.82,50h1.06L364,97.08h6.15V98.9H348.23V97.08h7.44Zm-14-1.82h13.34L344.12,63H344Z" transform="translate(-4.3 -3.1)"/><path class="cls-1" d="M406.55,71.67l17.77,25.41h5.8V98.9H407V97.08h7.85l-13.2-18.93-14.4,18.93h9V98.9H378V97.08h7l15.43-20.46-16.57-23.7H378V51.1H401v1.82h-7.58l12,17.07,13.05-17.07h-7.89V51.1H427.2v1.82h-6.48Z" transform="translate(-4.3 -3.1)"/><path class="cls-1" d="M475.25,77V97.08h7.44V98.9H459.78V97.08h7.34V52.92h-7.31V51.1h23.7q8,0,12.09,3.71a11.86,11.86,0,0,1,4.06,9.12,12.11,12.11,0,0,1-4.1,9.32Q491.44,77,481.9,77Zm0-24.09V75.16h4.42a22.8,22.8,0,0,0,5.76-.61,6.84,6.84,0,0,0,4-3.21c1.11-1.73,1.66-4.42,1.66-8.05,0-3.21-.49-5.56-1.46-7.07a6,6,0,0,0-3.51-2.78,20,20,0,0,0-4.94-.52Z" transform="translate(-4.3 -3.1)"/><path class="cls-1" d="M524.75,52.92V97.08h10.37a19,19,0,0,0,4.7-.46,7.32,7.32,0,0,0,3.3-2.25,12.47,12.47,0,0,0,2.57-4.24,59.89,59.89,0,0,0,1.94-6.84h1.61L548,98.9H509.35V97.08h7.24V52.92h-7.24V51.1h23v1.82Z" transform="translate(-4.3 -3.1)"/><path class="cls-1" d="M584.24,84H569.63l-4.7,13.08h8.51V98.9H556.77V97.08h6.35L579.89,50H581L597,97.08h6.17V98.9H581.29V97.08h7.44Zm-14-1.82h13.34L577.12,63H577Z" transform="translate(-4.3 -3.1)"/><path class="cls-1" d="M651.76,52.92V100h-1.41L620.07,52.71h-.14V97.08h7.79V98.9H611.36V97.08h6.83V52.92h-7.31V51.1h17.56l21.44,33.5H650V52.92h-7.61V51.1h16.31v1.82Z" transform="translate(-4.3 -3.1)"/><path class="cls-1" d="M702.12,50.57V64.75h-1.47q-2.4-12.95-12.42-12.94a8.36,8.36,0,0,0-7.85,4.38q-2.48,4.38-2.47,18.46,0,11.58,1.06,15.75a9.82,9.82,0,0,0,3.69,6,10,10,0,0,0,5.78,1.8,11.45,11.45,0,0,0,7.77-3.2q3.62-3.23,5.61-10.35h1.61l-.55,14.58h-1.41A9.32,9.32,0,0,0,699,95.38Q693.59,100,687.86,100q-7.27,0-13.27-7.16a26.38,26.38,0,0,1-6-17.53q0-10.57,5.9-17.94T688.12,50a14.61,14.61,0,0,1,10.53,4.45,29.62,29.62,0,0,0,2-3.88Z" transform="translate(-4.3 -3.1)"/><path class="cls-1" d="M722.55,97.08V52.92h-7.2V51.1H738v1.82h-7.24V97.08H738V98.9h-22.6V97.08Zm20.31-46h17.36V52.9h-7L738,69.17l22.26,27.9h4.49V98.9H742.12V97.08H750L731.5,73.49l19.17-20.56h-7.82Z" transform="translate(-4.3 -3.1)"/><path class="cls-1" d="M801,97.08V52.92h-7.51V51.1H816.7v1.82h-7.58V97.08h7.58V98.9H793.44V97.08Z" transform="translate(-4.3 -3.1)"/><path class="cls-1" d="M867.27,52.92V100h-1.41L835.57,52.71h-.14V97.08h7.79V98.9H826.86V97.08h6.83V52.92h-7.31V51.1h17.56l21.44,33.5h.14V52.92h-7.61V51.1h16.33v1.82Z" transform="translate(-4.3 -3.1)"/><path class="cls-1" d="M912.12,50.57l.21,12.4h-1.61q-3.44-11.14-12.11-11.15a9.88,9.88,0,0,0-7.49,2.76,8.24,8.24,0,0,0-2.66,5.72,6,6,0,0,0,2.2,4.7c1.47,1.28,4.17,2.28,8.08,3a35.21,35.21,0,0,1,8.94,2.57,12.6,12.6,0,0,1,5.18,5A15.51,15.51,0,0,1,915,83.66a16.37,16.37,0,0,1-4.41,11.69A14.43,14.43,0,0,1,899.63,100q-5.32,0-10.6-4.1l-3.22,3h-1.2V85.53h1.51q2,6.31,5.66,9.48a11.88,11.88,0,0,0,8,3.17,12.1,12.1,0,0,0,7.87-2.94,9.21,9.21,0,0,0,3.47-7.43,8.81,8.81,0,0,0-2.49-6.36q-2.49-2.58-8.06-3.56A39.63,39.63,0,0,1,892,75.61a11.8,11.8,0,0,1-5.11-4.53,12.73,12.73,0,0,1-2.13-7.15,14.29,14.29,0,0,1,3.7-9.68,12.65,12.65,0,0,1,10-4.26,16.08,16.08,0,0,1,9.91,3.49,12.8,12.8,0,0,0,2.2-2.92Z" transform="translate(-4.3 -3.1)"/><path class="cls-1" d="M925.12,51.1h39.2l1.2,16.25h-1.75q-1.6-8.16-4.27-11.3a8.73,8.73,0,0,0-7-3.14h-3.74V97.08H957V98.9H932.43V97.08h8.23V52.92h-3.74a8.73,8.73,0,0,0-7,3.14q-2.65,3.13-4.27,11.3h-1.73Z" transform="translate(-4.3 -3.1)"/><path class="cls-1" d="M981.8,97.08V52.92h-7.51V51.1h23.26v1.82H990V97.08h7.58V98.9H974.29V97.08Z" transform="translate(-4.3 -3.1)"/><path class="cls-1" d="M1007.51,51.1h39.2l1.2,16.25h-1.79q-1.61-8.16-4.27-11.3a8.73,8.73,0,0,0-7-3.14h-3.74V97.08h8.23V98.9h-24.59V97.08H1023V52.92h-3.74a8.73,8.73,0,0,0-7,3.14q-2.65,3.13-4.27,11.3h-1.75Z" transform="translate(-4.3 -3.1)"/><path class="cls-1" d="M1095.33,52.92h-7.51V51.1h16.43v1.82H1097v28.9a34.39,34.39,0,0,1-.91,9.27,10.46,10.46,0,0,1-3.31,5,15,15,0,0,1-5.75,3,25.64,25.64,0,0,1-6.92.91q-7.55,0-11-2.46a10,10,0,0,1-4.3-6.06,46,46,0,0,1-.81-9.66V52.92h-6.65V51.1h22v1.82h-7.24V81a63.15,63.15,0,0,0,.51,9.12,9.56,9.56,0,0,0,2.78,5.52q2.27,2.2,7.17,2.21a14.87,14.87,0,0,0,7.13-1.69,9.48,9.48,0,0,0,4.41-4.54q1.25-2.85,1.25-10.62Z" transform="translate(-4.3 -3.1)"/><path class="cls-1" d="M1113.28,51.1h39.2l1.2,16.25h-1.75q-1.61-8.16-4.27-11.3a8.73,8.73,0,0,0-7-3.14h-3.74V97.08h8.23V98.9h-24.59V97.08h8.23V52.92h-3.67a8.73,8.73,0,0,0-7,3.14q-2.65,3.13-4.27,11.3h-1.73Z" transform="translate(-4.3 -3.1)"/><path class="cls-1" d="M1178.33,52.92V73.41h4.15a13.74,13.74,0,0,0,3.72-.45,5.1,5.1,0,0,0,2.74-2.41,12.91,12.91,0,0,0,1.39-6.13h1.79V84.68h-1.78c-.18-3.85-.89-6.38-2.14-7.61s-3.15-1.84-5.71-1.84h-4.15V97.08h9.36q8,0,11-3.47t3.65-10.71h1.77l-.45,16h-40.78V97.08h7.31V52.92h-7.31V51.1H1202l.79,12.76H1201q-.88-5.8-3.67-8.37c-1.85-1.71-4.93-2.56-9.24-2.57Z" transform="translate(-4.3 -3.1)"/></g></svg>